<?xml version="1.0" encoding="utf-8"?>
<!-- Generator: Adobe Illustrator 17.0.0, SVG Export Plug-In . SVG Version: 6.00 Build 0)  -->
<!DOCTYPE svg PUBLIC "-//W3C//DTD SVG 1.1//EN" "http://www.w3.org/Graphics/SVG/1.1/DTD/svg11.dtd">
<svg version="1.1" id="Layer_1" xmlns="http://www.w3.org/2000/svg" xmlns:xlink="http://www.w3.org/1999/xlink" x="0px" y="0px"
	 width="900px" height="1000px" viewBox="0 0 900 1000" enable-background="new 0 0 900 1000" xml:space="preserve">
<g>
	<path fill="#C40A75" d="M30,264C8.667,252-0.667,238.667,2,224c1.333-9.333,10-14,26-14h846c25.333,0,32,10.667,20,32
		c-5.333,9.333-13.333,16.667-24,22c-9.333,4-73.333,38-192,102s-179.333,96.667-182,98c-10.667,6.667-26,10-46,10
		c-18.667,0-34-3.333-46-10c-2.667-1.333-63.333-34-182-98S39.333,268,30,264L30,264 M880,364c13.333-6.667,20-3.333,20,10v368
		c0,10.667-5.667,21.333-17,32s-22.333,16-33,16H50c-10.667,0-21.667-5.333-33-16S0,752.667,0,742V374c0-13.333,6.667-16.667,20-10
		l384,200c12,6.667,27.333,10,46,10s34-3.333,46-10L880,364"/>
</g>
</svg>
