<?xml version="1.0" encoding="utf-8"?>
<!-- Generator: Adobe Illustrator 17.0.0, SVG Export Plug-In . SVG Version: 6.00 Build 0)  -->
<!DOCTYPE svg PUBLIC "-//W3C//DTD SVG 1.1//EN" "http://www.w3.org/Graphics/SVG/1.1/DTD/svg11.dtd">
<svg version="1.1" id="Layer_1" xmlns="http://www.w3.org/2000/svg" xmlns:xlink="http://www.w3.org/1999/xlink" x="0px" y="0px"
	 width="920px" height="1000px" viewBox="0 0 920 1000" enable-background="new 0 0 920 1000" xml:space="preserve">
<g>
	<path fill="#C40A75" d="M920,214c-24,36-55.333,68.667-94,98v24c0,86.667-20,170-60,250S664,733.667,580,789s-180.667,83-290,83
		c-106.667,0-203.333-28-290-84c9.333,1.333,24.667,2,46,2c88,0,166-26.667,234-80c-41.333-1.333-78-14-110-38s-54-55.333-66-94
		c6.667,2.667,18,4,34,4c17.333,0,34-2,50-6c-44-9.333-80-31.333-108-66s-42-74.667-42-120v-2c24,13.333,52,21.333,84,24
		c-56-38.667-84-91.333-84-158c0-32,8.667-63.333,26-94c102.667,125.333,232.667,190.667,390,196c-4-12-6-26-6-42
		c0-52,18.333-96.333,55-133s81.667-55,135-55c54.667,0,100,19.333,136,58c40-8,80-22.667,120-44c-13.333,44-40.667,78.667-82,104
		C849.333,238.667,885.333,228.667,920,214L920,214"/>
</g>
</svg>
