<?xml version="1.0" encoding="utf-8"?>
<!-- Generator: Adobe Illustrator 16.0.0, SVG Export Plug-In . SVG Version: 6.00 Build 0)  -->
<!DOCTYPE svg PUBLIC "-//W3C//DTD SVG 1.1//EN" "http://www.w3.org/Graphics/SVG/1.1/DTD/svg11.dtd">
<svg version="1.1"
	 id="Layer_1" xmlns:dc="http://purl.org/dc/elements/1.1/" xmlns:cc="http://creativecommons.org/ns#" xmlns:rdf="http://www.w3.org/1999/02/22-rdf-syntax-ns#" xmlns:svg="http://www.w3.org/2000/svg" xmlns:sodipodi="http://sodipodi.sourceforge.net/DTD/sodipodi-0.dtd" xmlns:inkscape="http://www.inkscape.org/namespaces/inkscape"
	 xmlns="http://www.w3.org/2000/svg" xmlns:xlink="http://www.w3.org/1999/xlink" x="0px" y="0px" width="576px" height="576px"
	 viewBox="0 0 576 576" enable-background="new 0 0 576 576" xml:space="preserve">
<g transform="translate(0,-1020.3622)">
	<path d="M186.103,1063.562c-15.416,0-27.675,13.173-27.675,28.8v14.4h-27.45c-3.018,0.005-5.712,1.891-6.75,4.725l-36.9,99.591
		c-0.408,0.734-0.684,1.533-0.815,2.362c-0.328,1.415-0.22,2.895,0.309,4.247c1.008,11.642,7.38,22.249,17.606,28.153
		c7.729,4.462,16.701,5.617,25.2,3.881v195.44c0,3.977,3.224,7.2,7.2,7.2h42.103c3.931,0.605,7.608-2.09,8.213-6.021
		c0.06-0.39,0.088-0.784,0.083-1.18v-93.685h43.2v93.685c-0.042,3.977,3.149,7.234,7.125,7.275c0.373,0.004,0.746-0.021,1.115-0.075
		c0.056,0.001,0.112,0.001,0.168,0h214.791c3.977,0,7.2-3.224,7.2-7.2v-195.44c8.499,1.736,17.472,0.581,25.2-3.881
		c10.234-5.909,16.606-16.528,17.606-28.181c0.561-1.414,0.659-2.97,0.281-4.444c-0.145-0.759-0.411-1.491-0.788-2.166
		l-36.872-99.562c-1.037-2.834-3.731-4.72-6.75-4.725h-27.478v-14.4c0-15.627-12.231-28.8-27.647-28.8H186.103z M186.103,1077.962
		h218.278c7.258,0,13.247,6.095,13.247,14.4v14.4h-244.8v-14.4C172.828,1084.057,178.845,1077.962,186.103,1077.962z
		 M135.984,1121.162H454.5l34.987,94.5c-0.35,7.323-4.268,14.001-10.659,17.691c-6.693,3.865-14.907,3.865-21.6,0
		c-6.693-3.864-10.801-10.975-10.801-18.703c0.004-0.244-0.006-0.488-0.027-0.731c-0.153-1.693-0.9-3.277-2.109-4.472
		c-0.161-0.167-0.33-0.327-0.507-0.478c-0.009,0-0.019,0-0.028,0c-1.121-0.918-2.493-1.478-3.938-1.604
		c-0.468-0.036-0.939-0.027-1.406,0.028c-0.009,0-0.019,0-0.027,0c-1.675,0.195-3.228,0.972-4.388,2.194c0,0.009,0,0.019,0,0.028
		c-0.168,0.17-0.328,0.349-0.479,0.535c0,0.009,0,0.019,0,0.028c-0.14,0.181-0.271,0.369-0.394,0.562
		c-0.01,0.01-0.019,0.019-0.028,0.028c-0.048,0.083-0.095,0.168-0.141,0.253c-0.068,0.111-0.134,0.224-0.196,0.338
		c0,0.009,0,0.019,0,0.028c-0.104,0.211-0.198,0.427-0.281,0.647c0,0.009,0,0.019,0,0.028c-0.086,0.212-0.16,0.428-0.226,0.646
		c0,0.01,0,0.019,0,0.028c-0.058,0.223-0.104,0.448-0.141,0.675c0,0.01,0,0.019,0,0.028c-0.039,0.233-0.067,0.468-0.084,0.703
		c-0.006,0.169-0.006,0.337,0,0.506c0,7.729-4.106,14.839-10.8,18.703c-6.693,3.865-14.907,3.865-21.601,0
		c-6.693-3.864-10.8-10.975-10.8-18.703c0.003-0.244-0.006-0.488-0.028-0.731c-0.153-1.693-0.9-3.277-2.109-4.472
		c-0.161-0.167-0.33-0.327-0.506-0.478c-0.01,0-0.019,0-0.028,0c-1.121-0.918-2.493-1.478-3.938-1.604
		c-0.469-0.036-0.939-0.027-1.406,0.028c-0.01,0-0.019,0-0.028,0c-1.674,0.195-3.227,0.972-4.388,2.194c0,0.009,0,0.019,0,0.028
		c-0.168,0.17-0.327,0.349-0.478,0.535c0,0.009,0,0.019,0,0.028c-0.141,0.181-0.271,0.369-0.394,0.562
		c-0.01,0.01-0.02,0.019-0.028,0.028c-0.049,0.083-0.096,0.168-0.141,0.253c-0.069,0.111-0.135,0.224-0.197,0.338
		c0,0.009,0,0.019,0,0.028c-0.104,0.211-0.198,0.427-0.281,0.647c0,0.009,0,0.019,0,0.028c-0.085,0.212-0.16,0.428-0.225,0.646
		c0,0.01,0,0.019,0,0.028c-0.058,0.223-0.104,0.448-0.141,0.675c0,0.01,0,0.019,0,0.028c-0.04,0.233-0.068,0.468-0.085,0.703
		c-0.006,0.169-0.006,0.337,0,0.506c0.001,7.729-4.106,14.839-10.8,18.703c-6.692,3.865-14.907,3.865-21.6,0
		c-6.693-3.864-10.801-10.975-10.8-18.703c0.003-0.244-0.007-0.488-0.028-0.731c-0.153-1.693-0.9-3.277-2.109-4.472
		c-0.161-0.167-0.33-0.327-0.507-0.478c-0.009,0-0.019,0-0.027,0c-1.121-0.918-2.494-1.478-3.938-1.604
		c-0.469-0.036-0.939-0.027-1.406,0.028c-0.01,0-0.02,0-0.028,0c-1.675,0.195-3.227,0.972-4.388,2.194c0,0.009,0,0.019,0,0.028
		c-0.168,0.17-0.328,0.349-0.479,0.535c0,0.009,0,0.019,0,0.028c-0.14,0.181-0.271,0.369-0.394,0.562
		c-0.009,0.01-0.019,0.019-0.028,0.028c-0.048,0.083-0.095,0.168-0.141,0.253c-0.068,0.111-0.134,0.224-0.196,0.338
		c0,0.009,0,0.019,0,0.028c-0.104,0.211-0.198,0.427-0.281,0.647c0,0.009,0,0.019,0,0.028c-0.085,0.212-0.16,0.428-0.226,0.646
		c0,0.01,0,0.019,0,0.028c-0.058,0.223-0.104,0.448-0.141,0.675c0,0.01,0,0.019,0,0.028c-0.039,0.233-0.067,0.468-0.084,0.703
		c-0.006,0.169-0.006,0.337,0,0.506c0,7.729-4.106,14.839-10.8,18.703c-6.693,3.865-14.907,3.865-21.6,0
		c-6.693-3.864-10.8-10.975-10.8-18.703c0.003-0.244-0.006-0.488-0.028-0.731c-0.153-1.693-0.9-3.277-2.109-4.472
		c-0.161-0.167-0.33-0.327-0.506-0.478c-0.009,0-0.019,0-0.028,0c-1.121-0.918-2.493-1.478-3.938-1.604
		c-0.468-0.036-0.939-0.027-1.406,0.028c-0.009,0-0.019,0-0.028,0c-1.674,0.195-3.227,0.972-4.388,2.194c0,0.009,0,0.019,0,0.028
		c-0.168,0.17-0.328,0.349-0.478,0.535c0,0.009,0,0.019,0,0.028c-0.14,0.181-0.271,0.369-0.394,0.562
		c-0.01,0.01-0.019,0.019-0.028,0.028c-0.048,0.083-0.095,0.168-0.141,0.253c-0.069,0.111-0.134,0.224-0.197,0.338
		c0,0.009,0,0.019,0,0.028c-0.104,0.211-0.198,0.427-0.281,0.647c0,0.009,0,0.019,0,0.028c-0.085,0.212-0.16,0.428-0.225,0.646
		c0,0.01,0,0.019,0,0.028c-0.058,0.223-0.104,0.448-0.141,0.675c0,0.01,0,0.019,0,0.028c-0.04,0.233-0.068,0.468-0.084,0.703
		c-0.006,0.169-0.006,0.337,0,0.506c0,7.729-4.106,14.839-10.8,18.703c-6.693,3.865-14.907,3.865-21.6,0
		c-6.693-3.864-10.8-10.975-10.8-18.703c0.003-0.244-0.006-0.488-0.028-0.731c-0.153-1.693-0.9-3.277-2.109-4.472
		c-0.161-0.167-0.33-0.327-0.506-0.478c-0.009,0-0.019,0-0.028,0c-1.122-0.918-2.494-1.478-3.938-1.604
		c-0.469-0.036-0.94-0.027-1.406,0.028c-0.01,0-0.019,0-0.028,0c-1.674,0.195-3.227,0.972-4.388,2.194c0,0.009,0,0.019,0,0.028
		c-0.168,0.17-0.328,0.349-0.478,0.535c0,0.009,0,0.019,0,0.028c-0.14,0.181-0.271,0.369-0.394,0.562
		c-0.009,0.01-0.019,0.019-0.028,0.028c-0.048,0.083-0.095,0.168-0.141,0.253c-0.068,0.111-0.134,0.224-0.197,0.338
		c0,0.009,0,0.019,0,0.028c-0.104,0.211-0.198,0.427-0.281,0.647c0,0.009,0,0.019,0,0.028c-0.085,0.212-0.16,0.428-0.225,0.646
		c0,0.01,0,0.019,0,0.028c-0.058,0.223-0.104,0.448-0.141,0.675c0,0.01,0,0.019,0,0.028c-0.04,0.233-0.068,0.468-0.084,0.703
		c-0.006,0.169-0.006,0.337,0,0.506c0,7.729-4.106,14.839-10.8,18.703c-6.693,3.865-14.907,3.865-21.6,0
		c-6.693-3.864-10.8-10.975-10.8-18.703c0.003-0.244-0.006-0.488-0.028-0.731c-0.153-1.693-0.9-3.277-2.109-4.472
		c-0.161-0.167-0.33-0.327-0.506-0.478c-0.009,0-0.019,0-0.028,0c-1.122-0.918-2.494-1.478-3.938-1.604
		c-0.469-0.036-0.939-0.027-1.406,0.028c-0.009,0-0.019,0-0.028,0c-1.674,0.195-3.227,0.972-4.387,2.194c0,0.009,0,0.019,0,0.028
		c-0.168,0.17-0.328,0.349-0.479,0.535c0,0.009,0,0.019,0,0.028c-0.14,0.181-0.271,0.369-0.394,0.562
		c-0.009,0.01-0.019,0.019-0.028,0.028c-0.048,0.083-0.095,0.168-0.141,0.253c-0.068,0.111-0.134,0.224-0.197,0.338
		c0,0.009,0,0.019,0,0.028c-0.104,0.211-0.198,0.427-0.281,0.647c0,0.009,0,0.019,0,0.028c-0.085,0.212-0.16,0.428-0.225,0.646
		c0,0.01,0,0.019,0,0.028c-0.058,0.223-0.104,0.448-0.141,0.675c0,0.01,0,0.019,0,0.028c-0.04,0.233-0.067,0.468-0.084,0.703
		c-0.006,0.169-0.006,0.337,0,0.506c0,7.729-4.107,14.839-10.8,18.703c-6.693,3.865-14.907,3.865-21.6,0
		c-6.383-3.685-10.3-10.352-10.659-17.663L135.984,1121.162z M151.228,1235.744c2.908,3.976,6.399,7.556,10.8,10.097
		c11.128,6.425,24.872,6.425,36,0c4.401-2.541,7.892-6.121,10.8-10.097c2.908,3.976,6.399,7.556,10.8,10.097
		c11.129,6.425,24.872,6.425,36,0c4.401-2.541,7.893-6.121,10.8-10.097c2.908,3.976,6.399,7.556,10.8,10.097
		c11.128,6.425,24.872,6.425,36,0c4.4-2.541,7.892-6.121,10.8-10.097c2.907,3.976,6.398,7.556,10.8,10.097
		c11.129,6.425,24.871,6.425,36,0c4.401-2.541,7.893-6.121,10.8-10.097c2.908,3.976,6.399,7.556,10.8,10.097
		c11.129,6.425,24.872,6.425,36,0c4.401-2.541,7.893-6.121,10.801-10.097c2.025,2.77,4.426,5.197,7.199,7.312v194.906h-201.6
		v-93.684c0-3.977-3.224-7.2-7.2-7.2h-57.6c-3.977,0-7.2,3.224-7.2,7.2v93.684h-28.8v-194.906
		C146.802,1240.941,149.203,1238.514,151.228,1235.744z M309.628,1293.962c-3.976,0-7.199,3.224-7.2,7.2v86.4
		c0.001,3.976,3.225,7.199,7.2,7.2h100.8c3.977-0.001,7.2-3.225,7.2-7.2v-86.4c0-3.976-3.224-7.199-7.2-7.2H309.628z
		 M316.828,1308.362h86.4v72h-86.4V1308.362z"/>
</g>
</svg>
