<?xml version="1.0" encoding="utf-8"?>
<!-- Generator: Adobe Illustrator 16.0.0, SVG Export Plug-In . SVG Version: 6.00 Build 0)  -->
<!DOCTYPE svg PUBLIC "-//W3C//DTD SVG 1.1//EN" "http://www.w3.org/Graphics/SVG/1.1/DTD/svg11.dtd">
<svg version="1.1" id="Layer_1" xmlns="http://www.w3.org/2000/svg" xmlns:xlink="http://www.w3.org/1999/xlink" x="0px" y="0px"
	 width="576px" height="576px" viewBox="0 0 576 576" enable-background="new 0 0 576 576" xml:space="preserve">
<path d="M386.932,214.895l8.935-21.443c2.384-6.553,7.743-11.318,14.296-14.296c6.553-2.978,13.7-2.382,19.655,0l23.23,9.531
	c6.553,2.382,11.317,7.743,14.296,14.294c2.382,6.552,2.382,13.7,0,19.657l-5.361,13.104c10.722,8.339,20.252,17.868,28.591,28.59
	l13.104-5.361c6.553-2.382,13.7-2.382,19.656,0c5.956,2.383,11.317,7.743,14.295,14.296l9.529,23.229
	c5.362,13.104-0.595,28.592-14.294,33.951l-13.104,5.361c1.788,13.7,1.788,27.398,0,40.503l13.104,5.36
	c6.551,2.384,11.317,7.743,14.294,14.296c2.384,6.552,2.384,13.699,0,19.656l-9.529,23.229c-2.382,6.553-7.744,11.318-14.295,14.296
	c-6.552,2.978-13.699,2.382-19.656,0l-13.104-5.361c-8.339,10.723-17.869,20.253-28.591,28.592l5.361,13.103
	c2.382,6.553,2.382,13.7,0,19.657c-2.383,6.551-7.743,11.316-14.296,14.294l-23.23,9.53c-2.978,1.192-6.551,1.788-10.125,1.788
	c-3.573,0-6.552-0.596-10.126-1.788c-6.551-2.382-11.316-7.743-14.296-14.294l-5.359-13.104c-13.7,1.786-27.399,1.786-40.503,0
	l-5.36,13.104c-5.361,13.103-20.848,19.655-33.951,14.294l-23.23-9.53c-13.104-5.359-19.656-20.847-14.295-33.951l5.36-13.104
	c-10.721-8.339-20.251-17.867-28.591-28.59l-13.103,5.361c-6.552,2.382-13.7,2.382-19.656,0
	c-6.552-2.382-11.317-7.743-14.295-14.296l-9.531-23.229c-5.36-13.104,0.596-28.591,14.295-33.952l21.443-8.935
	c5.957-2.383,12.508,0.596,14.295,5.956c2.382,5.957-0.596,12.51-5.957,14.296l-21.443,8.935c-1.787,0.596-2.978,2.978-1.787,4.765
	l9.53,23.229c0.595,1.191,1.191,1.787,1.787,1.787s1.787,0.596,2.978,0l21.443-8.935c4.766-1.787,10.722-0.596,13.7,4.17
	c9.53,14.296,21.443,26.208,35.143,35.737c4.169,2.979,5.956,8.339,4.169,13.699l-8.934,21.443c-0.597,1.787,0,4.17,1.786,4.766
	l23.23,9.53c1.786,0.596,4.169,0,4.765-1.787l8.935-21.443c1.786-4.764,7.147-7.743,12.508-6.552
	c16.679,3.574,33.356,3.574,50.034,0c5.36-1.191,10.721,1.786,12.508,6.552l8.935,21.443c0.596,1.787,2.978,2.978,4.764,1.787
	l23.23-9.53c1.191-0.596,1.788-1.192,1.788-1.786c0-0.597,0.594-1.788,0-2.979l-8.935-21.443
	c-1.788-4.765-0.597-10.721,4.169-13.699c14.294-9.529,26.208-21.441,35.738-35.142c2.977-4.17,8.339-5.957,13.699-4.17
	l21.442,8.935c1.192,0.597,2.382,0,2.979,0c0.596,0,1.787-0.596,1.787-1.787l9.53-23.229c0.596-1.192,0-2.384,0-2.979
	s-0.596-1.786-1.787-1.786l-21.443-8.935c-4.765-1.786-7.743-7.147-6.551-12.509c3.573-16.678,3.573-33.355,0-50.032
	c-1.192-5.361,1.786-10.723,6.551-12.509l21.443-8.935c1.787-0.596,2.979-2.978,1.787-4.766l-9.53-23.229
	c-0.596-1.192-1.191-1.788-1.787-1.788c-0.597,0-1.786-0.596-2.979,0l-21.442,8.934c-4.765,1.787-10.723,0.597-13.699-4.169
	c-9.53-14.296-21.444-26.208-35.143-35.739c-4.169-2.978-5.957-8.339-4.169-13.7l8.933-21.442c0.597-1.191,0-2.383,0-2.979
	s-0.594-1.786-1.786-1.786l-23.23-9.53c-1.189-0.596-2.382,0-2.978,0c-0.595,0-1.786,0.596-1.786,1.786l-8.935,21.444
	c-2.383,5.956-8.935,8.339-14.296,5.956C386.932,226.807,384.55,220.254,386.932,214.895z M369.658,419.792
	c-17.271,0-32.759-6.552-44.672-18.464c-8.934-8.935-14.891-19.657-17.272-31.569c-1.191-5.957-7.148-10.126-13.104-8.339
	c-5.956,1.191-10.125,7.147-8.339,13.104c3.574,16.082,11.316,30.973,23.229,42.886c16.082,16.082,37.525,25.017,60.754,25.017
	c23.23,0,44.674-8.935,60.756-25.017s25.017-37.525,25.017-60.755s-8.935-44.673-25.017-60.756
	c-12.509-12.507-28.591-20.846-46.46-23.825c-5.957-1.191-11.912,2.979-13.104,8.935c-1.192,5.957,2.979,11.913,8.935,13.104
	c13.104,2.382,25.017,8.339,34.547,17.869c11.912,11.913,18.465,27.995,18.465,44.673c0,16.677-6.553,32.759-18.465,44.673
	C403.016,413.24,386.932,419.792,369.658,419.792z M185.012,195.238h26.208c9.531,0,17.87,7.743,17.87,17.869
	c0,10.126-7.744,17.87-17.87,17.87h-47.055c-5.956,0-11.316,4.765-11.316,11.316c0,6.553,4.765,11.316,11.316,11.316h23.23v16.678
	c0,5.957,4.765,11.318,11.317,11.318c6.552,0,11.316-4.766,11.316-11.318v-16.678h1.788c22.038,0,39.907-17.868,39.907-39.907
	c0-22.039-17.869-39.908-39.907-39.908h-26.208c-9.53,0-17.869-7.743-17.869-17.868c0-9.53,7.743-17.869,17.869-17.869h46.459
	c5.957,0,11.317-4.766,11.317-11.318c0-5.956-4.765-11.317-11.317-11.317h-22.038V98.745c0-5.957-4.765-11.316-11.317-11.316
	c-6.552,0-11.317,4.765-11.317,11.316v16.678h-1.788c-22.038,0-39.907,17.869-39.907,39.908
	C145.701,177.37,162.974,195.238,185.012,195.238z M27.169,184.517c0-94.111,76.837-170.948,170.947-170.948
	c94.11,0,170.948,76.837,170.948,170.948c0,94.11-76.838,170.946-170.948,170.946C104.006,355.463,27.169,278.627,27.169,184.517z
	 M49.803,184.517c0,81.602,66.711,148.313,148.313,148.313c81.603,0,148.313-66.712,148.313-148.313
	c0-81.603-66.711-148.313-148.313-148.313C116.515,36.204,49.803,102.319,49.803,184.517z"/>
</svg>
