<?xml version="1.0" encoding="utf-8"?>
<!-- Generator: Adobe Illustrator 16.0.0, SVG Export Plug-In . SVG Version: 6.00 Build 0)  -->
<!DOCTYPE svg PUBLIC "-//W3C//DTD SVG 1.1//EN" "http://www.w3.org/Graphics/SVG/1.1/DTD/svg11.dtd">
<svg version="1.1" id="Layer_1" xmlns="http://www.w3.org/2000/svg" xmlns:xlink="http://www.w3.org/1999/xlink" x="0px" y="0px"
	 width="576px" height="576px" viewBox="0 0 576 576" enable-background="new 0 0 576 576" xml:space="preserve">
<g display="none">
	<rect x="-4227.394" y="-1790.179" display="inline" width="6065.712" height="2980.8"/>
</g>
<g display="none">
	<g display="inline">
		<path d="M412.502,255.917c-14.702-5.53-20.735-9.173-20.735-14.861c0-4.853,3.629-9.691,14.86-9.691
			c12.441,0,20.405,3.975,24.897,5.875l5.012-19.527c-5.702-2.765-13.493-5.184-25.07-5.702v-15.221h-16.949v16.43
			c-18.489,3.629-29.218,15.552-29.218,30.787c0,16.762,12.629,25.416,31.133,31.637c12.802,4.32,18.317,8.482,18.317,15.049
			c0,6.912-6.754,10.713-16.589,10.713c-11.246,0-21.441-3.629-28.714-7.604l-5.184,20.232c6.58,3.802,17.812,6.912,29.404,7.445
			v16.43h16.949v-17.654c19.886-3.456,30.787-16.604,30.787-31.997C441.389,272.707,433.08,263.189,412.502,255.917z"/>
		<path d="M511.574,115.776l-0.303,0.115L288,39.254L57.6,118.339v212.515L288,421.531l230.4-90.677V118.339l-6.726-2.304
			L511.574,115.776z M490.521,123.999l-202.507,79.113L86.213,123.753L288,54.49L490.521,123.999z M72,133.618l208.8,82.138v187.488
			L72,321.048V133.618z M295.2,403.229V215.77L504,134.193v186.854L295.2,403.229z"/>
	</g>
</g>
<g display="none">
	<g display="inline">
		<path d="M399.14,296.41c-10.686,0-20.405-3.457-27.303-7.244l-4.939,19.253c6.25,3.629,16.949,6.581,27.965,7.071v15.638h16.128
			v-16.79c18.922-3.298,29.29-15.797,29.29-30.442c0-14.803-7.892-23.861-27.476-30.773c-13.997-5.271-19.757-8.712-19.757-14.155
			c0-4.593,3.456-9.216,14.155-9.216c11.852,0,19.426,3.787,23.702,5.602l4.781-18.59c-5.443-2.649-12.845-4.954-23.861-5.443
			v-14.486h-16.128v15.639c-17.625,3.456-27.82,14.803-27.82,29.29c0,15.969,12.01,24.206,29.621,30.125
			c12.182,4.119,17.452,8.079,17.452,14.314C414.95,292.781,408.542,296.41,399.14,296.41z"/>
		<path d="M57.6,118.339v212.515L288,421.531l230.4-90.677V118.339L288,39.254L57.6,118.339z M273.643,384.941L86.4,311.242V149.645
			l187.243,73.656V384.941z M489.6,311.242l-187.156,73.67V223.344L489.6,150.207V311.242z M288.058,198.029l-174.226-68.544
			L288,69.71l174.859,60.019L288.058,198.029z"/>
	</g>
</g>
<g>
	<g>
		<path d="M412.502,255.917c-14.702-5.53-20.735-9.173-20.735-14.861c0-4.853,3.629-9.691,14.86-9.691
			c12.441,0,20.405,3.975,24.897,5.875l5.012-19.527c-5.702-2.765-13.493-5.184-25.07-5.702v-15.221h-16.949v16.43
			c-18.489,3.629-29.218,15.552-29.218,30.787c0,16.762,12.629,25.416,31.133,31.637c12.802,4.32,18.317,8.482,18.317,15.049
			c0,6.912-6.754,10.713-16.589,10.713c-11.246,0-21.441-3.629-28.714-7.604l-5.184,20.232c6.58,3.802,17.812,6.912,29.404,7.445
			v16.43h16.949v-17.654c19.886-3.456,30.787-16.604,30.787-31.997C441.389,272.707,433.08,263.189,412.502,255.917z"/>
		<path d="M57.6,118.339v212.515L288,421.531l230.4-90.677V118.339L288,39.254L57.6,118.339z M506.175,121.767L288,206.985
			L70.646,121.479L288,46.872L506.175,121.767z M64.8,126.922l219.6,86.385v199.08L64.8,325.959V126.922z M291.6,412.387v-199.08
			L511.2,127.512v198.447L291.6,412.387z"/>
	</g>
</g>
</svg>
