<?xml version="1.0" encoding="utf-8"?>
<!-- Generator: Adobe Illustrator 16.0.0, SVG Export Plug-In . SVG Version: 6.00 Build 0)  -->
<!DOCTYPE svg PUBLIC "-//W3C//DTD SVG 1.1//EN" "http://www.w3.org/Graphics/SVG/1.1/DTD/svg11.dtd">
<svg version="1.1" id="Layer_1" xmlns="http://www.w3.org/2000/svg" xmlns:xlink="http://www.w3.org/1999/xlink" x="0px" y="0px"
	 width="576px" height="576px" viewBox="0 0 576 576" enable-background="new 0 0 576 576" xml:space="preserve">
<g>
	<path d="M426.24,84.326l-7.373-18.432c-1.383-3.226-4.147-5.069-6.912-5.069c-0.922,0-1.843,0-2.765,0.46l-6.912,3.226
		c-3.226-4.608-6.912-8.294-11.06-11.52l2.766-7.373c1.843-3.687,0-8.294-4.147-10.138l-17.972-7.833
		c-0.921,0-1.843-0.461-2.765-0.461c-2.765,0-5.529,1.843-6.912,4.608l-3.226,6.912c-3.226-0.46-5.99-0.46-9.216-0.46
		c-2.304,0-4.607,0-6.912,0.46l-2.765-6.912c-1.382-3.226-4.147-5.068-6.912-5.068c-0.922,0-1.843,0-2.765,0.46l-18.432,7.373
		c-4.147,1.382-5.991,5.99-4.147,9.677l2.765,6.912c-4.608,3.226-8.294,6.912-11.521,11.059l-6.911-3.226
		c-0.922-0.461-1.843-0.461-3.226-0.461c-2.765,0-5.53,1.843-6.912,4.608l-7.834,17.971c-1.843,3.687,0,8.294,4.147,10.138
		l6.912,3.226c-0.922,5.53-0.922,10.599-0.461,16.128l-6.912,2.765c-4.147,1.382-5.99,5.99-4.147,9.677l7.373,18.432
		c1.382,3.226,4.147,5.068,6.912,5.068c0.922,0,1.844,0,2.765-0.46l6.912-2.765c3.226,4.608,6.912,8.294,11.06,11.52l-3.227,6.912
		c-1.843,3.687,0,8.294,4.147,10.138l17.972,7.833c0.922,0.461,1.843,0.461,3.226,0.461c2.765,0,5.529-1.843,6.912-4.608
		l3.226-6.912c3.226,0.461,5.99,0.461,9.216,0.461c2.304,0,4.608,0,6.912-0.461l2.765,6.912c1.383,3.226,4.147,5.069,6.912,5.069
		c0.922,0,1.843,0,2.765-0.461l18.432-7.373c4.147-1.382,5.991-5.99,4.147-9.677l-3.226-6.451
		c4.608-3.226,8.295-6.912,11.521-11.059l6.912,3.226c0.921,0.461,1.843,0.461,3.226,0.461c2.765,0,5.529-1.843,6.911-4.608
		l7.834-17.972c1.843-3.686,0-8.294-4.147-10.137l-6.912-3.226c0.922-5.53,0.922-10.599,0.461-16.128l6.912-2.765
		C426.24,92.621,428.083,88.474,426.24,84.326z M420.25,89.856l-6.912,2.765l-3.226,1.382l0.461,3.687
		c0.46,5.069,0.46,10.138-0.461,15.207l-0.461,3.687l3.226,1.382l6.912,3.226c0.921,0.461,1.382,0.921,1.382,1.843
		c0.461,0.921,0.461,1.382,0,2.304l-7.833,17.971c-0.461,0.922-1.383,1.843-2.765,1.843c-0.461,0-0.922,0-1.383-0.46l-6.912-3.226
		l-3.226-1.383l-2.304,2.765c-3.226,4.147-6.912,7.373-11.06,10.598l-2.765,2.304l1.383,3.226l2.765,6.912
		c0.461,1.383,0,3.226-1.844,4.147l-18.432,7.373c-0.461,0-0.922,0-0.922,0c-1.382,0-2.304-0.922-2.765-1.843l-2.765-6.912
		l-1.383-3.226l-3.687,0.46c-2.304,0-4.146,0.461-6.451,0.461c-2.765,0-5.99,0-8.755-0.461l-3.687-0.46l-1.382,3.226l-3.226,6.912
		c-0.461,0.921-1.383,1.843-2.765,1.843c-0.461,0-0.922,0-1.383-0.461l-16.589-9.216c-0.922-0.461-1.383-0.922-1.383-1.843
		c-0.46-0.922-0.46-1.382,0-2.304l3.226-6.912l1.383-3.226l-3.226-1.843c-4.147-3.226-7.373-6.912-10.599-11.059l-2.304-2.765
		l-3.226,1.382L288,141.926c-0.461,0-0.921,0-0.921,0c-1.383,0-2.304-0.921-2.765-1.843l-7.373-18.432
		c-0.461-0.922-0.461-1.383,0-2.304c0.46-0.921,0.921-1.382,1.843-1.382l6.912-2.765l3.226-1.383v-3.226
		c-0.461-5.068-0.461-10.137,0.461-15.206l0.461-3.687l-3.226-1.382l-7.373-2.765c-0.921-0.46-1.382-0.921-1.382-1.843
		c-0.461-0.922-0.461-1.383,0-2.304l7.833-17.971c0.461-0.921,1.383-1.843,2.765-1.843c0.461,0,0.922,0,1.383,0.461l6.912,3.226
		l3.225,1.382l2.305-2.765c3.225-4.147,6.912-7.373,11.059-10.599l2.765-2.304l-1.382-3.226l-2.765-6.912
		c-0.461-1.382,0-3.226,1.843-4.147l18.432-7.373c0.461,0,0.922,0,0.922,0c1.383,0,2.305,0.921,2.765,1.843l2.765,6.912l1.383,3.226
		h3.226c2.304,0,4.147-0.461,6.451-0.461c2.765,0,5.99,0,8.755,0.461l3.226,0.46l1.383-3.226l3.226-6.912
		c0.461-0.922,1.383-1.843,2.765-1.843c0.461,0,0.922,0,1.383,0.46l17.971,7.834c0.461,0,0.922,0.921,1.383,1.382
		c0.461,0.46,0.461,1.382,0,2.304l-3.226,6.912l-1.383,3.226l2.765,2.304c4.147,3.226,7.373,6.912,10.599,11.059l2.305,2.765
		l3.225-1.382l6.912-2.765c0.461,0,0.922,0,0.922,0c1.383,0,2.304,0.921,2.765,1.843l7.373,18.432c0.461,0.922,0.461,1.382,0,2.304
		C421.632,88.935,421.171,89.856,420.25,89.856z"/>
	<path d="M349.747,69.12c-4.147,0-8.755,0.921-12.902,2.304c-17.971,6.912-26.727,27.188-19.814,45.159
		c5.529,13.824,18.433,22.118,32.717,22.118c4.147,0,8.755-0.921,12.902-2.304c17.972-6.912,26.727-27.188,19.814-45.159
		C376.935,77.415,363.571,69.12,349.747,69.12z M377.396,116.122c-3.226,7.373-9.216,13.363-16.589,16.128
		c-3.687,1.382-7.373,2.304-11.06,2.304c-12.441,0-23.501-7.373-28.108-19.354c-2.765-7.373-2.765-15.667,0.461-23.04
		c3.226-7.373,9.216-13.363,16.588-16.128c3.687-1.383,7.373-2.304,11.06-2.304c12.441,0,23.501,7.373,28.109,19.354
		C381.082,100.455,380.621,108.749,377.396,116.122z"/>
	<path d="M382.464,240.538l-20.275-35.021c-2.765-4.608-7.833-7.373-12.902-7.373c-2.304,0-4.146,0.461-5.99,1.382l-18.432,8.294
		c-11.521-10.138-25.345-17.971-40.09-23.04l-1.843-20.275c-0.461-7.834-6.912-13.363-14.746-13.363h-40.55
		c-7.833,0-13.824,5.99-14.746,13.363l-1.843,20.275c-14.746,5.069-28.57,12.902-40.089,23.04l-18.432-8.755
		c-2.304-0.921-4.147-0.921-6.451-0.921c-5.069,0-10.138,2.765-12.902,7.373l-20.275,35.021c-3.687,6.451-1.843,15.207,4.147,19.354
		l16.589,11.52c-1.382,7.373-2.304,15.207-2.304,23.04c0,7.834,0.921,15.667,2.304,23.04l-16.128,11.981
		c-6.451,4.607-8.294,12.902-4.147,19.354l20.275,35.02c2.765,4.609,7.834,7.373,12.902,7.373c2.304,0,4.147-0.461,5.991-1.382
		l18.432-8.755c11.52,10.137,25.344,17.971,40.089,23.039l1.843,20.275c0.461,7.834,6.912,13.363,14.746,13.363h40.55
		c7.833,0,13.824-5.99,14.746-13.363l1.843-20.275c14.745-5.068,28.569-12.902,40.09-23.039l18.432,8.294
		c1.844,0.921,4.147,1.382,5.99,1.382c5.069,0,10.138-2.764,12.902-7.372l20.275-35.021c3.687-6.451,1.844-15.207-4.147-19.354
		l-17.049-11.06c1.382-7.373,2.304-15.206,2.304-23.04c0-7.833-0.922-15.667-2.304-23.04l16.589-11.52
		C384.308,255.283,386.15,246.989,382.464,240.538z M370.022,248.371l-16.589,11.52l-7.373,5.069l1.844,8.755
		c1.382,6.912,1.843,13.363,1.843,20.275c0,6.912-0.461,13.824-1.843,20.275l-1.844,8.756l7.373,5.068l16.589,11.52
		c0.461,0.461,0.461,0.922,0.461,1.383l-20.275,35.021c-0.461,1.843-0.922,1.843-0.922,1.843h-0.461l-18.432-8.294l-8.294-3.687
		l-6.451,5.529c-10.139,9.217-22.119,16.129-35.482,20.275l-8.755,2.766l-0.921,9.216l-1.382,20.274
		c0,0.461-0.461,0.922-0.922,0.922h-40.55c-0.461,0-0.922-0.461-0.922-0.922l-1.843-20.274l-0.922-9.216l-8.755-2.766
		c-12.902-4.146-24.883-11.059-35.481-20.275l-6.912-5.99l-8.294,3.687l-18.432,8.755h-0.461c0,0-0.461,0-0.921-0.461l-20.275-35.02
		c-0.461-0.461,0-0.922,0.461-1.383l16.589-11.52l7.373-5.069l-1.843-8.755c-1.382-6.912-1.843-13.363-1.843-20.275
		s0.461-13.824,1.843-20.275l1.843-8.755l-7.373-5.069l-16.589-11.52c-0.461-0.46-0.461-0.921-0.461-1.382l20.275-35.021
		c0.46-0.461,0.921-0.461,0.921-0.461h0.461l18.432,8.755l8.294,3.686l6.912-5.99c10.138-9.216,22.119-16.128,35.481-20.275
		l8.755-2.765l0.922-9.216l1.843-20.275c0-0.461,0.46-0.921,0.921-0.921h40.55c0.461,0,0.922,0.46,0.922,0.921l1.843,20.275
		l0.922,9.216l8.755,2.765c12.902,4.147,24.882,11.06,35.481,20.275l6.912,5.99l8.295-3.686l18.432-8.294h0.461
		c0,0,0.461,0,0.922,0.46l20.275,35.021C370.483,247.91,370.483,248.371,370.022,248.371z"/>
	<path d="M247.91,230.861c-35.481,0-64.051,28.569-64.051,64.051c0,35.481,28.569,64.051,64.051,64.051
		c35.482,0,64.052-28.569,64.052-64.051C311.962,259.43,282.931,230.861,247.91,230.861z M247.91,344.678
		c-27.648,0-50.227-22.578-50.227-50.227c0-27.648,22.579-50.227,50.227-50.227c27.648,0,49.767,23.04,49.767,50.688
		C297.677,322.561,275.559,344.678,247.91,344.678z"/>
</g>
</svg>
