<?xml version="1.0" encoding="utf-8"?>
<!-- Generator: Adobe Illustrator 16.0.0, SVG Export Plug-In . SVG Version: 6.00 Build 0)  -->
<!DOCTYPE svg PUBLIC "-//W3C//DTD SVG 1.1//EN" "http://www.w3.org/Graphics/SVG/1.1/DTD/svg11.dtd">
<svg version="1.1" id="Layer_1" xmlns="http://www.w3.org/2000/svg" xmlns:xlink="http://www.w3.org/1999/xlink" x="0px" y="0px"
	 width="288px" height="288px" viewBox="0 0 288 288" enable-background="new 0 0 288 288" xml:space="preserve">
<g>
	<path fill-rule="evenodd" clip-rule="evenodd" d="M221.151,61.398c0.006,18.519,0.012,37.037,0.017,55.556
		c0.002,6.479,0,12.959,0,19.439c0,0.476,0,0.951,0,1.649c-0.569,0-1.065,0-1.562,0c-10.399,0-20.799,0.018-31.198-0.026
		c-1.068-0.004-1.532,0.292-1.814,1.338c-0.986,3.662-2.098,7.289-3.113,10.943c-0.204,0.734-0.56,0.992-1.302,1.1
		c-11.783,1.703-23.561,3.444-35.34,5.17c-10.672,1.563-21.347,3.113-32.02,4.679c-10.079,1.479-20.138,3.122-30.246,4.362
		c-2.818,0.346-3.953,1.568-4.687,4.005c-1.053,3.496-2.15,6.945-1.624,10.675c0.444,3.155,2.244,5.239,5.209,6.081
		c2.087,0.592,4.313,0.966,6.479,0.971c26.718,0.064,53.437,0.041,80.154,0.043c2.459,0,3.862,1.422,3.539,3.562
		c-0.192,1.28-1.145,2.262-2.436,2.454c-0.511,0.075-1.035,0.08-1.555,0.08c-26.397,0.004-52.796,0.039-79.194-0.047
		c-2.88-0.01-5.859-0.376-8.617-1.179c-6.297-1.832-9.713-6.762-9.825-13.333c-0.078-4.567,0.932-8.924,2.812-13.014
		c1.454-3.162,2.253-6.461,3.039-9.799c4.904-20.833,9.815-41.663,14.74-62.49c0.672-2.844,0.062-4.558-2.42-6.128
		c-3.049-1.928-6.506-2.651-10.008-3.032c-3.132-0.34-6.295-0.494-9.446-0.522c-1.789-0.016-3.089-0.531-3.902-2.138
		c0-0.64,0-1.28,0-1.92c0.683-1.137,1.531-2.055,2.974-2.09c6.666-0.165,13.27,0.26,19.594,2.579
		c5.154,1.891,9.165,4.899,9.662,11.049c6.244,0.171,12.442,0.34,18.713,0.512c0-0.69,0-1.167,0-1.644
		c0-8.472,0.002-16.943-0.003-25.415c0-1.157-0.039-2.314-0.06-3.471C152.191,61.398,186.671,61.398,221.151,61.398z
		 M216.182,133.101c0-22.273,0-44.446,0-66.638c-31.178,0-62.269,0-93.35,0c0,22.258,0,44.429,0,66.638
		C153.959,133.101,184.988,133.101,216.182,133.101z M117.763,98.095c-0.743-0.049-1.373-0.113-2.003-0.129
		c-5.514-0.144-11.028-0.244-16.54-0.45c-0.969-0.036-1.295,0.176-1.515,1.118c-4.102,17.543-8.244,35.077-12.375,52.614
		c-0.646,2.742-1.278,5.488-1.943,8.343c0.501-0.024,0.856-0.013,1.202-0.063c8.814-1.288,17.627-2.581,26.44-3.877
		c10.67-1.57,21.339-3.147,32.01-4.713c11.541-1.693,23.083-3.375,34.622-5.082c0.3-0.044,0.745-0.27,0.819-0.506
		c0.743-2.38,1.423-4.779,2.177-7.368c-21.072,0-41.924,0-62.895,0C117.763,124.613,117.763,111.392,117.763,98.095z"/>
	<path fill-rule="evenodd" clip-rule="evenodd" d="M83.282,226.602c-7.947-0.281-12.917-5.241-13.044-13.255
		c-0.114-7.251,6.062-13.273,13.224-13.15c7.852,0.135,13.175,5.657,13.112,13.602C96.519,220.885,90.541,226.643,83.282,226.602z
		 M83.453,206.341c-3.917-0.009-7.265,3.163-7.116,7.045c0.175,4.564,2.341,6.89,7.02,7.112c3.857,0.184,7.253-3.179,7.114-7.036
		C90.311,209.046,88.197,206.635,83.453,206.341z"/>
	<path fill-rule="evenodd" clip-rule="evenodd" d="M164.396,226.602c-8.026-0.312-12.937-5.392-12.994-13.427
		c-0.051-7.122,5.991-12.966,13.159-12.975c7.755-0.011,13.231,5.618,13.166,13.531C177.669,220.92,171.724,226.66,164.396,226.602z
		 M164.677,206.341c-3.942-0.03-7.254,3.092-7.158,6.992c0.113,4.679,2.445,6.927,6.948,7.168c3.835,0.206,7.311-3.122,7.18-6.982
		C171.496,209.11,169.474,206.668,164.677,206.341z"/>
</g>
</svg>
