<?xml version="1.0" encoding="utf-8"?>
<!-- Generator: Adobe Illustrator 16.0.0, SVG Export Plug-In . SVG Version: 6.00 Build 0)  -->
<!DOCTYPE svg PUBLIC "-//W3C//DTD SVG 1.1//EN" "http://www.w3.org/Graphics/SVG/1.1/DTD/svg11.dtd">
<svg version="1.1" id="Layer_1" xmlns="http://www.w3.org/2000/svg" xmlns:xlink="http://www.w3.org/1999/xlink" x="0px" y="0px"
	 width="576px" height="576px" viewBox="0 0 576 576" enable-background="new 0 0 576 576" xml:space="preserve">
<title>020-Refresh Shared Folder</title>
<desc>Created with Sketch.</desc>
<g>
	<g transform="translate(0.000000, 1.000000)">
		<path fill="none" stroke="#000000" stroke-width="8" stroke-linecap="round" stroke-linejoin="round" d="M65.28,390.68V421.4
			c0,8.479,6.874,15.359,8.64,15.359h229.439"/>
		<path fill="none" stroke="#000000" stroke-width="8" stroke-linecap="round" stroke-linejoin="round" d="M495.36,252.44V129.56
			c0-8.486-6.874-15.36-15.36-15.36H80.64c-8.486,0-15.36,6.874-15.36,15.36V344.6"/>
		<path fill="none" stroke="#000000" stroke-width="8" stroke-linejoin="round" d="M472.32,114.2V68.12
			c0-8.486-6.874-15.36-15.36-15.36H293.123c-3.326,0-6.559-1.075-9.216-3.072L230.653,9.752c-2.657-1.997-5.891-3.072-9.216-3.072
			H103.68c-8.487,0-15.36,6.874-15.36,15.36v92.16"/>
		<path fill="none" stroke="#000000" stroke-width="8" stroke-linejoin="round" d="M126.72,114.2V98.84
			c0-8.486,6.874-15.36,15.36-15.36H418.56c8.487,0,15.36,6.874,15.36,15.36v15.36"/>
		<path fill="none" stroke="#000000" stroke-width="8" stroke-linecap="round" stroke-linejoin="round" d="M119.04,37.4h38.4"/>
		<path fill="none" stroke="#000000" stroke-width="8" stroke-linecap="round" stroke-linejoin="round" d="M218.88,37.4h-15.36"/>
		<path d="M172.8,37.4c0-4.239,3.441-7.68,7.68-7.68s7.68,3.441,7.68,7.68s-3.441,7.68-7.68,7.68S172.8,41.639,172.8,37.4"/>
		<path fill="none" stroke="#000000" stroke-width="8" stroke-linecap="round" stroke-linejoin="round" d="M241.92,175.64
			c0,16.965-13.755,30.72-30.72,30.72c-16.965,0-30.72-13.755-30.72-30.72c0-16.965,13.755-30.72,30.72-30.72
			C228.165,144.92,241.92,158.675,241.92,175.64L241.92,175.64z"/>
		<path fill="none" stroke="#000000" stroke-width="8" stroke-linecap="round" stroke-linejoin="round" d="M165.12,283.16v-9.17
			c0-23.332,10.606-45.396,28.823-59.966l9.577-7.665"/>
		<path fill="none" stroke="#000000" stroke-width="8" stroke-linecap="round" stroke-linejoin="round" d="M257.28,283.16v-9.17
			c0-23.332-10.606-45.396-28.823-59.966l-9.577-7.665"/>
		<path fill="none" stroke="#000000" stroke-width="8" stroke-linecap="round" stroke-linejoin="round" d="M149.76,183.32
			c0,12.726-10.314,23.04-23.04,23.04c-12.726,0-23.04-10.314-23.04-23.04c0-12.726,10.314-23.04,23.04-23.04
			C139.446,160.28,149.76,170.594,149.76,183.32L149.76,183.32z"/>
		<path fill="none" stroke="#000000" stroke-width="8" stroke-linecap="round" stroke-linejoin="round" d="M103.68,260.12v-12.119
			c0-12.127,3.594-23.985,10.322-34.076l5.038-7.565"/>
		<path fill="none" stroke="#000000" stroke-width="8" stroke-linecap="round" stroke-linejoin="round" d="M146.873,229.393
			c-1.728-5.453-4.224-10.66-7.434-15.468l-5.038-7.565"/>
		<path fill="none" stroke="#000000" stroke-width="8" stroke-linecap="round" stroke-linejoin="round" d="M272.64,183.32
			c0,12.726,10.314,23.04,23.04,23.04c12.727,0,23.04-10.314,23.04-23.04c0-12.726-10.313-23.04-23.04-23.04
			C282.954,160.28,272.64,170.594,272.64,183.32L272.64,183.32z"/>
		<path fill="none" stroke="#000000" stroke-width="8" stroke-linecap="round" stroke-linejoin="round" d="M275.527,229.393
			c1.728-5.453,4.224-10.66,7.434-15.468l5.038-7.565"/>
		<path fill="none" stroke="#000000" stroke-width="8" stroke-linecap="round" stroke-linejoin="round" d="M316.08,229.511
			c-1.735-5.453-4.224-10.66-7.434-15.468l-5.039-7.564"/>
		<path d="M57.6,367.641c0-4.24,3.44-7.681,7.68-7.681c4.24,0,7.68,3.44,7.68,7.681c0,4.238-3.44,7.68-7.68,7.68
			C61.041,375.32,57.6,371.879,57.6,367.641"/>
		<polyline fill="none" stroke="#000000" stroke-width="8" points="334.08,398.36 334.08,359.96 372.48,359.96 		"/>
		<path fill="none" stroke="#000000" stroke-width="8" stroke-linecap="round" d="M343.701,359.978
			c6.827,26.488,30.881,46.064,59.496,46.064c33.938,0,61.44-27.509,61.44-61.439c0-33.938-27.502-61.44-61.44-61.44
			c-22.74,0-42.601,12.357-53.222,30.721"/>
		<path fill="none" stroke="#000000" stroke-width="8" stroke-linecap="round" stroke-linejoin="round" d="M510.72,344.6
			c0,59.382-48.138,107.521-107.52,107.521S295.68,403.981,295.68,344.6c0-59.381,48.139-107.52,107.521-107.52
			S510.72,285.218,510.72,344.6L510.72,344.6z"/>
	</g>
</g>
</svg>
