<?xml version="1.0" encoding="utf-8"?>
<!-- Generator: Adobe Illustrator 16.0.0, SVG Export Plug-In . SVG Version: 6.00 Build 0)  -->
<!DOCTYPE svg PUBLIC "-//W3C//DTD SVG 1.1//EN" "http://www.w3.org/Graphics/SVG/1.1/DTD/svg11.dtd">
<svg version="1.1" id="Layer_1" xmlns="http://www.w3.org/2000/svg" xmlns:xlink="http://www.w3.org/1999/xlink" x="0px" y="0px"
	 width="576px" height="576px" viewBox="0 0 576 576" enable-background="new 0 0 576 576" xml:space="preserve">
<title>Combined Shape</title>
<desc>Created with Sketch.</desc>
<g>
	<path d="M518.4,381.312V69.14c0-12.719-10.302-23.06-23.009-23.06H80.609C67.871,46.08,57.6,56.404,57.6,69.14v299.5
		l133.902-184.117c7.485-10.292,19.634-10.276,27.107,0l101.646,139.764l64.794-89.091c7.479-10.284,19.598-10.294,27.084,0
		L518.4,381.312z M11.52,46.08C11.52,20.631,32.188,0,57.596,0h460.809c25.447,0,46.076,20.62,46.076,46.08v368.64
		c0,25.449-20.668,46.08-46.076,46.08H57.596c-25.447,0-46.076-20.619-46.076-46.08V46.08z M426.24,179.712
		c25.449,0,46.08-20.631,46.08-46.08s-20.631-46.08-46.08-46.08s-46.08,20.631-46.08,46.08S400.791,179.712,426.24,179.712z"/>
</g>
</svg>
