<?xml version="1.0" encoding="utf-8"?>
<!-- Generator: Adobe Illustrator 16.0.0, SVG Export Plug-In . SVG Version: 6.00 Build 0)  -->
<!DOCTYPE svg PUBLIC "-//W3C//DTD SVG 1.1//EN" "http://www.w3.org/Graphics/SVG/1.1/DTD/svg11.dtd">
<svg version="1.1"
	 id="Layer_1" xmlns:svg="http://www.w3.org/2000/svg" xmlns:inkscape="http://www.inkscape.org/namespaces/inkscape" xmlns:cc="http://creativecommons.org/ns#" xmlns:rdf="http://www.w3.org/1999/02/22-rdf-syntax-ns#" xmlns:sodipodi="http://sodipodi.sourceforge.net/DTD/sodipodi-0.dtd" xmlns:dc="http://purl.org/dc/elements/1.1/"
	 xmlns="http://www.w3.org/2000/svg" xmlns:xlink="http://www.w3.org/1999/xlink" x="0px" y="0px" width="576px" height="576px"
	 viewBox="0 0 576 576" enable-background="new 0 0 576 576" xml:space="preserve">
<g transform="translate(0,-952.36218)">
	<path d="M288,984.618c-12.145,0-23.179,2.473-31.536,6.912s-14.544,11.296-14.544,19.728v10.224h-36.864
		c-2.545,0-4.608,2.063-4.608,4.608v23.04h-46.08c-10.132,0-18.432,8.3-18.432,18.432v294.912c0,10.131,8.3,18.432,18.432,18.432
		h267.264c10.132,0,18.433-8.301,18.433-18.432v-294.912c0-10.132-8.301-18.432-18.433-18.432h-46.08v-23.04
		c0-2.545-2.062-4.608-4.607-4.608H334.08v-10.224c0-8.432-6.187-15.289-14.544-19.728S300.145,984.618,288,984.618z M288,993.834
		c10.831,0,20.581,2.379,27.216,5.904s9.648,7.742,9.648,11.52v14.832c0,2.545,2.062,4.608,4.607,4.608h36.864v46.08H209.664v-46.08
		h36.864c2.545,0,4.608-2.063,4.608-4.608v-14.832c0-3.778,3.013-7.996,9.648-11.52C267.418,996.214,277.169,993.834,288,993.834z
		 M154.368,1058.346h46.08v23.04c0,2.545,2.063,4.608,4.608,4.608h165.888c2.545,0,4.607-2.063,4.607-4.608v-23.04h46.08
		c5.186,0,9.216,4.031,9.216,9.216v294.912c0,5.185-4.03,9.216-9.216,9.216H154.368c-5.186,0-9.216-4.031-9.216-9.216v-294.912
		C145.152,1062.377,149.183,1058.346,154.368,1058.346z M209.664,1132.074c-10.125,0-18.432,8.307-18.432,18.432
		s8.307,18.432,18.432,18.432s18.432-8.307,18.432-18.432S219.789,1132.074,209.664,1132.074z M209.664,1141.29
		c5.145,0,9.216,4.072,9.216,9.216s-4.071,9.216-9.216,9.216s-9.216-4.071-9.216-9.216S204.52,1141.29,209.664,1141.29z
		 M264.096,1145.898c-2.545,0.238-4.415,2.495-4.176,5.04c0.239,2.545,2.495,4.415,5.04,4.176h105.984
		c2.545,0.036,4.637-1.998,4.673-4.543s-1.998-4.637-4.543-4.673c-0.043-0.001-0.087-0.001-0.13,0H264.96
		C264.673,1145.871,264.383,1145.871,264.096,1145.898z M209.664,1201.194c-10.125,0-18.432,8.307-18.432,18.432
		c0,10.125,8.307,18.432,18.432,18.432s18.432-8.307,18.432-18.432C228.096,1209.501,219.789,1201.194,209.664,1201.194z
		 M209.664,1210.41c5.145,0,9.216,4.072,9.216,9.216c0,5.144-4.071,9.216-9.216,9.216s-9.216-4.072-9.216-9.216
		C200.448,1214.482,204.52,1210.41,209.664,1210.41z M264.096,1215.018c-2.545,0.239-4.415,2.495-4.176,5.04
		c0.239,2.545,2.495,4.415,5.04,4.176l0,0h105.984c2.545,0.036,4.637-1.998,4.673-4.543s-1.998-4.637-4.543-4.673
		c-0.043,0-0.087,0-0.13,0H264.96C264.673,1214.991,264.383,1214.991,264.096,1215.018z M209.664,1270.314
		c-10.125,0-18.432,8.307-18.432,18.432c0,10.126,8.307,18.433,18.432,18.433s18.432-8.307,18.432-18.433
		C228.096,1278.621,219.789,1270.314,209.664,1270.314z M209.664,1279.53c5.145,0,9.216,4.072,9.216,9.216
		c0,5.145-4.071,9.216-9.216,9.216s-9.216-4.071-9.216-9.216C200.448,1283.602,204.52,1279.53,209.664,1279.53z M264.096,1284.138
		c-2.545,0.239-4.415,2.496-4.176,5.041c0.239,2.545,2.495,4.414,5.04,4.176h105.984c2.545,0.035,4.637-1.998,4.673-4.543
		s-1.998-4.637-4.543-4.674c-0.043,0-0.087,0-0.13,0H264.96C264.673,1284.111,264.383,1284.111,264.096,1284.138z"/>
</g>
</svg>
