<?xml version="1.0" encoding="utf-8"?>
<!-- Generator: Adobe Illustrator 16.0.0, SVG Export Plug-In . SVG Version: 6.00 Build 0)  -->
<!DOCTYPE svg PUBLIC "-//W3C//DTD SVG 1.1//EN" "http://www.w3.org/Graphics/SVG/1.1/DTD/svg11.dtd">
<svg version="1.1"
	 id="Layer_1" xmlns:svg="http://www.w3.org/2000/svg" xmlns:inkscape="http://www.inkscape.org/namespaces/inkscape" xmlns:cc="http://creativecommons.org/ns#" xmlns:rdf="http://www.w3.org/1999/02/22-rdf-syntax-ns#" xmlns:sodipodi="http://sodipodi.sourceforge.net/DTD/sodipodi-0.dtd" xmlns:dc="http://purl.org/dc/elements/1.1/"
	 xmlns="http://www.w3.org/2000/svg" xmlns:xlink="http://www.w3.org/1999/xlink" x="0px" y="0px" width="576px" height="576px"
	 viewBox="0 0 576 576" enable-background="new 0 0 576 576" xml:space="preserve">
<g transform="translate(0,-1020.3622)">
	<path d="M253.184,1094.056c-5.362-0.006-9.967,3.812-10.953,9.083l-6.562,35.466c-9.976,3.096-19.637,7.009-28.903,11.822
		l-29.467-20.298c-4.459-3.062-10.474-2.475-14.257,1.391l-48.982,50.069c-3.718,3.8-4.228,9.7-1.217,14.083l20.037,29.25
		c-4.961,9.535-9.054,19.549-12.257,29.946l-34.943,6.606c-5.271,0.985-9.091,5.59-9.084,10.953v23.645
		c-0.01,0.26-0.01,0.521,0,0.782v253.434c0,6.145,4.982,11.124,11.126,11.124h400.425c6.145,0,11.124-4.979,11.127-11.124v-242.915
		c0.118-0.747,0.162-1.505,0.129-2.26v-32.685c0.008-5.363-3.812-9.967-9.084-10.953l-34.943-6.606
		c-3.202-10.397-7.295-20.411-12.257-29.946l20.036-29.25c3.011-4.382,2.501-10.282-1.216-14.083l-48.983-50.069
		c-3.782-3.866-9.798-4.454-14.255-1.391l-29.469,20.298c-9.267-4.813-18.927-8.727-28.903-11.822l-6.562-35.466
		c-0.984-5.271-5.591-9.09-10.952-9.083H253.184z M262.442,1116.308h51.113l5.954,32.206c0.788,4.201,3.913,7.58,8.041,8.693
		c13.35,3.602,26.159,8.68,37.552,15.342c3.72,2.172,8.357,2.003,11.908-0.435l26.6-18.342l36.03,36.856l-18.211,26.556
		c-2.432,3.532-2.617,8.148-0.478,11.865c6.823,11.799,12.132,24.858,15.733,38.508c1.091,4.173,4.494,7.341,8.737,8.127
		l31.728,5.956v12.951l-91.23-0.13c-5.737-49.778-46.642-89.143-97.92-89.143c-51.342,0-92.31,39.452-97.965,89.316l-91.186,0.173
		v-13.168l31.729-5.956c4.241-0.786,7.645-3.954,8.735-8.127c3.602-13.65,8.911-26.709,15.734-38.508
		c2.141-3.717,1.955-8.333-0.478-11.865l-18.211-26.556l36.03-36.856l26.6,18.342c3.551,2.438,8.19,2.606,11.909,0.435
		c11.393-6.663,24.202-11.74,37.552-15.342c4.127-1.113,7.253-4.492,8.04-8.693L262.442,1116.308z M287.999,1227.573
		c39.227,0,70.127,29.207,75.669,66.847l-75.626-0.087c-0.015,0-0.029,0-0.043,0v0.087l-75.713,0.173
		C217.75,1256.866,248.709,1227.573,287.999,1227.573z M287.999,1316.673h0.043l163.595,0.217l-163.638,109.223L124.404,1317.02
		L287.999,1316.673z M477.019,1326.626v212.534H98.848v-212.404l182.979,122.001c3.747,2.51,8.638,2.51,12.386,0L477.019,1326.626z"
		/>
</g>
</svg>
