<?xml version="1.0" encoding="utf-8"?>
<!-- Generator: Adobe Illustrator 16.0.0, SVG Export Plug-In . SVG Version: 6.00 Build 0)  -->
<!DOCTYPE svg PUBLIC "-//W3C//DTD SVG 1.1//EN" "http://www.w3.org/Graphics/SVG/1.1/DTD/svg11.dtd">
<svg version="1.1" id="Layer_1" xmlns="http://www.w3.org/2000/svg" xmlns:xlink="http://www.w3.org/1999/xlink" x="0px" y="0px"
	 width="271px" height="330px" viewBox="169.5 80.5 271 330" enable-background="new 169.5 80.5 271 330" xml:space="preserve">
<g>
	<rect x="209.664" y="133.632" width="158.976" height="12.672"/>
	<rect x="209.664" y="172.814" width="138.24" height="12.672"/>
	<rect x="209.664" y="212" width="158.976" height="12.672"/>
	<rect x="209.664" y="251.187" width="102.528" height="12.677"/>
	<rect x="209.664" y="290.378" width="65.664" height="12.677"/>
	<path d="M402.187,289.797V117.366c0-17.787-14.474-32.256-32.256-32.256H206.07c-17.787,0-32.256,14.469-32.256,32.256v226.068
		c0,17.783,14.469,32.257,32.256,32.257h113.818c10.828,17.833,30.412,29.813,52.808,29.813c33.961,0,61.608-27.648,61.608-61.654
		C434.304,320.578,421.31,300.258,402.187,289.797z M206.07,366.475c-12.718,0-23.04-10.322-23.04-23.041V117.366
		c0-12.718,10.322-23.04,23.04-23.04h163.861c12.718,0,23.04,10.322,23.04,23.04v168.33c-6.359-2.258-13.18-3.456-20.275-3.456
		c-34.008,0-61.655,27.648-61.655,61.609c0,7.967,1.521,15.621,4.285,22.625H206.07z M372.695,396.288
		c-16.958,0-32.026-8.063-41.564-20.598c-2.258-2.857-4.147-5.944-5.714-9.216c-3.317-6.866-5.161-14.516-5.161-22.625
		c0-28.897,23.501-52.394,52.439-52.394c7.192,0,14.054,1.429,20.275,4.056c3.271,1.382,6.312,3.041,9.216,5.021
		c13.823,9.447,22.901,25.345,22.901,43.316C425.088,372.787,401.587,396.288,372.695,396.288z"/>
	<g>
		<path d="M370.226,328.629c0,9.46-6.885,15.432-15.511,15.432c-8.543,0-15.516-5.972-15.516-15.432
			c0-9.461,6.973-15.433,15.516-15.433C363.341,313.201,370.226,319.173,370.226,328.629z M398.27,316.851l-38.495,57.831
			l-9.705-6.056l38.417-57.83L398.27,316.851z M350.144,328.629c0,2.981,0.912,5.972,4.566,5.972c3.649,0,4.479-2.985,4.479-5.972
			s-0.83-5.973-4.479-5.973S350.144,325.643,350.144,328.629z M408.808,357.176c0,9.455-6.884,15.432-15.515,15.432
			c-8.543,0-15.599-5.977-15.599-15.432c0-9.461,7.051-15.438,15.599-15.438C401.924,341.738,408.808,347.715,408.808,357.176z
			 M388.727,357.176c0,2.98,0.912,5.972,4.562,5.972s4.483-2.986,4.483-5.972c0-2.986-0.834-5.977-4.483-5.977
			S388.727,354.185,388.727,357.176z"/>
	</g>
</g>
</svg>
