<?xml version="1.0" ?><svg id="Layer_1" style="enable-background:new 0 0 1000 1000;" version="1.1" viewBox="0 0 1000 1000" xml:space="preserve" xmlns="http://www.w3.org/2000/svg" xmlns:xlink="http://www.w3.org/1999/xlink"><style type="text/css">
	.st0{fill:none;stroke:#000000;stroke-width:10;stroke-linecap:round;stroke-linejoin:round;stroke-miterlimit:10;}
</style><g><path class="st0" d="M569.5,443c8.5,4.1,15.6,10.4,21.8,18.3c-16.3,13-28.1,28-25.2,50c2.7,20.8,13.5,36.2,32.6,45.6   c-10.5,26.3-22.2,51.3-49.4,64.3c-2.8,0-5.7,0-8.5,0c-8-2.9-15.9-5.7-23.9-8.6c-7.2-2.6-14.5-2.6-21.8-0.2   c-8.5,2.8-16.9,5.8-25.3,8.7c-2.8,0-5.7,0-8.5,0c-12.6-4.2-21.9-12.7-29.6-23.1c-14.7-19.8-23.9-41.7-28.1-65.5"/><path class="st0" d="M401.4,513.2C401.3,512.2,401.4,514.2,401.4,513.2"/><path class="st0" d="M402.3,494.1c1.4-8.9,4.4-17.4,9.4-25.6c15.9-26,42.9-38.3,71.9-24.7c12,5.6,23.2,5.7,34.8-0.2   c0.8-0.4,1.7-0.7,2.6-1.1c9.5-4.2,19.2-6,29.3-4.9"/><path class="st0" d="M546.4,378.9c3.9,20.6-3.3,37.9-22.1,47.5c-7.2,3.6-15.1,5.8-23.6,9c-0.6-10.8,0.5-19.7,4.5-28   c6.4-13.4,18.1-20.5,31.4-25.5c2.6-1,5.2-2,7.9-2.9C545.1,378.9,545.8,378.9,546.4,378.9z"/></g></svg>