<?xml version="1.0" encoding="utf-8"?>
<!-- Generator: Adobe Illustrator 16.0.0, SVG Export Plug-In . SVG Version: 6.00 Build 0)  -->
<!DOCTYPE svg PUBLIC "-//W3C//DTD SVG 1.1//EN" "http://www.w3.org/Graphics/SVG/1.1/DTD/svg11.dtd">
<svg version="1.1" id="Layer_1" xmlns="http://www.w3.org/2000/svg" xmlns:xlink="http://www.w3.org/1999/xlink" x="0px" y="0px"
	 width="30px" height="30px" viewBox="0 0 30 30" enable-background="new 0 0 30 30" xml:space="preserve">
<path fill="#C1C1C1" d="M23.687,26.914H6.424c-2.467,0-3.578-1.108-3.578-3.576V6.072c0-2.467,1.11-3.577,3.578-3.577h17.262
	c2.47,0,3.579,1.11,3.579,3.577v17.266C27.266,25.806,26.156,26.914,23.687,26.914z M6.424,3.729c-1.79,0-2.345,0.555-2.345,2.343
	v17.266c0,1.79,0.555,2.342,2.345,2.342h17.262c1.793,0,2.345-0.552,2.345-2.342V6.072c0-1.789-0.552-2.343-2.345-2.343H6.424z"/>
<g opacity="0.5">
	<path fill="#ED1C24" d="M15.458,8.712c0.663,0,0.694,0.4,0.663,1.14l-0.277,5.283c-0.031,0.541-0.153,0.987-0.785,0.987
		c-0.632,0-0.756-0.446-0.786-0.987l-0.277-5.283c-0.047-0.74,0.016-1.14,0.677-1.14H15.458z M15.258,18.54
		c0.585,0,0.863,0.293,0.863,0.878v0.399c0,0.585-0.277,0.879-0.863,0.879h-0.401c-0.584,0-0.861-0.294-0.861-0.879v-0.399
		c0-0.585,0.277-0.878,0.861-0.878H15.258z"/>
</g>
</svg>
