<?xml version="1.0" encoding="utf-8"?>
<!-- Generator: Adobe Illustrator 17.0.0, SVG Export Plug-In . SVG Version: 6.00 Build 0)  -->
<!DOCTYPE svg PUBLIC "-//W3C//DTD SVG 1.1//EN" "http://www.w3.org/Graphics/SVG/1.1/DTD/svg11.dtd">
<svg version="1.1" id="Layer_1" xmlns="http://www.w3.org/2000/svg" xmlns:xlink="http://www.w3.org/1999/xlink" x="0px" y="0px"
	 width="50px" height="50px" viewBox="0 0 50 50" enable-background="new 0 0 50 50" xml:space="preserve">
<rect x="-0.708" y="-0.5" fill="#E9E9E9" width="50.708" height="50.5"/>
<path opacity="0.6" d="M33,23.2H19.251l5.497-5.497c0.312-0.312,0.312-0.819,0-1.131c-0.312-0.312-0.819-0.312-1.131,0l-6.761,6.76
	c-0.15,0.15-0.234,0.354-0.234,0.566c0,0.212,0.084,0.416,0.234,0.566l6.761,6.761c0.156,0.156,0.361,0.234,0.566,0.234
	c0.205,0,0.41-0.078,0.566-0.234c0.312-0.312,0.312-0.819,0-1.132L19.455,24.8H33c0.442,0,0.8-0.358,0.8-0.8
	C33.8,23.558,33.442,23.2,33,23.2z"/>
<path opacity="0.6" d="M25,7.2C15.894,7.2,8.2,14.893,8.2,24S15.894,40.8,25,40.8S41.8,33.107,41.8,24S34.106,7.2,25,7.2z M25,39.2
	c-8.239,0-15.2-6.961-15.2-15.2S16.761,8.8,25,8.8S40.2,15.761,40.2,24S33.239,39.2,25,39.2z"/>
</svg>
