<?xml version="1.0" encoding="utf-8"?>
<!-- Generator: Adobe Illustrator 17.0.0, SVG Export Plug-In . SVG Version: 6.00 Build 0)  -->
<!DOCTYPE svg PUBLIC "-//W3C//DTD SVG 1.1//EN" "http://www.w3.org/Graphics/SVG/1.1/DTD/svg11.dtd">
<svg version="1.1" id="Layer_1" xmlns="http://www.w3.org/2000/svg" xmlns:xlink="http://www.w3.org/1999/xlink" x="0px" y="0px"
	 width="40.333px" height="48.333px" viewBox="0 0 40.333 48.333" enable-background="new 0 0 40.333 48.333" xml:space="preserve">
<g id="Layer_2">
	<rect x="-0.334" fill="#F2F2F2" width="40.667" height="49.667"/>
</g>
<g transform="translate(0.000000,2000.000000) scale(0.100000,-0.100000)" opacity="0.7">
	<path d="M47.648,19925.961c-4.89-0.777-8.84-2.779-12.332-6.271c-3.455-3.455-5.528-7.568-6.271-12.42
		c-0.39-2.553-0.39-245.695,0-248.246c0.37-2.465,0.886-4.113,1.931-6.293c3.081-6.359,8.328-10.488,15.61-12.26
		c1.151-0.285,5.226-0.318,59.856-0.357l58.597-0.051v-25.516v-25.516l-20.412-0.035l-20.429-0.053l-0.054-5.088l-0.034-5.1h78.405
		h78.408l-0.034,5.1l-0.054,5.088l-18.729,0.053l-18.746,0.035v25.516v25.516l56.93,0.051c54.063,0.039,56.984,0.055,58.243,0.375
		c7.177,1.719,12.546,5.988,15.61,12.402c0.974,2.057,1.47,3.74,1.843,6.133c0.231,1.469,0.265,17.684,0.265,124.123
		c0,132.236,0.054,123.715-0.886,127.133c-0.513,1.863-2.25,5.316-3.526,7.018c-1.293,1.754-3.577,3.934-5.297,5.086
		c-1.666,1.117-4.571,2.482-6.237,2.959c-3.4,0.938,7.744,0.887-157.967,0.869C78.994,19926.191,48.781,19926.156,47.648,19925.961z
		 M357.008,19915.596c4.218-1.082,7.53-4.395,8.613-8.611c0.353-1.348,0.353-2.443,0.353-105.182v-103.799H202.513H39.055v103.799
		c0,102.738,0,103.834,0.353,105.182c1.065,4.184,4.378,7.512,8.542,8.611c1.276,0.336,4.323,0.336,154.495,0.336
		C354.351,19915.949,355.644,19915.949,357.008,19915.596z M365.974,19674.209c0-12.881-0.017-13.592-0.353-14.904
		c-0.55-2.162-1.456-3.703-3.19-5.42c-1.72-1.736-3.261-2.641-5.423-3.189c-1.364-0.355-2.674-0.355-154.495-0.355
		c-151.818,0-153.127,0-154.492,0.355c-2.162,0.549-3.702,1.453-5.423,3.189c-1.738,1.717-2.64,3.258-3.19,5.42
		c-0.336,1.312-0.353,2.023-0.353,14.904v13.518h163.458h163.461V19674.209z M233.099,19639.762
		c0.034-0.178,0.051-11.66,0.017-25.518l-0.037-25.213h-28.882h-28.879v25.516v25.516h28.862
		C231.521,19640.062,233.045,19640.047,233.099,19639.762z"/>
</g>
</svg>
