<?xml version="1.0" encoding="utf-8"?>
<!-- Generator: Adobe Illustrator 16.0.0, SVG Export Plug-In . SVG Version: 6.00 Build 0)  -->
<!DOCTYPE svg PUBLIC "-//W3C//DTD SVG 1.1//EN" "http://www.w3.org/Graphics/SVG/1.1/DTD/svg11.dtd">
<svg version="1.1" id="Layer_1" xmlns="http://www.w3.org/2000/svg" xmlns:xlink="http://www.w3.org/1999/xlink" x="0px" y="0px"
	 width="30px" height="30px" viewBox="0 0 30 30" enable-background="new 0 0 30 30" xml:space="preserve">
<path opacity="0.5" fill="#7CC466" d="M12.287,20.778L12.287,20.778c-0.248,0-0.492-0.079-0.575-0.243l-4.434-4.844
	c-0.33-0.329-0.247-0.822,0.083-1.149c0.327-0.329,0.82-0.248,1.148,0.082l3.777,4.188l9.363-9.937c0.325-0.328,0.821-0.328,1.148,0
	c0.327,0.329,0.327,0.821,0,1.148l-9.854,10.511C12.781,20.699,12.532,20.778,12.287,20.778z"/>
<path fill="#C1C1C1" d="M23.687,26.914H6.424c-2.467,0-3.578-1.108-3.578-3.576V6.072c0-2.467,1.11-3.577,3.578-3.577h17.262
	c2.47,0,3.579,1.11,3.579,3.577v17.266C27.266,25.806,26.156,26.914,23.687,26.914z M6.424,3.729c-1.79,0-2.345,0.555-2.345,2.343
	v17.266c0,1.79,0.555,2.342,2.345,2.342h17.262c1.793,0,2.345-0.552,2.345-2.342V6.072c0-1.789-0.552-2.343-2.345-2.343H6.424z"/>
</svg>
