<?xml version="1.0" encoding="utf-8"?>
<!-- Generator: Adobe Illustrator 16.0.0, SVG Export Plug-In . SVG Version: 6.00 Build 0)  -->
<!DOCTYPE svg PUBLIC "-//W3C//DTD SVG 1.1//EN" "http://www.w3.org/Graphics/SVG/1.1/DTD/svg11.dtd">
<svg version="1.1" id="Layer_1" xmlns="http://www.w3.org/2000/svg" xmlns:xlink="http://www.w3.org/1999/xlink" x="0px" y="0px"
	 width="20px" height="20px" viewBox="0 0 20 20" enable-background="new 0 0 20 20" xml:space="preserve">
<g opacity="0.6">
	<path fill-rule="evenodd" clip-rule="evenodd" d="M9.992,18.961c-2.454,0-4.907-0.006-7.361,0.004
		c-0.478,0.002-0.861-0.154-1.096-0.562c-0.12-0.209-0.204-0.471-0.207-0.711c-0.018-1.656-0.007-3.311-0.013-4.967
		c0-0.199,0.072-0.266,0.27-0.264c0.603,0.01,1.205,0.004,1.807,0.004c0.337,0,0.337,0,0.337,0.33c-0.001,1.074-0.002,2.148,0,3.223
		c0,0.65-0.03,0.539,0.529,0.539c3.884,0.004,7.768,0.002,11.65,0.002c0.336,0,0.338,0.002,0.338-0.338c0-1.146,0-2.293,0-3.439
		c0.002-0.314,0.002-0.314,0.314-0.316c0.609,0,1.221,0.006,1.83-0.004c0.211-0.004,0.275,0.078,0.275,0.283
		c-0.006,1.641,0.006,3.281-0.008,4.922c-0.004,0.561-0.246,1.01-0.795,1.221c-0.17,0.066-0.369,0.07-0.555,0.07
		C14.869,18.961,12.432,18.961,9.992,18.961z"/>
	<path fill-rule="evenodd" clip-rule="evenodd" d="M8.317,4.282c0-0.958,0-1.916-0.001-2.874c0-0.264,0.054-0.333,0.326-0.352
		c0.275-0.019,0.551-0.017,0.827-0.018c0.588-0.002,1.176-0.005,1.762,0.002c0.389,0.004,0.512,0.066,0.51,0.507
		c-0.008,1.807-0.002,3.615-0.002,5.422c0.002,0.311,0.002,0.312,0.32,0.312c0.486,0.001,0.973-0.006,1.459,0.009
		c0.107,0.004,0.256,0.06,0.307,0.142c0.037,0.062-0.025,0.222-0.088,0.304c-1.064,1.385-2.133,2.766-3.203,4.145
		c-0.048,0.062-0.106,0.115-0.16,0.174c-0.185,0.199-0.394,0.223-0.573,0.025c-0.302-0.334-0.583-0.688-0.871-1.035
		c-0.749-0.903-1.496-1.806-2.244-2.71C6.539,8.158,6.386,7.987,6.251,7.802C6.191,7.72,6.168,7.611,6.128,7.514
		C6.232,7.476,6.335,7.408,6.44,7.405C6.97,7.394,7.5,7.4,8.03,7.399c0.288,0,0.287,0,0.287-0.287
		C8.317,6.169,8.317,5.226,8.317,4.282z"/>
</g>
</svg>
