<?xml version="1.0" encoding="utf-8"?>
<!-- Generator: Adobe Illustrator 16.0.0, SVG Export Plug-In . SVG Version: 6.00 Build 0)  -->
<!DOCTYPE svg PUBLIC "-//W3C//DTD SVG 1.1//EN" "http://www.w3.org/Graphics/SVG/1.1/DTD/svg11.dtd">
<svg version="1.1" id="Layer_1" xmlns="http://www.w3.org/2000/svg" xmlns:xlink="http://www.w3.org/1999/xlink" x="0px" y="0px"
	 width="100px" height="100px" viewBox="0 0 100 100" enable-background="new 0 0 100 100" xml:space="preserve">
<g>
	<path fill-rule="evenodd" clip-rule="evenodd" fill="#414242" d="M71.614,2.183c0.568,0.146,1.152,0.236,1.699,0.444
		c3.081,1.176,4.902,3.425,5.517,6.651c0.095,0.523,0.118,1.068,0.118,1.604c0.011,6.789,0.011,13.578,0.011,20.363
		c0,0.127,0,0.253,0,0.426c-0.112-0.063-0.193-0.101-0.271-0.152c-1.948-1.294-3.895-2.591-5.852-3.879
		c-0.192-0.126-0.261-0.259-0.258-0.484c0.006-5.469,0-10.938,0.009-16.406c0-0.585-0.18-1.095-0.552-1.54
		c-0.369-0.437-0.833-0.674-1.404-0.692c-0.112-0.004-0.228-0.001-0.347-0.001c-18.864,0-37.728,0-56.593,0
		c-1.407,0-2.209,0.748-2.311,2.156c-0.008,0.104-0.008,0.21-0.008,0.316c0,26.193,0,52.379,0,78.576
		c0,0.548,0.057,1.072,0.465,1.496c0.364,0.377,0.802,0.571,1.326,0.571c1.752,0.001,3.505,0,5.256,0c17.418,0,34.836,0,52.256,0
		c0.941,0,1.651-0.494,1.854-1.315c0.047-0.188,0.047-0.396,0.047-0.592c0.006-5.449,0.006-10.898,0.006-16.342
		c0-0.184,0.005-0.328,0.196-0.452c1.991-1.309,3.976-2.631,5.961-3.945c0.052-0.032,0.107-0.064,0.193-0.113
		c0.006,0.116,0.02,0.205,0.02,0.292c0.004,6.979,0.036,13.954-0.014,20.933c-0.025,3.674-2.517,6.774-6.16,7.659
		c-0.506,0.123-1.03,0.181-1.547,0.269c-19.513,0-39.021,0-58.531,0c-0.268-0.043-0.536-0.077-0.802-0.128
		c-3.331-0.593-5.535-2.482-6.549-5.72c-0.142-0.446-0.21-0.914-0.313-1.375c0-27.027,0-54.053,0-81.082
		c0.044-0.203,0.085-0.405,0.131-0.606c0.746-3.382,2.71-5.658,6.059-6.678c0.356-0.107,0.729-0.17,1.096-0.253
		C32.09,2.183,51.852,2.183,71.614,2.183z"/>
	<path fill-rule="evenodd" clip-rule="evenodd" fill="#414242" d="M95.319,50.269C81.318,59.562,67.357,68.82,53.342,78.124
		c0-4.043,0-8.02,0-12.035c-7.222,0-14.408,0-21.622,0c0-10.224,0-20.414,0-30.64c7.181,0,14.373,0,21.6,0c0-4.345,0-8.657,0-13.049
		C67.349,31.706,81.311,40.972,95.319,50.269z"/>
</g>
</svg>
