<?xml version="1.0" encoding="utf-8"?>
<!-- Generator: Adobe Illustrator 16.0.0, SVG Export Plug-In . SVG Version: 6.00 Build 0)  -->
<!DOCTYPE svg PUBLIC "-//W3C//DTD SVG 1.1//EN" "http://www.w3.org/Graphics/SVG/1.1/DTD/svg11.dtd">
<svg version="1.1" id="Layer_1" xmlns="http://www.w3.org/2000/svg" xmlns:xlink="http://www.w3.org/1999/xlink" x="0px" y="0px"
	 width="100px" height="100px" viewBox="0 0 100 100" enable-background="new 0 0 100 100" xml:space="preserve">
<g opacity="0.6">
	<path fill="#414242" d="M71.613,2.183c0.568,0.146,1.152,0.236,1.699,0.444c3.082,1.176,4.902,3.425,5.518,6.651
		c0.095,0.523,0.118,1.068,0.118,1.604c0.011,6.789,0.011,13.578,0.011,20.363c0,0.127,0,0.253,0,0.426
		c-0.111-0.063-0.193-0.101-0.271-0.152c-1.947-1.294-3.895-2.591-5.852-3.879c-0.191-0.126-0.261-0.259-0.258-0.484
		c0.006-5.469,0-10.938,0.009-16.406c0-0.585-0.18-1.095-0.552-1.54c-0.369-0.437-0.833-0.674-1.404-0.692
		c-0.111-0.004-0.229-0.001-0.347-0.001c-18.864,0-37.728,0-56.593,0c-1.407,0-2.209,0.748-2.311,2.156
		c-0.008,0.104-0.008,0.21-0.008,0.316c0,26.193,0,52.379,0,78.575c0,0.549,0.057,1.072,0.465,1.496
		c0.364,0.377,0.802,0.571,1.326,0.571c1.752,0.001,3.505,0,5.256,0c17.418,0,34.836,0,52.256,0c0.941,0,1.651-0.493,1.854-1.315
		c0.047-0.188,0.047-0.396,0.047-0.592c0.006-5.449,0.006-10.897,0.006-16.342c0-0.184,0.005-0.328,0.195-0.451
		c1.992-1.31,3.977-2.632,5.961-3.945c0.053-0.032,0.107-0.064,0.193-0.113c0.006,0.115,0.021,0.205,0.021,0.292
		c0.004,6.979,0.036,13.954-0.015,20.933c-0.024,3.674-2.517,6.774-6.16,7.659c-0.506,0.123-1.029,0.181-1.547,0.269
		c-19.513,0-39.021,0-58.53,0c-0.268-0.043-0.536-0.076-0.802-0.127c-3.331-0.594-5.535-2.482-6.549-5.721
		c-0.142-0.445-0.21-0.914-0.313-1.375c0-27.027,0-54.053,0-81.082C5.08,9.518,5.121,9.316,5.167,9.115
		c0.746-3.382,2.71-5.658,6.059-6.678c0.356-0.107,0.729-0.17,1.096-0.253C32.09,2.183,51.852,2.183,71.613,2.183z"/>
	<path fill="#414242" d="M95.318,50.269c-14,9.293-27.961,18.551-41.977,27.855c0-4.043,0-8.021,0-12.035
		c-7.222,0-14.408,0-21.622,0c0-10.224,0-20.414,0-30.64c7.181,0,14.373,0,21.6,0c0-4.345,0-8.657,0-13.049
		C67.35,31.706,81.311,40.972,95.318,50.269z"/>
</g>
</svg>
