<?xml version="1.0" encoding="utf-8"?>
<!-- Generator: Adobe Illustrator 17.0.0, SVG Export Plug-In . SVG Version: 6.00 Build 0)  -->
<!DOCTYPE svg PUBLIC "-//W3C//DTD SVG 1.1//EN" "http://www.w3.org/Graphics/SVG/1.1/DTD/svg11.dtd">
<svg version="1.1" id="Layer_1" xmlns="http://www.w3.org/2000/svg" xmlns:xlink="http://www.w3.org/1999/xlink" x="0px" y="0px"
	 width="40.333px" height="48.333px" viewBox="0 0 40.333 48.333" enable-background="new 0 0 40.333 48.333" xml:space="preserve">
<g id="Layer_2">
	<rect x="-0.334" fill="#F2F2F2" width="40.667" height="49.667"/>
</g>
<g>
	<g>
		<path d="M20.667,42.613c-1.21,0-2.195-0.985-2.195-2.195c0-1.21,0.985-2.195,2.195-2.195c1.211,0,2.195,0.985,2.195,2.195
			C22.862,41.628,21.877,42.613,20.667,42.613z M20.667,38.75c-0.92,0-1.668,0.748-1.668,1.668s0.748,1.669,1.668,1.669
			c0.92,0,1.669-0.749,1.669-1.669S21.586,38.75,20.667,38.75z"/>
	</g>
	<g>
		<path d="M27.974,5.161c1.066,0,1.934,0.867,1.934,1.933v35.055c0,1.066-0.867,1.934-1.934,1.934H13.359
			c-1.066,0-1.934-0.867-1.934-1.934V7.094c0-1.066,0.867-1.933,1.934-1.933L27.974,5.161 M27.974,4.108H13.359
			c-1.65,0-2.987,1.337-2.987,2.987v35.055c0,1.65,1.338,2.987,2.987,2.987h14.614c1.65,0,2.987-1.338,2.987-2.987V7.094
			C30.961,5.445,29.623,4.108,27.974,4.108L27.974,4.108z"/>
		<g>
			<path d="M22.511,9.567c0,0.218-0.177,0.395-0.395,0.395h-2.898c-0.218,0-0.395-0.177-0.395-0.395l0,0
				c0-0.218,0.177-0.395,0.395-0.395h2.898C22.333,9.172,22.511,9.349,22.511,9.567L22.511,9.567z"/>
			<ellipse cx="20.667" cy="7.35" rx="0.395" ry="0.417"/>
		</g>
	</g>
</g>
</svg>
