<?xml version="1.0" encoding="utf-8"?>
<!-- Generator: Adobe Illustrator 16.0.0, SVG Export Plug-In . SVG Version: 6.00 Build 0)  -->
<!DOCTYPE svg PUBLIC "-//W3C//DTD SVG 1.1//EN" "http://www.w3.org/Graphics/SVG/1.1/DTD/svg11.dtd">
<svg version="1.1" id="Layer_1" xmlns="http://www.w3.org/2000/svg" xmlns:xlink="http://www.w3.org/1999/xlink" x="0px" y="0px"
	 width="320px" height="520px" viewBox="0 0 320 520" enable-background="new 0 0 320 520" xml:space="preserve">
<linearGradient id="SVGID_1_" gradientUnits="userSpaceOnUse" x1="113.8809" y1="244.3364" x2="225.8809" y2="291.3364">
	<stop  offset="0" style="stop-color:#808080;stop-opacity:0.7"/>
	<stop  offset="0.766" style="stop-color:#FFFFFF;stop-opacity:0"/>
</linearGradient>
<polygon opacity="0.6" fill="url(#SVGID_1_)" points="213.14,8.236 292.451,87.548 292.451,508.5 81.5,508.5 17.755,444.755 
	195.5,444.755 213.5,444.755 218.5,412.5 "/>
<path fill="#FFFFFF" d="M223.626,227.146c0.002,65.887,0.002,131.775,0.002,197.663c-0.002,13.892-10.222,24.175-24.083,24.177
	c-55.766,0.011-111.53,0.012-167.293,0.001c-14.062-0.003-24.268-10.156-24.27-24.178c-0.009-131.898-0.01-263.797,0-395.696
	C7.983,15.684,18.261,5.329,31.688,5.319c56.076-0.034,112.15-0.033,168.227,0c13.49,0.009,23.701,10.39,23.704,23.979
	C223.63,95.247,223.623,161.197,223.626,227.146z M20.771,62.095c0,112.876,0,225.65,0,338.401c63.479,0,126.83,0,190.133,0
	c0-112.89,0-225.611,0-338.401C147.461,62.095,84.162,62.095,20.771,62.095z M115.688,408.383
	c-9.963-0.064-18.056,7.933-18.09,17.875c-0.032,9.966,7.94,17.982,17.935,18.025c9.857,0.044,17.917-7.921,17.994-17.78
	C133.602,416.536,125.637,408.445,115.688,408.383z M115.625,33.23c-5.147,0-10.297-0.024-15.445,0.014
	c-1.764,0.012-2.814,1.018-2.856,2.522c-0.045,1.548,0.975,2.657,2.69,2.662c10.42,0.032,20.841,0.023,31.26,0.013
	c1.42-0.002,2.365-0.708,2.63-2.134c0.331-1.771-0.908-3.056-3.021-3.068C125.796,33.208,120.71,33.228,115.625,33.23z
	 M81.947,40.67c2.453-0.006,4.357-1.926,4.352-4.388c-0.004-2.431-1.964-4.381-4.392-4.375c-2.426,0.007-4.359,1.967-4.349,4.409
	C77.57,38.768,79.492,40.675,81.947,40.67z M119.892,21.498c-0.055-1.812-1.583-3.247-3.432-3.218
	c-1.822,0.028-3.316,1.544-3.306,3.353c0.013,1.875,1.645,3.415,3.53,3.327C118.482,24.874,119.945,23.294,119.892,21.498z"/>
</svg>
