<?xml version="1.0" encoding="utf-8"?>
<!-- Generator: Adobe Illustrator 17.0.0, SVG Export Plug-In . SVG Version: 6.00 Build 0)  -->
<!DOCTYPE svg PUBLIC "-//W3C//DTD SVG 1.1//EN" "http://www.w3.org/Graphics/SVG/1.1/DTD/svg11.dtd">
<svg version="1.1" id="Layer_1" xmlns="http://www.w3.org/2000/svg" xmlns:xlink="http://www.w3.org/1999/xlink" x="0px" y="0px"
	 width="30px" height="30px" viewBox="0 0 30 30" enable-background="new 0 0 30 30" xml:space="preserve">
<rect fill="#F9F9F9" width="30" height="30"/>
<path opacity="0.6" fill="#010101" enable-background="new    " d="M15.263,4.896c-6.542,0-11.856,5.314-11.856,11.856
	s5.314,11.856,11.856,11.856s11.856-5.314,11.856-11.856S21.805,4.896,15.263,4.896 M15.263,3.501c7.322,0,13.25,5.927,13.25,13.25
	S22.585,30,15.263,30s-13.25-5.927-13.25-13.25S7.941,3.501,15.263,3.501 M14.566,23.027h1.395v2.789h-1.395V23.027 M15.263,7.685
	c2.692,0,4.881,2.19,4.881,4.881c0,1.255-0.977,2.092-2.008,3.04l-1.297,1.255c-0.823,0.935-0.921,2.72-0.879,3.333v0.042h-1.394
	c0-0.069-0.14-2.734,1.213-4.295l1.437-1.381c0.837-0.739,1.534-1.366,1.534-1.994c0-1.925-1.563-3.487-3.487-3.487
	s-3.487,1.563-3.487,3.487h-1.394C10.382,9.875,12.571,7.685,15.263,7.685z"/>
</svg>
