<?xml version="1.0" encoding="utf-8"?>
<!-- Generator: Adobe Illustrator 17.0.0, SVG Export Plug-In . SVG Version: 6.00 Build 0)  -->
<!DOCTYPE svg PUBLIC "-//W3C//DTD SVG 1.1//EN" "http://www.w3.org/Graphics/SVG/1.1/DTD/svg11.dtd">
<svg version="1.1" id="Layer_1" xmlns="http://www.w3.org/2000/svg" xmlns:xlink="http://www.w3.org/1999/xlink" x="0px" y="0px"
	 width="40.333px" height="48.333px" viewBox="0 0 40.333 48.333" enable-background="new 0 0 40.333 48.333" xml:space="preserve">
<g id="Layer_2">
	<rect x="-0.334" fill="#F2F2F2" width="40.667" height="49.667"/>
</g>
<g opacity="0.7">
	<path d="M32.835,2.479H6.666c-1.68,0-3.046,1.366-3.046,3.046v36.45c0,1.681,1.366,3.046,3.046,3.046h26.168
		c1.679,0,3.045-1.365,3.045-3.046V5.525C35.88,3.845,34.514,2.479,32.835,2.479z M34.474,41.975c0,0.905-0.736,1.64-1.64,1.64
		H6.666c-0.905,0-1.64-0.735-1.64-1.64V5.525c0-0.904,0.736-1.64,1.64-1.64h26.168c0.904,0,1.64,0.737,1.64,1.64V41.975z"/>
	<circle cx="19.75" cy="40.955" r="1.315"/>
</g>
</svg>
