<?xml version="1.0" encoding="UTF-8"?>
<svg width="138px" height="138px" viewBox="0 0 138 138" version="1.1" xmlns="http://www.w3.org/2000/svg" xmlns:xlink="http://www.w3.org/1999/xlink">
    <!-- Generator: Sketch 52.2 (67145) - http://www.bohemiancoding.com/sketch -->
    <title>Angles</title>
    <desc>Created with Sketch.</desc>
    <defs>
        <linearGradient x1="100%" y1="0%" x2="0%" y2="100%" id="linearGradient-1">
            <stop stop-color="#FAD961" offset="0%"></stop>
            <stop stop-color="#F76B1C" offset="100%"></stop>
        </linearGradient>
    </defs>
    <g id="Page-1" stroke="none" stroke-width="1" fill="none" fill-rule="evenodd">
        <g id="AppMaker-Store-Web" transform="translate(-146.000000, -570.000000)">
            <g id="Group-9">
                <g id="Group-6">
                    <g id="Group-4" transform="translate(63.000000, 104.000000)">
                        <g id="Angles" transform="translate(83.000000, 466.000000)">
                            <g id="Icon-Shape" fill="url(#linearGradient-1)">
                                <path d="M48.3381271,0.5 L89.8103104,0.5 C103.563969,0.5 110.439085,0.5 117.842794,2.84041667 C125.925794,5.78249167 132.291727,12.148425 135.233802,20.231425 C137.574219,27.6339917 137.574219,34.5113917 137.574219,48.2639083 L137.574219,89.7360917 C137.574219,103.48975 137.574219,110.364867 135.233802,117.768575 C132.291727,125.851575 125.925794,132.217508 117.842794,135.158442 C110.439085,137.5 103.563969,137.5 89.8103104,137.5 L48.3381271,137.5 C34.5844688,137.5 27.7082104,137.5 20.3056438,135.158442 C12.2226438,132.217508 5.85671042,125.851575 2.91463542,117.768575 C0.57421875,110.364867 0.57421875,103.48975 0.57421875,89.7360917 L0.57421875,48.2639083 C0.57421875,34.5113917 0.57421875,27.6339917 2.91463542,20.231425 C5.85671042,12.148425 12.2226437,5.78249167 20.3056438,2.84041667 C27.7082104,0.5 34.5844687,0.5 48.3381271,0.5 L48.3381271,0.5" id="Orange-Icon"></path>
                            </g>
                            <g id="Symbol" transform="translate(32.345757, 28.701172)" fill="#2B2B2B">
                                <polygon id="Fill-1" points="39.6552799 80.374797 34.4611386 71.3892218 62.1953026 55.3664076 62.1953026 26.2148409 53.6401627 21.0484314 28.5855537 35.5519225 28.5855537 43.6579021 18.225003 43.6579021 18.225003 29.5798689 53.7785847 9.00738141 72.5733931 20.4049116 72.5733931 61.3424907"></polygon>
                                <polygon id="Fill-2" points="19.6978694 71.5326212 0.949280631 60.1582009 0.902989868 19.1744021 33.8682708 0.188789519 39.0624121 9.14663294 11.2820285 25.1694471 11.3283192 54.3257543 19.8371209 59.5152736 44.9426901 44.9880801 44.9426901 36.8821005 55.2986188 36.8821005 55.2986188 50.982651"></polygon>
                            </g>
                        </g>
                    </g>
                </g>
            </g>
        </g>
    </g>
</svg>