<?xml version="1.0" encoding="UTF-8"?>
<svg width="138px" height="138px" viewBox="0 0 138 138" version="1.1" xmlns="http://www.w3.org/2000/svg" xmlns:xlink="http://www.w3.org/1999/xlink">
    <!-- Generator: Sketch 52.2 (67145) - http://www.bohemiancoding.com/sketch -->
    <title>Harmony</title>
    <desc>Created with Sketch.</desc>
    <defs>
        <linearGradient x1="82.8479926%" y1="50%" x2="0%" y2="50%" id="linearGradient-1">
            <stop stop-color="#FF7676" offset="0%"></stop>
            <stop stop-color="#F54EA2" offset="100%"></stop>
        </linearGradient>
    </defs>
    <g id="Page-1" stroke="none" stroke-width="1" fill="none" fill-rule="evenodd">
        <g id="AppMaker-Store-Web" transform="translate(-482.000000, -178.000000)">
            <g id="Group-9">
                <g id="Group-6">
                    <g id="Group-4" transform="translate(63.000000, 104.000000)">
                        <g id="Harmony" transform="translate(419.000000, 74.000000)">
                            <g id="Icon-Shape" fill="#FFFFFF">
                                <path d="M48.1506271,0.5 L89.6228104,0.5 C103.376469,0.5 110.251585,0.5 117.655294,2.84041667 C125.738294,5.78249167 132.104227,12.148425 135.046302,20.231425 C137.386719,27.6339917 137.386719,34.5113917 137.386719,48.2639083 L137.386719,89.7360917 C137.386719,103.48975 137.386719,110.364867 135.046302,117.768575 C132.104227,125.851575 125.738294,132.217508 117.655294,135.158442 C110.251585,137.5 103.376469,137.5 89.6228104,137.5 L48.1506271,137.5 C34.3969688,137.5 27.5207104,137.5 20.1181438,135.158442 C12.0351438,132.217508 5.66921042,125.851575 2.72713542,117.768575 C0.38671875,110.364867 0.38671875,103.48975 0.38671875,89.7360917 L0.38671875,48.2639083 C0.38671875,34.5113917 0.38671875,27.6339917 2.72713542,20.231425 C5.66921042,12.148425 12.0351437,5.78249167 20.1181438,2.84041667 C27.5207104,0.5 34.3969687,0.5 48.1506271,0.5 L48.1506271,0.5" id="White-Icon"></path>
                            </g>
                            <g id="Symbol" transform="translate(25.000000, 29.000000)" fill="url(#linearGradient-1)">
                                <path d="M54.3227669,1.74204949 C53.8942151,1.00494178 53.1056931,0.548936254 52.2519773,0.548936254 C51.3982615,0.548936254 50.6063341,1.00491545 50.1811877,1.74204949 L43.8523513,12.7059825 L37.5852155,1.84824833 C37.1566637,1.10770891 36.3681417,0.655135093 35.5144259,0.655135093 C34.6573223,0.655135093 33.8687827,1.10768258 33.4436363,1.84824833 L0.321885764,59.2158079 C-0.103243109,59.9563473 -0.103243109,60.868297 0.321885764,61.6054573 C0.747014637,62.3459968 1.53895983,62.8019935 2.39267562,62.8019935 L15.0540347,62.8019935 L8.78689894,73.6597277 C8.36177796,74.3968345 8.36177796,75.3087929 8.78689894,76.0493762 C9.21545075,76.7899157 10.0039727,77.2459124 10.8576885,77.2459124 L77.0985561,77.2459124 C77.9522368,77.2459124 78.7407763,76.7899332 79.1693457,76.0493762 C79.5978975,75.3122685 79.5978975,74.4003101 79.1693457,73.6597277 L72.8405092,62.6957947 L85.3746053,62.6957947 L85.3848916,62.6957947 C86.7048291,62.6957947 87.7745235,61.6295934 87.7745235,60.3095682 C87.7745235,59.7987342 87.6168314,59.3290282 87.3459892,58.9450448 L54.3227669,1.74204949 Z M35.5141626,7.82408333 L56.1535998,43.5718413 L45.2344282,43.5718413 L37.7639104,30.6331364 C37.5307732,30.2285803 37.1845036,29.9131698 36.7833704,29.7074512 C36.4096733,29.4708911 35.9742581,29.3371771 35.5148647,29.3371771 C34.6577611,29.3371771 33.8692216,29.7931563 33.4440752,30.5337133 L17.5739313,58.019026 L6.53451723,58.019026 L35.5141626,7.82408333 Z M14.9949671,72.4605585 L35.6344043,36.7154336 L41.092498,46.170641 L33.6254031,59.1058351 C33.388843,59.5103912 33.2928427,59.9698021 33.3134155,60.4223496 C33.2996974,60.8646195 33.3991293,61.3068718 33.6288348,61.7011241 C34.0573866,62.4416635 34.8424857,62.8976602 35.6996244,62.8976602 L67.4399121,62.8976602 L72.9597065,72.4599441 L14.9953269,72.4633671 L14.9949671,72.4605585 Z M39.9569603,57.9139506 L45.415054,48.4587432 L60.3531056,48.4587432 L60.3599602,48.4587432 C60.8605078,48.4587432 61.3233856,48.3044653 61.7107919,48.0404778 C62.0742026,47.834768 62.3861902,47.5330755 62.60216,47.1559555 C63.0307118,46.4188478 63.0307118,45.5068894 62.60216,44.7663061 L46.7320162,17.2809934 L52.2518105,7.7187095 L81.2326838,57.9112649 L39.9569603,57.9139506 Z" id="Page-1"></path>
                            </g>
                        </g>
                    </g>
                </g>
            </g>
        </g>
    </g>
</svg>