<?xml version="1.0" encoding="UTF-8"?>
<svg width="138px" height="138px" viewBox="0 0 138 138" version="1.1" xmlns="http://www.w3.org/2000/svg" xmlns:xlink="http://www.w3.org/1999/xlink">
    <!-- Generator: Sketch 52.2 (67145) - http://www.bohemiancoding.com/sketch -->
    <title>Shapes</title>
    <desc>Created with Sketch.</desc>
    <defs>
        <linearGradient x1="87.8679435%" y1="-9.81518817%" x2="26.3642473%" y2="95.7879704%" id="linearGradient-1">
            <stop stop-color="#00CCFF" offset="0%"></stop>
            <stop stop-color="#0A5DF1" offset="100%"></stop>
        </linearGradient>
        <path d="M48.0305099,0.5 L89.5026932,0.5 C103.256352,0.5 110.131468,0.5 117.535177,2.84041667 C125.618177,5.78249167 131.98411,12.148425 134.926185,20.231425 C137.266602,27.6339917 137.266602,34.5113917 137.266602,48.2639083 L137.266602,89.7360917 C137.266602,103.48975 137.266602,110.364867 134.926185,117.768575 C131.98411,125.851575 125.618177,132.217508 117.535177,135.158442 C110.131468,137.5 103.256352,137.5 89.5026932,137.5 L48.0305099,137.5 C34.2768516,137.5 27.4005932,137.5 19.9980266,135.158442 C11.9150266,132.217508 5.54909323,125.851575 2.60701823,117.768575 C0.266601562,110.364867 0.266601562,103.48975 0.266601562,89.7360917 L0.266601562,48.2639083 C0.266601562,34.5113917 0.266601562,27.6339917 2.60701823,20.231425 C5.54909323,12.148425 11.9150266,5.78249167 19.9980266,2.84041667 C27.4005932,0.5 34.2768516,0.5 48.0305099,0.5 L48.0305099,0.5" id="path-2"></path>
    </defs>
    <g id="Page-1" stroke="none" stroke-width="1" fill="none" fill-rule="evenodd">
        <g id="AppMaker-Store-Web" transform="translate(-1154.000000, -178.000000)">
            <g id="Group-9">
                <g id="Group-6">
                    <g id="Group-4" transform="translate(63.000000, 104.000000)">
                        <g id="Shapes" transform="translate(1091.000000, 74.000000)">
                            <g id="Icon-Shape">
                                <mask id="mask-3" fill="white">
                                    <use xlink:href="#path-2"></use>
                                </mask>
                                <use id="Blue-Icon" fill="url(#linearGradient-1)" xlink:href="#path-2"></use>
                            </g>
                            <g id="Symbol" transform="translate(30.500000, 33.500000)" stroke="#FFFFFF" stroke-linecap="round" stroke-linejoin="round" stroke-width="3">
                                <polygon id="Stroke-1" points="14.2619889 17.4589459 17.6716728 0.139115107 0.074975691 3.41022954"></polygon>
                                <path d="M28.3112508,42.1409664 C20.3996928,42.1409664 13.990578,48.5500812 13.990578,56.4616392 C13.990578,64.3731972 20.3996928,70.782312 28.3112508,70.782312 C36.2228087,70.782312 42.6319236,64.3731972 42.6319236,56.4616392 C42.6319236,48.5554003 36.2174896,42.1409664 28.3112508,42.1409664 Z" id="Stroke-2"></path>
                                <polygon id="Stroke-3" points="76.6837557 8.19415258 76.6837557 29.6056042 55.2723041 29.6056042 55.2723041 8.19415258"></polygon>
                            </g>
                        </g>
                    </g>
                </g>
            </g>
        </g>
    </g>
</svg>