<?xml version="1.0" encoding="utf-8"?>
<!-- Generator: Adobe Illustrator 23.0.1, SVG Export Plug-In . SVG Version: 6.00 Build 0)  -->
<svg version="1.1" id="Layer_1" xmlns="http://www.w3.org/2000/svg" xmlns:xlink="http://www.w3.org/1999/xlink" x="0px" y="0px"
	 viewBox="0 0 406.1 406.1" style="enable-background:new 0 0 406.1 406.1;" xml:space="preserve">
<style type="text/css">
	.st0{fill-rule:evenodd;clip-rule:evenodd;}
</style>
<g>
	<path class="st0" d="M301.9,147.6c0-54.1-43.7-97.8-98.2-97.8c-54.1,0-97.8,43.7-97.8,97.8c0,54.8,95.9,191,95.9,208.2
		c0,2.7,3.8,2.7,3.8,0C205.7,338.6,301.9,202.4,301.9,147.6z M203.8,95.4c29.1,0,52.5,23.4,52.5,52.1c0,29.1-23.4,52.5-52.5,52.5
		c-28.8,0-52.1-23.4-52.1-52.5C151.6,118.8,175,95.4,203.8,95.4z"/>
</g>
</svg>
