<?xml version="1.0" encoding="utf-8"?>
<!-- Generator: Adobe Illustrator 16.0.0, SVG Export Plug-In . SVG Version: 6.00 Build 0)  -->
<!DOCTYPE svg PUBLIC "-//W3C//DTD SVG 1.1//EN" "http://www.w3.org/Graphics/SVG/1.1/DTD/svg11.dtd">
<svg version="1.1" id="Layer_1" xmlns="http://www.w3.org/2000/svg" xmlns:xlink="http://www.w3.org/1999/xlink" x="0px" y="0px"
	 width="100px" height="100px" viewBox="0 0 100 100" enable-background="new 0 0 100 100" xml:space="preserve">
<g opacity="0.6">
	<g>
		<polygon fill="#414242" points="18.753,49.926 44.438,23.802 56.464,23.802 37.929,44.718 81.605,44.718 81.605,54.963 
			37.929,54.963 56.464,76.102 44.438,76.102 		"/>
	</g>
	<g>
		<path fill="#414242" d="M50.071,98.232C23.587,98.232,2.04,76.686,2.04,50.2c0-26.483,21.547-48.031,48.031-48.031
			c26.486,0,48.033,21.547,48.033,48.031C98.104,76.686,76.557,98.232,50.071,98.232z M50.071,5.178
			C25.246,5.178,5.049,25.376,5.049,50.2c0,24.827,20.197,45.024,45.022,45.024c24.826,0,45.023-20.197,45.023-45.024
			C95.096,25.376,74.896,5.178,50.071,5.178z"/>
	</g>
</g>
</svg>
