<?xml version="1.0" encoding="utf-8"?>
<!-- Generator: Adobe Illustrator 22.0.1, SVG Export Plug-In . SVG Version: 6.00 Build 0)  -->
<svg version="1.1" id="Layer_1" xmlns="http://www.w3.org/2000/svg" xmlns:xlink="http://www.w3.org/1999/xlink" x="0px" y="0px"
	 viewBox="0 0 38.6 34" style="enable-background:new 0 0 38.6 34;" xml:space="preserve">
<style type="text/css">
	.st0{clip-path:url(#SVGID_2_);}
	.st1{opacity:0.5377;clip-path:url(#SVGID_4_);fill:#6E6E6E;}
</style>
<g>
	<defs>
		<path id="SVGID_1_" d="M8,21l0,3.2l3.1,0l11.3-11.5l-3.1-3.2L8,21z M22.4,6.3l-1.7,1.8l3.1,3.2l1.7-1.8L22.4,6.3z M6.1,20.6
			c0-0.3,0.1-0.5,0.3-0.7L18.6,7.4l3.1-3.2c0.4-0.4,1-0.4,1.4,0l4.4,4.5c0.4,0.4,0.4,1,0,1.4L12.1,25.8c-0.2,0.2-0.4,0.3-0.7,0.3
			l-4.4,0c-0.3,0-0.5-0.1-0.7-0.3C6.1,25.6,6,25.4,6,25.1L6.1,20.6z M32.1,29c0.5,0,1,0.4,1,1c0,0.5-0.4,1-0.9,1H7
			c-0.5,0-0.9-0.4-0.9-1c0-0.5,0.4-1,0.9-1H32.1z"/>
	</defs>
	<use xlink:href="#SVGID_1_"  style="overflow:visible;fill-rule:evenodd;clip-rule:evenodd;fill:#6E6E6E;"/>
	<clipPath id="SVGID_2_">
		<use xlink:href="#SVGID_1_"  style="overflow:visible;"/>
	</clipPath>
	<g class="st0">
		<defs>
			<rect id="SVGID_3_" x="-1465" y="-583" width="2046" height="1913"/>
		</defs>
		<use xlink:href="#SVGID_3_"  style="overflow:visible;fill:#6E6E6E;"/>
		<clipPath id="SVGID_4_">
			<use xlink:href="#SVGID_3_"  style="overflow:visible;"/>
		</clipPath>
		<rect x="1" y="-1" class="st1" width="37" height="37"/>
	</g>
</g>
</svg>
