<?xml version="1.0" encoding="utf-8"?>
<!-- Generator: Adobe Illustrator 16.0.0, SVG Export Plug-In . SVG Version: 6.00 Build 0)  -->
<!DOCTYPE svg PUBLIC "-//W3C//DTD SVG 1.1//EN" "http://www.w3.org/Graphics/SVG/1.1/DTD/svg11.dtd">
<svg version="1.1" id="Layer_1" xmlns="http://www.w3.org/2000/svg" xmlns:xlink="http://www.w3.org/1999/xlink" x="0px" y="0px"
	 width="200px" height="200px" viewBox="0 0 200 200" enable-background="new 0 0 200 200" xml:space="preserve">
<path fill="#010101" d="M101,10.472c-49.368,0-89.528,40.165-89.528,89.528c0,49.368,40.161,89.528,89.528,89.528
	c49.368,0,89.528-40.16,89.528-89.528C190.528,50.633,150.368,10.472,101,10.472z M101,178.56c-43.32,0-78.56-35.251-78.56-78.563
	c0-43.319,35.244-78.555,78.56-78.555c43.319,0,78.56,35.239,78.56,78.559C179.56,143.319,144.319,178.56,101,178.56z M128.5,72.501
	c-2.147-2.143-5.617-2.143-7.76,0L101,92.245l-19.741-19.74c-2.142-2.143-5.612-2.143-7.754,0c-2.139,2.139-2.143,5.616,0,7.758
	L93.245,100l-19.744,19.744c-2.139,2.139-2.143,5.612,0,7.756c2.139,2.142,5.616,2.138,7.755,0L101,107.755l19.736,19.741
	c2.144,2.139,5.616,2.139,7.755,0c2.147-2.147,2.144-5.616,0-7.76L108.755,100L128.5,80.259
	C130.642,78.117,130.639,74.644,128.5,72.501z"/>
</svg>
