<?xml version="1.0" encoding="utf-8"?>
<!-- Generator: Adobe Illustrator 22.0.1, SVG Export Plug-In . SVG Version: 6.00 Build 0)  -->
<svg version="1.1" id="Layer_1" xmlns="http://www.w3.org/2000/svg" xmlns:xlink="http://www.w3.org/1999/xlink" x="0px" y="0px"
	 viewBox="0 0 38.6 34" style="enable-background:new 0 0 38.6 34;" xml:space="preserve">
<style type="text/css">
	.st0{clip-path:url(#SVGID_2_);}
	.st1{opacity:0.6082;clip-path:url(#SVGID_4_);fill:#6E6E6E;}
</style>
<g>
	<defs>
		<path id="SVGID_1_" d="M22.2,24.9c0.5,0,0.8-0.4,0.8-0.8v-9.7c0-0.5-0.4-0.8-0.8-0.8s-0.8,0.4-0.8,0.8v9.7
			C21.4,24.5,21.8,24.9,22.2,24.9z M16.8,24.9c0.5,0,0.8-0.4,0.8-0.8v-9.7c0-0.5-0.4-0.8-0.8-0.8S16,13.9,16,14.3v9.7
			C16,24.5,16.4,24.9,16.8,24.9z M27.7,10.9l-2,16.5H13.3l-2-16.5H27.7z M16.7,7.6h5.7v1.7h-5.7V7.6z M8.9,10.9h0.9l2.1,17.4
			c0,0.4,0.4,0.7,0.8,0.7h13.8c0.4,0,0.8-0.3,0.8-0.7l2.1-17.4h0.9c0.5,0,0.8-0.4,0.8-0.8c0-0.5-0.4-0.8-0.8-0.8h-1.6H24V6.8
			C24,6.3,23.7,6,23.2,6h-7.3c-0.5,0-0.8,0.4-0.8,0.8v2.5h-4.6H8.9C8.4,9.2,8,9.6,8,10.1C8,10.5,8.4,10.9,8.9,10.9z"/>
	</defs>
	<use xlink:href="#SVGID_1_"  style="overflow:visible;fill-rule:evenodd;clip-rule:evenodd;fill:#6E6E6E;"/>
	<clipPath id="SVGID_2_">
		<use xlink:href="#SVGID_1_"  style="overflow:visible;"/>
	</clipPath>
	<g class="st0">
		<defs>
			<rect id="SVGID_3_" x="-1871" y="-583" width="2046" height="1913"/>
		</defs>
		<use xlink:href="#SVGID_3_"  style="overflow:visible;fill:#6E6E6E;"/>
		<clipPath id="SVGID_4_">
			<use xlink:href="#SVGID_3_"  style="overflow:visible;"/>
		</clipPath>
		<rect x="3" y="1" class="st1" width="33" height="33"/>
	</g>
</g>
</svg>
