<?xml version="1.0" encoding="utf-8"?>
<!-- Generator: Adobe Illustrator 16.0.0, SVG Export Plug-In . SVG Version: 6.00 Build 0)  -->
<!DOCTYPE svg PUBLIC "-//W3C//DTD SVG 1.1//EN" "http://www.w3.org/Graphics/SVG/1.1/DTD/svg11.dtd">
<svg version="1.1" id="Layer_1" xmlns="http://www.w3.org/2000/svg" xmlns:xlink="http://www.w3.org/1999/xlink" x="0px" y="0px"
	 width="100px" height="100px" viewBox="0 0 100 100" enable-background="new 0 0 100 100" xml:space="preserve">
<g>
	<g>
		<path fill="#414242" d="M78.239,98H22.885C20.243,98,18,95.2,18,92.452V18h3v74.452C21,93.703,21.742,95,22.885,95h55.354
			C79.461,95,81,93.617,81,92.452V18h3v74.452C84,95.107,80.953,98,78.239,98z"/>
	</g>
	<g>
		<path fill="#414242" d="M80.917,20h-60.71C17.633,20,15,17.999,15,15.242v-1.758C15,10.857,17.588,8,20.207,8h60.71
			C83.345,8,86,10.628,86,13.484v1.758C86,17.903,83.556,20,80.917,20z M20.207,11C19.081,11,18,12.351,18,13.484v1.758
			C18,16.459,19.16,17,20.207,17h60.71C82.046,17,84,16.39,84,15.242v-1.758C84,12.306,82.012,11,80.917,11H20.207z"/>
	</g>
	<g>
		<path fill="#414242" d="M66.714,11H35.29C33.623,11,33,9.656,33,7.462V6.326C33,4.292,33.471,2,35.29,2h31.424
			C68.411,2,70,4.065,70,6.326v1.136C70,9.646,68.411,11,66.714,11z M35.958,5c-0.233,0-0.292,0.858-0.292,1.5
			c0,0,0.072,1.5,0.333,1.5h30.659C66.773,8,67,8.144,67,7.462V6.326C67,5.63,66.764,5,66.622,5H35.958z"/>
	</g>
	<g>
		<g>
			<path fill-rule="evenodd" clip-rule="evenodd" fill="#414242" d="M37,83.771C37,85.047,35.49,86,33.584,86h-0.238
				C31.441,86,31,85.047,31,83.771V30.028C31,28.75,31.441,27,33.346,27h0.238C35.49,27,37,28.75,37,30.028V83.771z"/>
		</g>
		<g>
			<path fill-rule="evenodd" clip-rule="evenodd" fill="#414242" d="M55,83.771C55,85.047,53.062,86,51.157,86H50.92
				C49.014,86,47,85.047,47,83.771V30.028C47,28.75,49.014,27,50.92,27h0.237C53.062,27,55,28.75,55,30.028V83.771z"/>
		</g>
		<g>
			<path fill-rule="evenodd" clip-rule="evenodd" fill="#414242" d="M72,83.771C72,85.047,70.636,86,68.73,86h-0.238
				C66.587,86,65,85.047,65,83.771V30.028C65,28.75,66.587,27,68.492,27h0.238c1.905,0,3.27,1.75,3.27,3.028V83.771z"/>
		</g>
	</g>
</g>
</svg>
