<?xml version="1.0" encoding="utf-8"?>
<!-- Generator: Adobe Illustrator 23.0.1, SVG Export Plug-In . SVG Version: 6.00 Build 0)  -->
<svg version="1.1" id="Layer_1" xmlns="http://www.w3.org/2000/svg" xmlns:xlink="http://www.w3.org/1999/xlink" x="0px" y="0px"
	 viewBox="0 0 406.1 406.1" style="enable-background:new 0 0 406.1 406.1;" xml:space="preserve">
<g>
	<path d="M280.7,50.4l-39.8-0.1c-44.7,0-73.6,29.6-73.6,75.5v34.8h-40c-3.5,0-6.3,2.8-6.3,6.3v50.5c0,3.5,2.8,6.3,6.3,6.3h40V351
		c0,3.5,2.8,6.3,6.3,6.3h52.2c3.5,0,6.3-2.8,6.3-6.3V223.7h46.8c3.5,0,6.3-2.8,6.3-6.3l0-50.5c0-1.7-0.7-3.2-1.8-4.4
		c-1.2-1.2-2.8-1.8-4.4-1.8H232v-29.5c0-14.2,3.4-21.4,21.9-21.4l26.8,0c3.5,0,6.3-2.8,6.3-6.3V56.7
		C286.9,53.3,284.1,50.5,280.7,50.4z"/>
</g>
</svg>
