<?xml version="1.0" encoding="utf-8"?>
<!-- Generator: Adobe Illustrator 23.0.1, SVG Export Plug-In . SVG Version: 6.00 Build 0)  -->
<svg version="1.1" id="Layer_1" xmlns="http://www.w3.org/2000/svg" xmlns:xlink="http://www.w3.org/1999/xlink" x="0px" y="0px"
	 viewBox="0 0 406.1 406.1" style="enable-background:new 0 0 406.1 406.1;" xml:space="preserve">
<g>
	<path d="M292.9,357.8H115.1c-35.9,0-65.1-29.1-65.1-65.1V114.9c0-35.9,29.1-65.1,65.1-65.1h177.8c35.9,0,65.1,29.1,65.1,65.1v177.8
		C357.9,328.6,328.8,357.8,292.9,357.8z M115.1,70.4c-24.6,0-44.5,19.9-44.5,44.5v177.8c0,24.6,19.9,44.5,44.5,44.5h177.8
		c24.6,0,44.5-19.9,44.5-44.5V114.9c0-24.6-19.9-44.5-44.5-44.5H115.1z"/>
	<path d="M204,281.1c-42.7,0-77.3-34.6-77.3-77.3s34.6-77.3,77.3-77.3s77.3,34.6,77.3,77.3C281.2,246.5,246.6,281,204,281.1z
		 M204,147c-31.3,0-56.8,25.4-56.8,56.8s25.4,56.8,56.8,56.8c31.3,0,56.7-25.4,56.8-56.7c-0.1-31.3-25.4-56.7-56.8-56.8V147z"/>
	<path d="M290.8,141.2c-14.5,0.1-26.2-11.6-26.3-26.1c-0.1-14.5,11.6-26.2,26.1-26.3c14.5-0.1,26.2,11.6,26.3,26.1c0,0,0,0.1,0,0.1
		C316.8,129.4,305.2,141.1,290.8,141.2z M290.8,99c-8.8-0.1-16,7-16,15.8c-0.1,8.8,7,16,15.8,16c8.8,0.1,16-7,16-15.8
		C306.6,106.3,299.6,99.1,290.8,99z"/>
</g>
</svg>
