<?xml version="1.0" encoding="utf-8"?>
<!-- Generator: Adobe Illustrator 23.0.1, SVG Export Plug-In . SVG Version: 6.00 Build 0)  -->
<svg version="1.1" id="Layer_1" xmlns="http://www.w3.org/2000/svg" xmlns:xlink="http://www.w3.org/1999/xlink" x="0px" y="0px"
	 viewBox="0 0 406.1 406.1" style="enable-background:new 0 0 406.1 406.1;" xml:space="preserve">
<g>
	<path d="M220.5,179c3.3-4,6.1-7.8,9.4-11.3c10.5-11.1,23.6-17.4,38.6-19.7c15.5-2.4,30.8-1.1,45.7,4c18.5,6.4,30.1,19.7,36.4,37.9
		c4.5,13.1,6.6,26.6,6.7,40.5c0.1,14.7,0.1,29.3,0.1,44c0.1,25.2,0.2,50.4,0.3,75.6c0,1.3,0.1,2.6,0,3.9c-0.1,2.3-0.8,3.1-3.1,3.2
		c-1.8,0.1-3.5,0-5.3,0c-17.4,0-34.8-0.1-52.3-0.1c-3.7,0-3.8-0.2-3.8-3.9c0-34.8,0-69.7,0-104.5c0-8.5-0.7-17-3.4-25.2
		c-4-12.2-12.4-18.6-25.1-19.8c-5.8-0.5-11.5-0.1-17.1,1.6c-12.4,3.6-19.2,12.4-21.9,24.5c-1.8,7.7-2.6,15.6-2.6,23.5
		c0,33.2-0.1,66.4-0.1,99.6c0,0.6-0.1,1.2,0,1.8c0.1,1.7-0.8,2.4-2.4,2.4c-0.6,0-1.2,0-1.8,0c-15.7,0-31.3,0-47,0
		c-3.1,0-6.2,0.1-9.2,0.1c-3.1,0-3.8-0.8-3.8-3.9c0-65.9,0-131.9,0-197.8c0-3.2,0.2-3.4,3.3-3.4c18.1,0,36.1,0,54.2-0.1
		c3.6,0,4.2,0.6,4.2,4.2c0,6.9,0,13.7,0,20.6C220.5,177.5,220.5,178.2,220.5,179z"/>
	<path d="M119.6,255.3c0,32.7,0,65.5,0,98.2c0,3.3-0.2,3.5-3.6,3.5c-14.8,0-29.6,0-44.4,0c-4.1,0-8.1,0.1-12.2,0.1
		c-3.6,0-4.4-0.7-4.4-4.4c0-44.7,0.1-89.5,0.1-134.2c0-20.7,0-41.4-0.1-62.1c0-3.8,0.6-4.5,4.4-4.5c18.5,0,37.1,0,55.6,0
		c4.1,0,4.6,0.5,4.7,4.6c0,32.9,0,65.7,0,98.6C119.6,255.3,119.6,255.3,119.6,255.3z"/>
	<path d="M88.2,124.9C67.1,125,50.4,108.7,50.3,88c-0.1-20.4,16.4-37.6,36.2-37.6c21.1-0.1,38,16.3,38.1,37
		C124.7,107.7,108.1,124.8,88.2,124.9z"/>
</g>
</svg>
