<?xml version="1.0" encoding="utf-8"?>
<!-- Generator: Adobe Illustrator 17.0.0, SVG Export Plug-In . SVG Version: 6.00 Build 0)  -->
<!DOCTYPE svg PUBLIC "-//W3C//DTD SVG 1.1//EN" "http://www.w3.org/Graphics/SVG/1.1/DTD/svg11.dtd">
<svg version="1.1" id="Layer_1" xmlns="http://www.w3.org/2000/svg" xmlns:xlink="http://www.w3.org/1999/xlink" x="0px" y="0px"
	 width="262.5px" height="520px" viewBox="0 0 262.5 520" enable-background="new 0 0 262.5 520" xml:space="preserve">
<g opacity="0.4">
	<rect x="63.5" y="11.5" fill="#848484" width="128" height="47"/>
</g>
<linearGradient id="SVGID_1_" gradientUnits="userSpaceOnUse" x1="256.5675" y1="175.0726" x2="478.5676" y2="-308.9275" gradientTransform="matrix(1 0 0 -1 -234 197)">
	<stop  offset="0" style="stop-color:#F2F2F2"/>
	<stop  offset="0.5108" style="stop-color:#FFFFFF"/>
	<stop  offset="1" style="stop-color:#CCCCCC"/>
</linearGradient>
<path fill="url(#SVGID_1_)" stroke="#C9C9C9" stroke-linecap="round" stroke-linejoin="round" stroke-miterlimit="10" d="
	M255.635,260.075c0.002,75.666,0.002,151.333,0.002,227.001c-0.002,15.954-11.739,27.763-27.658,27.766
	c-64.043,0.013-128.083,0.014-192.123,0.001c-16.149-0.004-27.87-11.663-27.872-27.767c-0.01-151.476-0.012-302.952,0-454.428
	c0-15.422,11.803-27.314,27.224-27.325c64.399-0.039,128.796-0.038,193.197,0c15.491,0.01,27.219,11.933,27.222,27.538
	C255.639,108.599,255.632,184.337,255.635,260.075z M22.67,70.526c0,129.629,0,259.142,0,388.628c72.901,0,145.655,0,218.355,0
	c0-129.646,0-259.098,0-388.628C168.164,70.526,95.47,70.526,22.67,70.526z M131.675,468.213
	c-11.441-0.074-20.736,9.11-20.775,20.527c-0.037,11.444,9.119,20.651,20.597,20.701c11.32,0.05,20.577-9.098,20.665-20.419
	C152.248,477.575,143.102,468.284,131.675,468.213z M131.603,37.376c-5.911,0-11.825-0.027-17.737,0.016
	c-2.026,0.014-3.232,1.169-3.28,2.896c-0.052,1.778,1.12,3.051,3.089,3.057c11.966,0.037,23.934,0.026,35.899,0.015
	c1.63-0.002,2.717-0.813,3.021-2.45c0.38-2.034-1.042-3.51-3.47-3.524C143.284,37.351,137.443,37.375,131.603,37.376z M92.926,45.92
	c2.817-0.006,5.005-2.211,4.998-5.039c-0.004-2.792-2.255-5.032-5.043-5.024c-2.787,0.008-5.006,2.259-4.995,5.063
	C87.899,43.736,90.107,45.926,92.926,45.92z M136.504,23.903c-0.063-2.081-1.818-3.729-3.942-3.696
	c-2.092,0.032-3.808,1.773-3.797,3.85c0.015,2.153,1.889,3.922,4.054,3.821C134.884,27.78,136.564,25.966,136.504,23.903z"/>
</svg>
