<?xml version="1.0" encoding="utf-8"?>
<!-- Generator: Adobe Illustrator 23.0.1, SVG Export Plug-In . SVG Version: 6.00 Build 0)  -->
<svg version="1.1" id="Layer_1" xmlns="http://www.w3.org/2000/svg" xmlns:xlink="http://www.w3.org/1999/xlink" x="0px" y="0px"
	 viewBox="0 0 406.1 406.1" style="enable-background:new 0 0 406.1 406.1;" xml:space="preserve">
<path d="M183.9,251c-1.9,7.8-4.1,15.2-5.6,22.6c-5.7,28.4-17.2,54.1-35.3,76.8c-0.2,0.3-0.4,0.7-0.7,0.9c-1.1,0.7-2.7,2.1-3.3,1.8
	c-1.1-0.6-2.1-2.2-2.5-3.5c-0.7-2.4-1-5-1.2-7.5c-0.6-8.2-1.5-16.5-1.5-24.7c-0.1-14.8,2.7-29.1,6.2-43.5
	c5.2-21.2,9.8-42.6,14.7-63.9c0.8-3.4,1.7-6.8,2.9-10.1c1.4-3.7,1.5-7.4,0.1-11c-3.3-8.7-4.4-17.7-4-26.9c0.6-12.7,4.9-23.9,14-32.9
	c7.6-7.4,16.7-10.3,27.1-7c9.7,3,15.2,11,15.3,21.1c0,10.4-2,20.4-4.7,30.3c-3.1,11.3-6.6,22.5-9.6,33.8
	c-4.3,16.2,5.6,30.8,22.3,32.8c12.3,1.5,22.9-2.7,31.8-11.1c7.7-7.2,12.5-16.3,16.7-25.8c6.2-14.2,9.4-29.1,9.8-44.6
	c0.3-9.3,0-18.5-2.2-27.5c-4.8-20-17.2-33.2-36-40.9c-27.6-11.3-62.3-5.8-83.8,9.3c-12,8.4-20.3,19.7-26.2,32.9
	c-4.7,10.5-7.8,21.4-7.4,33c0.4,12.2,3.3,23.7,11.1,33.5c1.9,2.4,3.5,5.1,3.4,8.4c0,0.8-0.1,1.6-0.3,2.4c-1,4-2.1,8-3.2,12
	c-1.7,6.1-4.5,7.6-10.4,5.3c-10.4-4-17.9-11.3-23.4-20.7C89.3,191.8,86,176,87.1,159.2c0.9-14.4,4.3-28.1,10.4-41.2
	c7.6-16.3,19-29.4,33.7-39.7c14.2-10,29.5-17.4,46.6-20.9c8.9-1.8,17.9-2.6,27-2.9c14.3-0.5,28.3,1,42,5.3
	c16.6,5.2,31.3,13.5,43.6,25.9c16.5,16.6,26.5,36.3,28,59.8c2,30-3.8,58.4-19.8,84.1c-8,12.9-18.4,23.5-31.8,31
	c-11.5,6.4-23.9,9.6-37,10.2c-12.1,0.6-23.5-1.6-33.7-8.7c-3.8-2.7-7.2-5.8-10.2-9.5C185.5,252.2,184.8,251.8,183.9,251z"/>
</svg>
