<?xml version="1.0" encoding="utf-8"?>
<!-- Generator: Adobe Illustrator 16.0.0, SVG Export Plug-In . SVG Version: 6.00 Build 0)  -->
<!DOCTYPE svg PUBLIC "-//W3C//DTD SVG 1.1//EN" "http://www.w3.org/Graphics/SVG/1.1/DTD/svg11.dtd">
<svg version="1.1" id="Layer_1" xmlns="http://www.w3.org/2000/svg" xmlns:xlink="http://www.w3.org/1999/xlink" x="0px" y="0px"
	 width="1676px" height="1324px" viewBox="0 0 1676 1324" enable-background="new 0 0 1676 1324" xml:space="preserve">
<linearGradient id="SVGID_1_" gradientUnits="userSpaceOnUse" x1="923.4355" y1="-79.2832" x2="923.4355" y2="50.377" gradientTransform="matrix(1 0 0 -1 -76 1199)">
	<stop  offset="0" style="stop-color:#E0E0E0"/>
	<stop  offset="0.816" style="stop-color:#949598"/>
	<stop  offset="0.9995" style="stop-color:#4D4D4D"/>
</linearGradient>
<path fill="url(#SVGID_1_)" d="M666.14,1130.271c-0.672,10.971-15.907,139.258-18.866,145.664c0,0-36.261,8.776-48.167,11.012
	c-7.358,1.382-14.842,2.142-22.057,4.408c-2.711,0.852-2.607,2.377-2.388,4.345c0.17,1.509,2.458,1.816,2.458,1.816
	s229.691,0,335.859,0c62.849,0,203.34,0,203.34,0s3.968-0.156,3.989-2.931c0.011-1.465-0.293-2.703-1.986-3.043
	c-7.672-1.543-15.322-3.206-23.021-4.597c-11.733-2.118-44.831-11.013-44.831-11.013c-9.066-14.609-19.962-138.901-20.25-145.664
	H666.14V1130.271z"/>
<linearGradient id="SVGID_2_" gradientUnits="userSpaceOnUse" x1="74.8193" y1="72.6201" x2="1628.9752" y2="1092.722">
	<stop  offset="0" style="stop-color:#E0E0E0"/>
	<stop  offset="0.816" style="stop-color:#999999"/>
</linearGradient>
<path fill="url(#SVGID_2_)" d="M1622.711,1131.07c-515.521,0-1031.04,0-1546.56,0c-1.03-0.35-2.047-0.747-3.093-1.042
	c-12.925-3.634-21.379-11.86-25.358-24.677c-0.28-0.903-0.263-1.919-0.643-2.767c-0.368-0.822-1.07-1.495-1.626-2.234
	c0-346.24,0-692.48,0-1038.72c1.323-0.607,1.571-1.817,1.888-3.085c3.456-13.835,12.186-22.552,25.817-26.492
	c1.029-0.297,2.011-0.758,3.015-1.143c515.52,0,1031.04,0,1546.56,0c1.314,0.468,2.615,0.976,3.944,1.397
	c12.147,3.854,20.644,11.382,24.18,23.938c0.067,0.239,0.443,0.391,0.676,0.584c0,349.44,0,698.88,0,1048.32
	c-1.503,1.557-1.307,3.776-2.21,5.596c-4.949,9.969-12.733,16.412-23.48,19.297
	C1624.768,1130.325,1623.746,1130.726,1622.711,1131.07z M88.804,83.378c0,2.47,0,4.537,0,6.604c0,327.33,0,654.66,0,981.989
	c0,1.44-0.065,2.885,0.035,4.318c0.063,0.896,0.379,1.773,0.632,2.88c2.271,0,4.341,0,6.411,0c502.353,0,1004.706,0,1507.058-0.001
	c1.439,0,2.884,0.062,4.317-0.033c0.898-0.06,1.78-0.358,2.896-0.599c0-2.275,0-4.343,0-6.411c0-327.329,0-654.658-0.001-981.987
	c0-1.44,0.063-2.884-0.033-4.318c-0.06-0.894-0.364-1.771-0.605-2.867c-506.241,0-1012.259,0-1518.277,0.013
	C90.629,82.966,90.021,83.165,88.804,83.378z"/>
<linearGradient id="SVGID_3_" gradientUnits="userSpaceOnUse" x1="117.6855" y1="99.6255" x2="1588.3204" y2="1064.9067">
	<stop  offset="0.5449" style="stop-color:#FFFFFF;stop-opacity:0"/>
	<stop  offset="1" style="stop-color:#FFFFFF;stop-opacity:0.2"/>
</linearGradient>
<rect x="91.236" y="82.966" fill="url(#SVGID_3_)" width="1518.917" height="995.57"/>
</svg>
