<?xml version="1.0" encoding="utf-8"?>
<!-- Generator: Adobe Illustrator 23.0.1, SVG Export Plug-In . SVG Version: 6.00 Build 0)  -->
<svg version="1.1" id="Layer_1" xmlns="http://www.w3.org/2000/svg" xmlns:xlink="http://www.w3.org/1999/xlink" x="0px" y="0px"
	 viewBox="0 0 406.1 406.1" style="enable-background:new 0 0 406.1 406.1;" xml:space="preserve">
<path d="M264.9,75.2c17.7,0,33,6.4,46.2,19.2c0.8,0.8,1.5,1.1,2.3,1.1c0.4,0,0.4,0,0.8,0c13.1-3,24.4-7.5,34.6-12.8
	c0.4-0.4,4.1-2.3,4.9-2.6c-5.3,15.4-14.6,27-28.2,35.7c6.4-0.8,12.4-1.9,18.4-3.4c6-1.5,12-3.8,18.4-6.4c-3,4.5-6,8.6-9.4,12.4
	c-6.4,7.5-13.9,14.3-21.8,20.3c-0.8,0.8-1.1,1.1-1.1,2.3c0,3.8,0,7.1,0,10.9c0,0,0,0,0,0.4l0,0c-1.5,44.7-16.9,84.5-45.8,119.1
	c-23.7,27.4-53,46.2-88.3,55.6c-10.9,3-22.2,4.9-33,6c-1.5,0-3,0-4.9,0c-2.3,0-4.1,0-6.4,0l0,0c-4.1,0-8.3,0-12,0
	c-2.6,0-5.3,0-8.3,0c-9,0-17.7-1.5-26.3-3.4c-21-4.5-40.2-12.4-58.6-23.7c-0.4-0.4-0.8-0.8-1.1-1.1c4.9,0.4,9.4,0.8,14.3,0.8
	c12,0,24.4-1.5,36.1-4.9c16.5-4.5,31.5-12,45.1-22.9c-29.7-2.6-50-17.7-60.5-45.1c3.8,0.8,7.9,0.8,11.6,0.8c5.6,0,11.6-0.8,17.3-2.3
	c-15-3.4-27.4-11.3-37.2-23.3s-14.3-25.9-14.3-41.7c9,4.9,18.8,7.9,28.9,7.9c-13.9-10.1-22.9-22.9-26.7-39.4s-1.1-32.3,7.1-47.3
	c1.1,1.1,1.9,1.9,2.6,3c27.4,31.9,61.6,52.2,102.9,61.2c9,1.9,17.7,3,26.7,3.8c0.4,0,0.8,0,1.1,0h0.4c0.8,0,0.8-0.4,0.8-1.5
	c-1.1-5.6-1.5-11.6-1.1-17.3C201.4,118,209,103,222.9,91c10.1-9,21.8-14.3,35.3-15.4C259.7,75.6,262.3,75.2,264.9,75.2 M362.2,106
	L362.2,106 M264.9,52.7L264.9,52.7c-3.4,0-6.4,0-9.8,0.4c-18,1.9-34.2,9-48.1,21c-16.9,15-27,33.4-29.7,55.6c-0.4,0-0.4,0-0.8,0
	c-36.4-7.9-66.1-25.5-90.5-54.1l-1.5-1.9l-0.8-1.1c-4.1-4.9-10.5-7.9-17.3-7.9c-0.8,0-1.5,0-2.3,0c-7.5,0.8-13.9,4.9-17.3,11.3
	c-11.3,19.9-14.3,41.3-9.4,63.1c0.8,3.8,1.9,7.5,3.4,11.3c-3.8,4.1-6,9.8-6,15.4c0,21,6.4,39.8,19.5,55.6c1.5,1.9,2.6,3.4,4.1,4.9
	c-1.1,4.5-0.8,9,0.8,13.5c6.4,16.1,15.4,29.3,27,39.1c-8.6,2.3-17.7,3.4-26.7,3.4c-3.8,0-7.9-0.4-12-0.8c-0.8,0-1.5,0-2.3,0
	c-8.3,0-16.1,4.5-19.9,12.4c-4.1,8.3-3,18,3,25.2c1.9,2.3,3.8,3.8,6.4,5.3c20.7,12.8,42.4,21.8,65.7,26.7c9.4,1.9,19.9,3.8,30.8,4.1
	c2.6,0,5.6,0,8.3,0h7.1h4.9l0,0c1.1,0,1.9,0,3,0c1.1,0,2.3,0,3.8,0c2.6,0,4.5,0,6.8-0.4c12.8-1.1,25.2-3.4,37.2-6.8
	c39.1-9.8,72.5-31.2,98.4-62.3c31.9-37.6,49.2-81.5,51.1-130.7c0.4-1.5,0.4-3,0-4.5c6.4-5.3,12-11.3,17.7-17.3
	c4.1-4.9,7.5-9.4,10.9-14.3c2.6-3.8,4.1-8.3,4.1-12.8c0-7.9-3.8-14.6-9.8-18.8c3-9,0.4-18.8-7.1-24.4c-4.1-3.4-9.4-5.3-14.3-5.3
	c-3.8,0-7.5,1.1-10.9,3l-0.8,0.4c-1.1,0.8-3,1.5-3.8,1.9c-6.8,3.4-13.1,6.4-19.9,8.3C302.8,59,284.8,52.7,264.9,52.7L264.9,52.7z"/>
</svg>
