<?xml version="1.0" encoding="utf-8"?>
<!-- Generator: Adobe Illustrator 17.0.0, SVG Export Plug-In . SVG Version: 6.00 Build 0)  -->
<!DOCTYPE svg PUBLIC "-//W3C//DTD SVG 1.1//EN" "http://www.w3.org/Graphics/SVG/1.1/DTD/svg11.dtd">
<svg version="1.1" id="Layer_1" xmlns="http://www.w3.org/2000/svg" xmlns:xlink="http://www.w3.org/1999/xlink" x="0px" y="0px"
	 width="40.333px" height="48.333px" viewBox="0 0 40.333 48.333" enable-background="new 0 0 40.333 48.333" xml:space="preserve">
<g id="Layer_2">
	<rect x="-0.334" y="0" fill="#F2F2F2" width="40.667" height="49.667"/>
</g>
<path opacity="0.6" d="M35.473,38.61c-0.406,0-0.763-0.292-0.832-0.706c-1.037-6.203-5.604-9.093-14.373-9.093
	c-8.767,0.001-13.334,2.89-14.373,9.093c-0.077,0.46-0.513,0.771-0.973,0.694c-0.46-0.077-0.771-0.513-0.694-0.973
	c1.184-7.067,6.43-10.503,16.039-10.503c9.612,0,14.858,3.436,16.039,10.504c0.077,0.46-0.234,0.896-0.694,0.973
	C35.566,38.607,35.519,38.61,35.473,38.61z M20.267,26.058c-4.527,0-8.211-3.682-8.211-8.207c0-4.526,3.683-8.209,8.211-8.209
	c4.528,0,8.212,3.682,8.212,8.209C28.479,22.376,24.796,26.058,20.267,26.058z M20.267,11.332c-3.596,0-6.521,2.924-6.521,6.519
	c0,3.594,2.925,6.518,6.521,6.518c3.596,0,6.522-2.924,6.522-6.518C26.79,14.256,23.864,11.332,20.267,11.332z"/>
</svg>
