<?xml version="1.0" encoding="utf-8"?>
<!-- Generator: Adobe Illustrator 23.0.1, SVG Export Plug-In . SVG Version: 6.00 Build 0)  -->
<svg version="1.1" id="Layer_1" xmlns="http://www.w3.org/2000/svg" xmlns:xlink="http://www.w3.org/1999/xlink" x="0px" y="0px"
	 viewBox="0 0 406.1 406.1" style="enable-background:new 0 0 406.1 406.1;" xml:space="preserve">
<g transform="translate(0,-952.36218)">
	<path d="M204,1005c-83.4,0-151.2,67.8-151.2,151.2c0,83.4,67.8,151.2,151.2,151.2s151.2-67.8,151.2-151.2
		C355.1,1072.8,287.3,1005,204,1005z M193.4,1027.9v47.3h-36.6C165.4,1051.1,177.9,1033.4,193.4,1027.9z M214.5,1027.9
		c15.5,5.5,28,23.2,36.6,47.3h-36.6V1027.9z M155.3,1035.6c-7.7,10.9-14.3,24.3-19.6,39.7h-33.6C116,1057.8,134.3,1044,155.3,1035.6
		z M252.6,1035.6c21,8.5,39.3,22.2,53.2,39.7h-33.6C267,1059.9,260.4,1046.5,252.6,1035.6z M88.5,1096.3h41.2
		c-3.5,15.3-5.7,31.9-6.4,49.2h-49C75.8,1127.9,80.8,1111.2,88.5,1096.3z M150.7,1096.3h42.7v49.2h-49
		C145.1,1128.3,147.2,1111.5,150.7,1096.3z M214.5,1096.3h42.7c3.5,15.2,5.6,31.9,6.3,49.2h-49V1096.3z M278.2,1096.3h41.2
		c7.7,14.9,12.7,31.6,14.2,49.2h-49C284,1128.2,281.8,1111.6,278.2,1096.3z M74.3,1166.6h49c0.6,17.4,2.8,33.9,6.4,49.2H88.4
		C80.7,1200.9,75.7,1184.3,74.3,1166.6z M144.4,1166.6h49v49.2h-42.7C147.2,1200.6,145.1,1183.9,144.4,1166.6z M214.5,1166.6h49
		c-0.6,17.3-2.8,34-6.3,49.2h-42.7V1166.6z M284.6,1166.6h49c-1.4,17.6-6.4,34.3-14.1,49.2h-41.3
		C281.8,1200.5,284,1184,284.6,1166.6z M102,1236.9h33.6c5.2,15.4,11.9,28.9,19.7,39.9C134.2,1268.3,115.9,1254.5,102,1236.9
		L102,1236.9z M156.7,1236.9h36.7v47.5C177.9,1278.8,165.3,1261.1,156.7,1236.9z M214.5,1236.9h36.7c-8.6,24.2-21.1,41.9-36.7,47.5
		V1236.9z M272.3,1236.9h33.6c-13.9,17.5-32.2,31.4-53.3,39.9C260.4,1265.8,267.1,1252.3,272.3,1236.9z"/>
</g>
</svg>
