<?xml version="1.0" encoding="utf-8"?>
<!-- Generator: Adobe Illustrator 22.0.1, SVG Export Plug-In . SVG Version: 6.00 Build 0)  -->
<svg version="1.1" id="Layer_1" xmlns="http://www.w3.org/2000/svg" xmlns:xlink="http://www.w3.org/1999/xlink" x="0px" y="0px"
	 viewBox="0 0 408.1 420.1" style="enable-background:new 0 0 408.1 420.1;" xml:space="preserve">
<style type="text/css">
	.st0{display:none;}
	.st1{display:inline;opacity:0.56;}
	.st2{fill:#FAFBFB;}
	.st3{fill:#F4795A;}
	.st4{opacity:0.3;fill:#018DA7;enable-background:new    ;}
	.st5{opacity:0.4;fill:none;stroke:#018DA7;stroke-width:0.9093;stroke-miterlimit:10;enable-background:new    ;}
	.st6{fill:none;stroke:#FAFBFB;stroke-width:0.9093;stroke-miterlimit:10;}
	.st7{opacity:0.2;fill:#005077;enable-background:new    ;}
	.st8{fill:#9E9D97;}
	.st9{fill:#D6D5CA;}
	.st10{fill:url(#SVGID_1_);}
	.st11{fill:url(#SVGID_2_);}
	.st12{fill:url(#SVGID_3_);}
	.st13{fill:#018DA7;}
	.st14{fill:url(#SVGID_4_);}
	.st15{fill:url(#SVGID_5_);}
	.st16{fill:url(#SVGID_6_);}
	.st17{fill:url(#SVGID_7_);}
	.st18{fill:url(#SVGID_8_);}
	.st19{fill:url(#SVGID_9_);}
	.st20{fill:url(#SVGID_10_);}
	.st21{fill:url(#SVGID_11_);}
	.st22{fill:url(#SVGID_12_);}
	.st23{fill:url(#SVGID_13_);}
	.st24{fill:url(#SVGID_14_);}
	.st25{fill:url(#SVGID_15_);}
	.st26{fill:#CCCAC3;}
	.st27{opacity:0.32;fill:url(#SVGID_16_);enable-background:new    ;}
	.st28{fill:#EEEBD4;}
	.st29{fill:url(#SVGID_17_);}
	.st30{fill:#172B54;}
	.st31{fill:none;stroke:#959A8F;stroke-width:1.6588;stroke-linecap:round;stroke-miterlimit:10;}
	.st32{fill:#61AEBC;}
	.st33{fill:#7BC8D6;}
	.st34{fill:#5F5051;}
	.st35{fill:#EEEBE9;}
	.st36{fill:#B0BEC5;}
	.st37{fill:#959A8F;}
	.st38{opacity:0.8;fill:#FFFFFF;}
</style>
<g>
	<g>
		<g>
			<g class="st0">
				<g class="st1">
					<path class="st2" d="M273.2,163.9h-79.9c-1.9,0-3.5-1.6-3.5-3.5v-47.6c0-1.9,1.6-3.5,3.5-3.5h79.9c1.9,0,3.5,1.6,3.5,3.5v47.6
						C276.7,162.4,275.1,163.9,273.2,163.9z M193.3,109.9c-1.6,0-2.9,1.3-2.9,2.9v47.6c0,1.6,1.3,2.9,2.9,2.9h79.9
						c1.6,0,2.9-1.3,2.9-2.9v-47.6c0-1.6-1.3-2.9-2.9-2.9C273.2,109.9,193.3,109.9,193.3,109.9z"/>
				</g>
				<g class="st1">
					<path class="st2" d="M270.4,128.6h-74.2c-0.9,0-1.7-0.8-1.7-1.7v-13.2c0-0.9,0.8-1.7,1.7-1.7h74.2c0.9,0,1.7,0.8,1.7,1.7v13.2
						C272,127.8,271.3,128.6,270.4,128.6z M196.1,112.6c-0.6,0-1.1,0.5-1.1,1.1v13.2c0,0.6,0.5,1.1,1.1,1.1h74.2
						c0.6,0,1.1-0.5,1.1-1.1v-13.2c0-0.6-0.5-1.1-1.1-1.1H196.1z"/>
				</g>
				<g class="st1">
					<path class="st2" d="M270.4,158.8h-74.2c-0.9,0-1.7-0.8-1.7-1.7v-5.3c0-0.9,0.8-1.7,1.7-1.7h74.2c0.9,0,1.7,0.8,1.7,1.7v5.3
						C272,158,271.3,158.8,270.4,158.8z M196.1,150.6c-0.6,0-1.1,0.5-1.1,1.1v5.3c0,0.6,0.5,1.1,1.1,1.1h74.2c0.6,0,1.1-0.5,1.1-1.1
						v-5.3c0-0.6-0.5-1.1-1.1-1.1H196.1z"/>
				</g>
				<g class="st1">
					<path class="st2" d="M228.3,147.6h-32.1c-1,0-1.8-0.8-1.8-1.8v-12.9c0-1,0.8-1.8,1.8-1.8h32.1c1.1,0,2.1,0.9,2.1,2.1v12.4
						C230.4,146.7,229.5,147.6,228.3,147.6z M196.3,131.6c-0.7,0-1.3,0.6-1.3,1.3v12.9c0,0.7,0.6,1.3,1.3,1.3h32.1
						c0.8,0,1.5-0.7,1.5-1.5v-12.4c0-0.8-0.7-1.5-1.5-1.5h-32.1V131.6z"/>
				</g>
				<g class="st1">
					<path class="st2" d="M270.2,147.6h-32.5c-1.1,0-2.1-0.9-2.1-2.1v-12.4c0-1.1,0.9-2.1,2.1-2.1h32.5c1,0,1.8,0.8,1.8,1.8v12.9
						C272,146.8,271.2,147.6,270.2,147.6z M237.7,131.6c-0.8,0-1.5,0.7-1.5,1.5v12.4c0,0.8,0.7,1.5,1.5,1.5h32.5
						c0.7,0,1.3-0.6,1.3-1.3v-12.9c0-0.7-0.6-1.3-1.3-1.3h-32.5V131.6z"/>
				</g>
				<g class="st1">
					<path class="st3" d="M270.9,188.5h-32.5c-1.1,0-2.1-0.9-2.1-2.1V174c0-1.1,0.9-2.1,2.1-2.1h32.5c1,0,1.8,0.8,1.8,1.8v12.9
						C272.8,187.7,272,188.5,270.9,188.5z M238.5,172.5c-0.8,0-1.5,0.7-1.5,1.5v12.4c0,0.8,0.7,1.5,1.5,1.5H271
						c0.7,0,1.3-0.6,1.3-1.3v-12.9c0-0.7-0.6-1.3-1.3-1.3h-32.5V172.5z"/>
				</g>
				<g class="st1">
					<path class="st3" d="M174.7,144.9h-32.5c-1.1,0-2.1-0.9-2.1-2.1v-12.4c0-1.1,0.9-2.1,2.1-2.1h32.5c1,0,1.8,0.8,1.8,1.8V143
						C176.5,144.1,175.7,144.9,174.7,144.9z M142.2,128.9c-0.8,0-1.5,0.7-1.5,1.5v12.4c0,0.8,0.7,1.5,1.5,1.5h32.5
						c0.7,0,1.3-0.6,1.3-1.3v-12.9c0-0.7-0.6-1.3-1.3-1.3h-32.5V128.9z"/>
				</g>
				<g class="st1">
					<path class="st2" d="M285.6,205.7h-32.5c-1.2,0-2.1-1.5-2.1-3.4V181c0-1.9,0.9-3.4,2.1-3.4h32.5c1,0,1.8,1.3,1.8,3v22.1
						C287.4,204.4,286.6,205.7,285.6,205.7z M253.1,178.3c-0.8,0-1.5,1.3-1.5,2.8v21.3c0,1.5,0.7,2.8,1.5,2.8h32.5
						c0.7,0,1.3-1.1,1.3-2.4v-22.1c0-1.3-0.6-2.4-1.3-2.4L253.1,178.3L253.1,178.3z"/>
				</g>
				<g class="st1">
					<path class="st2" d="M200.5,169.1h-50.4c-1.7,0-3.1-1.5-3.1-3.4v-21.3c0-1.9,1.4-3.4,3.1-3.4h50.4c1.5,0,2.7,1.3,2.7,3v22.1
						C203.2,167.7,202,169.1,200.5,169.1z M150.2,141.6c-1.4,0-2.5,1.3-2.5,2.8v21.3c0,1.5,1.1,2.8,2.5,2.8h50.4
						c1.2,0,2.1-1.1,2.1-2.4V144c0-1.3-1-2.4-2.1-2.4H150.2z"/>
				</g>
				<g class="st1">
					<path class="st3" d="M264.5,227.6H232c-1.2,0-2.1-1.5-2.1-3.4v-21.3c0-1.9,0.9-3.4,2.1-3.4h32.5c1,0,1.8,1.3,1.8,3v22.1
						C266.3,226.3,265.5,227.6,264.5,227.6z M232,200.1c-0.8,0-1.5,1.3-1.5,2.8v21.3c0,1.5,0.7,2.8,1.5,2.8h32.5
						c0.7,0,1.3-1.1,1.3-2.4v-22.1c0-1.3-0.6-2.4-1.3-2.4L232,200.1L232,200.1z"/>
				</g>
			</g>
		</g>
		<g>
			<g>
				<rect x="68.4" y="128.7" class="st4" width="90.8" height="45.7"/>
				<rect x="138.2" y="75.1" class="st4" width="141.5" height="90.1"/>
				<rect x="238.2" y="189.5" class="st4" width="58.6" height="43.9"/>
			</g>
			<g>
				<g>
					<rect x="57" y="93.7" class="st5" width="59.5" height="26.1"/>
					<rect x="203.7" y="173.6" class="st5" width="58.6" height="44.8"/>
				</g>
				<g>
					<rect x="145.8" y="81" class="st6" width="125.9" height="25.8"/>
					<rect x="145.8" y="112.1" class="st6" width="58.8" height="26.1"/>
					<rect x="211.7" y="112.1" class="st6" width="59.9" height="26.1"/>
					<rect x="145.8" y="143.1" class="st6" width="125.9" height="13.3"/>
				</g>
			</g>
		</g>
	</g>
	<g>
		<path class="st7" d="M311.4,376.2c0,1.7-46.5,9.6-61.9,9.6s-19.3,6.7-44.9,5.2c-9.5-0.6-31.6-10.4-35.4-10.4
			c-78.5,0-142.2-2-142.2-4.4s63.7-4.4,142.2-4.4c28.3,0,62.6-0.4,84.7,0C293.2,372.6,311.4,374.6,311.4,376.2z"/>
		<g>
			<g>
				<g>
					<g>
						<polygon class="st8" points="87.7,351.9 79.6,379.5 82.7,379.5 92,351.9 						"/>
						<polygon class="st9" points="98.5,351.9 92,351.9 82.7,379.5 86.5,379.5 						"/>
					</g>
					<g>
						<polygon class="st8" points="45.2,348.2 37,375.8 40.2,375.8 49.4,348.2 						"/>
						<polygon class="st9" points="56,348.2 49.4,348.2 40.2,375.8 44,375.8 						"/>
					</g>
				</g>
				<g>
					<g>
						<polygon class="st8" points="248.8,344.2 257,371.8 253.8,371.8 244.6,344.2 						"/>
						<polygon class="st9" points="238,344.2 244.6,344.2 253.8,371.8 250,371.8 						"/>
					</g>
					<g>
						<polygon class="st8" points="291.4,348.2 299.5,375.8 296.4,375.8 287.1,348.2 						"/>
						<polygon class="st9" points="280.6,348.2 287.1,348.2 296.4,375.8 292.6,375.8 						"/>
					</g>
				</g>
				<g>
					
						<linearGradient id="SVGID_1_" gradientUnits="userSpaceOnUse" x1="149.7003" y1="151.4958" x2="149.7003" y2="99.9563" gradientTransform="matrix(1 0 0 -1 0 422)">
						<stop  offset="0" style="stop-color:#018DA7"/>
						<stop  offset="1" style="stop-color:#00425A"/>
					</linearGradient>
					<path class="st10" d="M219.9,215.5h-21.6H51.1l23,103H227h21.3V244C248.4,228.2,235.6,215.5,219.9,215.5z"/>
					
						<linearGradient id="SVGID_2_" gradientUnits="userSpaceOnUse" x1="62.6" y1="183.9846" x2="62.6" y2="102.8835" gradientTransform="matrix(1 0 0 -1 0 422)">
						<stop  offset="5.376340e-02" style="stop-color:#005077"/>
						<stop  offset="1" style="stop-color:#172B54"/>
					</linearGradient>
					<path class="st11" d="M51.1,215.5v103h23v-80C74.1,225.8,63.8,215.5,51.1,215.5L51.1,215.5z"/>
				</g>
				
					<linearGradient id="SVGID_3_" gradientUnits="userSpaceOnUse" x1="267.2" y1="129.3926" x2="267.2" y2="99.7764" gradientTransform="matrix(1 0 0 -1 0 422)">
					<stop  offset="5.376340e-02" style="stop-color:#005077"/>
					<stop  offset="1" style="stop-color:#172B54"/>
				</linearGradient>
				<path class="st12" d="M303.6,351v-74.6H252c-11.7,0-21.2,9.5-21.2,21.2v60.1h46h20L303.6,351z"/>
				<path class="st13" d="M303.6,276.4L303.6,276.4V351c0,3.7-3,6.7-6.7,6.7h-20v-54.6C276.8,288.4,288.8,276.4,303.6,276.4z"/>
				
					<linearGradient id="SVGID_4_" gradientUnits="userSpaceOnUse" x1="193.6" y1="97.9302" x2="193.6" y2="102.9037" gradientTransform="matrix(1 0 0 -1 0 422)">
					<stop  offset="5.376340e-02" style="stop-color:#005077"/>
					<stop  offset="1" style="stop-color:#172B54"/>
				</linearGradient>
				<rect x="106.5" y="318.5" class="st14" width="174.2" height="33.3"/>
				<rect x="106.5" y="324.4" class="st13" width="174.2" height="33.3"/>
				<path class="st13" d="M80.8,276.4L80.8,276.4c14.8,0,26.7,12,26.7,26.7v54.6H80.8V276.4z"/>
				
					<linearGradient id="SVGID_5_" gradientUnits="userSpaceOnUse" x1="57.15" y1="142.0371" x2="57.15" y2="26.4633" gradientTransform="matrix(1 0 0 -1 0 422)">
					<stop  offset="5.376340e-02" style="stop-color:#005077"/>
					<stop  offset="1" style="stop-color:#172B54"/>
				</linearGradient>
				<path class="st15" d="M52.9,357.7h27.9v-81.3H49.9c-9.1,0-16.4,7.4-16.4,16.4v45.5C33.5,349.1,42.2,357.7,52.9,357.7z"/>
			</g>
			<g>
				<g>
					<g>
						
							<linearGradient id="SVGID_6_" gradientUnits="userSpaceOnUse" x1="137.9608" y1="186.3979" x2="161.5634" y2="186.3979" gradientTransform="matrix(1 0 0 -1 0 422)">
							<stop  offset="0" style="stop-color:#D81B61"/>
							<stop  offset="1" style="stop-color:#172B54;stop-opacity:0.9697"/>
						</linearGradient>
						<path class="st16" d="M153.2,261.1c2.1-3.6,5-6.7,8.4-9.1c-1.7-1.5-5.9-5.5-6.1-6.1c-0.2-0.7-0.2-23.5-0.1-28.3
							c0.1-2.7-0.9-5.8-3.3-7c-1.9-0.9-4.2-0.5-6,0.6c-3.7,2.2-5.5,6.6-6.9,10.7c-3.7,11.1,2.3,30.1,2.5,30.8
							C142,253.5,149.7,259.4,153.2,261.1z"/>
						
							<linearGradient id="SVGID_7_" gradientUnits="userSpaceOnUse" x1="153.1538" y1="161.6004" x2="177.9538" y2="161.6004" gradientTransform="matrix(1 0 0 -1 0 422)">
							<stop  offset="0" style="stop-color:#F9E7DB"/>
							<stop  offset="1" style="stop-color:#FAB9AB;stop-opacity:0.9697"/>
						</linearGradient>
						<path class="st17" d="M161.6,252l16.4,13.6l-1.7,3.2l-23.1-7.7C153.2,261.1,158.3,251.9,161.6,252z"/>
						<g>
							<polygon class="st2" points="178,265.5 183.1,277.3 182.1,278.6 175.5,273 176.2,268.8 							"/>
							<polygon class="st2" points="179.1,276.1 178,279.6 175,281.6 174.9,280.9 176.9,278.8 178.1,275.2 							"/>
							<polygon class="st2" points="180.4,276.6 180,280.3 177.6,282.9 177.3,282.3 178.8,279.8 179.2,276 							"/>
							<polygon class="st2" points="181.7,277.2 182,280.9 180.1,283.8 179.7,283.3 180.7,280.5 180.4,276.8 							"/>
							<polygon class="st2" points="183.1,277.3 183.5,281 181.6,284 181.2,283.5 182.2,280.7 181.8,277 							"/>
						</g>
					</g>
					
						<linearGradient id="SVGID_8_" gradientUnits="userSpaceOnUse" x1="129.3629" y1="221.6557" x2="143.1949" y2="61.8212" gradientTransform="matrix(1 0 0 -1 0 422)">
						<stop  offset="0" style="stop-color:#D81B61"/>
						<stop  offset="1" style="stop-color:#172B54;stop-opacity:0.9697"/>
					</linearGradient>
					<path class="st18" d="M131,192.8c-1.3,0-2.5,0.5-3.7,1c-6.7,2.7-13.3,5.4-20,8.1c-1.1,0.4-2.2,0.9-2.9,1.9
						c-0.6,0.9-0.7,2-0.7,3.1c-1.2,28.2,6.1,64.2,16.2,90.6c13.5,0.2,27.1-5.5,40.8-8c-6.8-18.3-10.3-48.8-3.1-66.9
						c1.3-3.2,0.8-9-0.6-12.2c-0.6-1.4-13.7-12.9-22-16.5C133.7,193.3,132.4,192.8,131,192.8z"/>
					<g>
						
							<linearGradient id="SVGID_9_" gradientUnits="userSpaceOnUse" x1="109.35" y1="216.4118" x2="109.35" y2="161.7356" gradientTransform="matrix(1 0 0 -1 0 422)">
							<stop  offset="0" style="stop-color:#D81B61"/>
							<stop  offset="1" style="stop-color:#172B54;stop-opacity:0.9697"/>
						</linearGradient>
						<path class="st19" d="M117,271.1c1-4.9,3.1-9.7,6.2-13.7c-2.5-1.1-8.9-4.1-9.4-4.7c-0.5-0.7,0.3-36.9-1.4-42.6
							c-1-3.2-3.2-6.4-6.5-6.8c-2.5-0.3-5,1.1-6.6,3c-3.4,4-3.8,9.6-3.8,14.9c0,14.1,4.6,43.8,5.1,44.5
							C101.2,266.7,112.3,270.5,117,271.1z"/>
						
							<linearGradient id="SVGID_10_" gradientUnits="userSpaceOnUse" x1="117" y1="157.75" x2="147.1376" y2="157.75" gradientTransform="matrix(1 0 0 -1 0 422)">
							<stop  offset="0" style="stop-color:#F9E7DB"/>
							<stop  offset="1" style="stop-color:#FAB9AB;stop-opacity:0.9697"/>
						</linearGradient>
						<path class="st20" d="M123.1,257.4l24,9.4l-0.7,4.3H117C117,271.1,119.3,258.6,123.1,257.4z"/>
						<g>
							
								<linearGradient id="SVGID_11_" gradientUnits="userSpaceOnUse" x1="146.3822" y1="148.5" x2="157.566" y2="148.5" gradientTransform="matrix(1 0 0 -1 0 422)">
								<stop  offset="0" style="stop-color:#F9E7DB"/>
								<stop  offset="1" style="stop-color:#FAB9AB;stop-opacity:0.9697"/>
							</linearGradient>
							<polygon class="st21" points="147.1,266.8 157.6,278.3 156.9,280.2 147.1,276.3 146.4,271.1 							"/>
							
								<linearGradient id="SVGID_12_" gradientUnits="userSpaceOnUse" x1="149.5159" y1="139.95" x2="152.5086" y2="139.95" gradientTransform="matrix(1 0 0 -1 0 422)">
								<stop  offset="0" style="stop-color:#F9E7DB"/>
								<stop  offset="1" style="stop-color:#FAB9AB;stop-opacity:0.9697"/>
							</linearGradient>
							<polygon class="st22" points="152.5,278.4 152.5,282.9 149.9,286.3 149.5,285.6 151,282.4 151,277.8 							"/>
							
								<linearGradient id="SVGID_13_" gradientUnits="userSpaceOnUse" x1="152.5086" y1="139.45" x2="155.1265" y2="139.45" gradientTransform="matrix(1 0 0 -1 0 422)">
								<stop  offset="0" style="stop-color:#F9E7DB"/>
								<stop  offset="1" style="stop-color:#FAB9AB;stop-opacity:0.9697"/>
							</linearGradient>
							<polygon class="st23" points="154.1,278.6 155.1,283 153.3,286.8 152.8,286.3 153.5,282.8 152.5,278.3 							"/>
							
								<linearGradient id="SVGID_14_" gradientUnits="userSpaceOnUse" x1="154.183" y1="139.15" x2="157.6359" y2="139.15" gradientTransform="matrix(1 0 0 -1 0 422)">
								<stop  offset="0" style="stop-color:#F9E7DB"/>
								<stop  offset="1" style="stop-color:#FAB9AB;stop-opacity:0.9697"/>
							</linearGradient>
							<polygon class="st24" points="155.8,278.7 157.6,282.8 156.6,287 156,286.5 156,282.9 154.2,278.8 							"/>
							
								<linearGradient id="SVGID_15_" gradientUnits="userSpaceOnUse" x1="155.9095" y1="139.55" x2="159.3626" y2="139.55" gradientTransform="matrix(1 0 0 -1 0 422)">
								<stop  offset="0" style="stop-color:#F9E7DB"/>
								<stop  offset="1" style="stop-color:#FAB9AB;stop-opacity:0.9697"/>
							</linearGradient>
							<polygon class="st25" points="157.6,278.3 159.4,282.5 158.3,286.6 157.7,286.1 157.8,282.6 155.9,278.4 							"/>
						</g>
					</g>
				</g>
				<polygon class="st2" points="179.1,275.9 178.5,280.8 179.4,280.8 180.7,277.6 				"/>
				<g>
					<polygon class="st8" points="216.9,307.5 203.8,301.4 142.6,319.6 191.5,321.7 191.5,329.6 197.3,345.6 215.5,318.5 					"/>
					<polygon class="st26" points="208.5,380.6 215.5,318.5 193.5,335.2 200.6,380.8 					"/>
					<path class="st9" d="M263.4,330.1c-0.1-0.3-38.4-33.4-38.4-33.4l-12.7-6.5l-3.9,18.9l47.4,23.3
						C255.8,332.5,263.4,330.1,263.4,330.1z"/>
					<path class="st9" d="M120,297.5l4.6,13.4c3.5,10.1,14.6,16.1,25.6,13.9l61.4-15.5c4.8-1,8.3-5,8.3-9.7l0,0
						c0-5.5-4.7-9.9-10.5-9.9l-55.8,0.3L120,297.5z"/>
				</g>
				
					<radialGradient id="SVGID_16_" cx="217.8543" cy="175.5664" r="133.6524" gradientTransform="matrix(1 0 0 -1 0 422)" gradientUnits="userSpaceOnUse">
					<stop  offset="1.058200e-02" style="stop-color:#EEEBD4"/>
					<stop  offset="1" style="stop-color:#FED8AD;stop-opacity:0"/>
				</radialGradient>
				<path class="st27" d="M238,250.3l115.6-47.9l-31.7-59.1c-29.9-39.1-90.5-53.3-145-48.7l-42.5,8.4l51,148.9L238,250.3z"/>
				<g>
					<path class="st28" d="M174.6,287.3h53.9l8-33c0.7-3-1.6-6-4.7-6h-44c-2.2,0-4.2,1.5-4.7,3.7L174.6,287.3z"/>
					<path class="st9" d="M176.9,287.3l8.6-35.3c0.5-2.2,2.5-3.7,4.7-3.7h44c1.6,0,3,0.8,3.9,2l-37,37H176.9z"/>
					<path class="st26" d="M238,250.3c0.8,1.1,1.2,2.5,0.8,4l-8,33H201L238,250.3z"/>
					<path class="st8" d="M152.4,287.3h46.5l-2.7,2.7h-46.5C149.7,288.5,150.9,287.3,152.4,287.3z"/>
					<path class="st8" d="M230.8,287.3c0,1.5-1.2,2.7-2.7,2.7h-31.9l2.7-2.7H230.8z"/>
					<path class="st28" d="M149.7,290h24.5c1.5,0,2.7-1.2,2.7-2.7h-24.5C150.9,287.3,149.7,288.5,149.7,290z"/>
				</g>
				<g>
					<path class="st3" d="M158.1,178.6c1.8,1.3,4.5,1.3,6.4,0.1c1.9-1.3,2.8-3.7,2.3-5.9c3.6,1.2,7.6-3.1,6.1-6.6
						c2.3-0.2,4.2-2.3,4.4-4.6c0.1-2.3-1.6-4.6-3.9-5c1.1-2.8,0.3-6.3-2-8.4c-2.2-2.1-5.7-2.6-8.5-1.4c-0.1-3.6-2.5-7.1-5.9-8.4
						c-3.4-1.3-7.5-0.4-10,2.2c-5.6-3.7-14.3-0.9-16.8,5.3c-4.6-0.3-8.8,4.5-7.9,9c-2.7,0-5.3,1.8-6.2,4.3c-0.9,2.6,0.1,5.6,2.2,7.2
						c-2.9,3.4-0.6,9.7,3.9,10.5c-1.4,1.1-1.8,3.3-0.8,4.8c0.9,1.5,3,2.1,4.6,1.4c-0.3,2.4,1,4.9,3.1,6.1c2.1,1.2,4.9,1,6.8-0.5
						L158.1,178.6z"/>
					<g>
						
							<linearGradient id="SVGID_17_" gradientUnits="userSpaceOnUse" x1="126.5769" y1="235.6041" x2="162.7532" y2="235.6041" gradientTransform="matrix(1 0 0 -1 0 422)">
							<stop  offset="0" style="stop-color:#F9E7DB"/>
							<stop  offset="1" style="stop-color:#FAB9AB;stop-opacity:0.9697"/>
						</linearGradient>
						<path class="st29" d="M158.9,164.9c1.7,0.9,2.3,3.2,2.1,5.2s-1.1,3.8-1.5,5.7s-0.1,4.2,1.4,5.5c0.7,0.6,1.9,1.1,1.8,2.1
							c0,1.3-1.8,1.5-2.9,2.1c-1.7,1-2,3.3-2.1,5.2c-0.1,2-0.5,4.3-2.3,5.1c-2.3,1.1-4.6-1.2-7.1-1.8c-2.3-0.6-4.7,0.4-6.5,1.9
							s-6.4,10.2-7.7,12.2c-4.1-0.5-7.6-6.3-7.7-12.4l11.9-14.4c-1.4,0.2-2.8-0.7-3.5-2c-0.7-1.2-0.5-2.9,0.4-4c1-1,5.1-2.3,5,2.4
							c0,0,2.8-2.6,4-6.4C146.9,162.9,158.9,164.9,158.9,164.9z"/>
					</g>
				</g>
				<polygon class="st30" points="200.6,380.8 208.5,380.6 218.6,385.5 231.2,386.6 233.1,389.3 197.9,391 				"/>
				<polygon class="st30" points="255.8,332.4 263.4,330.1 274.4,332 286.8,329.6 289.4,331.7 256,343 				"/>
			</g>
		</g>
	</g>
	<g>
		<ellipse class="st7" cx="354.8" cy="370.1" rx="23.9" ry="2.2"/>
		<g>
			<g>
				<polyline class="st31" points="359.9,297.4 355.3,313.6 355.7,330.3 				"/>
				<line class="st31" x1="347.5" y1="297.4" x2="355.3" y2="313.6"/>
			</g>
			<g>
				<g>
					<g>
						<path class="st32" d="M335.4,292.6c5,7.3,10.4,9.8,13.7,7.8l-18.3-26.8C330.8,275.9,330.9,286,335.4,292.6z"/>
						<path class="st33" d="M330.8,273.2c0,0,0,0.2,0,0.5l18.3,26.8c0.1,0,0.2-0.1,0.2-0.1c3.3-2.2,3-8.3-2.1-15.8
							C342.1,277,330.8,273.2,330.8,273.2z"/>
						<path class="st34" d="M345.1,294.3c-1.2-1.8-2.5-3.6-3.7-5.4c-2.5-3.6-5-7.2-7.5-10.7c0,0-0.1,0-0.1,0.1
							c1.6,2.5,3.2,4.9,4.9,7.4c-1.5-0.1-3-0.2-4.6-0.1c-0.1,0-0.1,0.1-0.1,0.1c1.5,0.2,3.2,0.2,4.8,0.1c0.7,1.1,1.5,2.2,2.2,3.3
							c1.2,1.8,2.5,3.6,3.7,5.4s2.3,3.7,3.7,5.4c0.1,0.1,0.3-0.1,0.3-0.2C347.8,297.8,346.4,296.1,345.1,294.3z"/>
						<path class="st34" d="M343.5,292.1c-2.5-0.3-5.1-0.3-7.7-0.2c-0.1,0-0.1,0.1,0,0.1c2.5,0.3,5.1,0.3,7.7,0.2
							C343.5,292.2,343.6,292.1,343.5,292.1z"/>
						<path class="st34" d="M343.2,283.3c-0.4,1-0.8,1.9-1.2,2.9c-0.3,0.9-0.7,1.7-0.9,2.6c0,0.1,0.1,0.1,0.1,0
							c0.5-0.9,0.7-1.7,1-2.6C342.7,285.2,343,284.2,343.2,283.3C343.3,283.2,343.2,283.2,343.2,283.3z"/>
						<path class="st34" d="M347.7,290.2c-0.7,1.7-1.4,3.3-1.9,5c0,0.1,0.1,0.1,0.2,0C346.8,293.6,347.3,291.9,347.7,290.2
							C347.8,290.2,347.8,290.2,347.7,290.2z"/>
						<path class="st34" d="M347.5,297.4c-2-0.2-4.2-0.2-6.3-0.1c-0.1,0-0.1,0.1,0,0.1c2,0.2,4.2,0.3,6.3,0.2
							C347.5,297.6,347.6,297.5,347.5,297.4z"/>
					</g>
					<g>
						<path class="st32" d="M336.8,323.1c6.8,7.5,13.4,9.5,16.8,6.7l-25-27.5C329,304.8,330.7,316.3,336.8,323.1z"/>
						<path class="st33" d="M328.6,301.8c0,0,0,0.2,0.1,0.5l25,27.5c0.1-0.1,0.2-0.1,0.2-0.2c3.4-3.1,2.1-9.9-4.9-17.6
							C342,304.3,328.6,301.8,328.6,301.8z"/>
						<path class="st34" d="M348.2,323.4c-1.7-1.8-3.4-3.7-5.1-5.5c-3.4-3.7-6.8-7.4-10.2-11c0,0-0.1,0-0.1,0.1
							c2.2,2.5,4.5,5.1,6.7,7.6c-1.7,0.1-3.5,0.2-5.2,0.6c-0.1,0-0.1,0.2,0,0.2c1.7,0,3.7-0.3,5.5-0.6c1,1.1,2,2.3,3.1,3.4
							c1.7,1.9,3.4,3.7,5,5.6c1.7,1.8,3.2,3.9,5.1,5.5c0.1,0.1,0.4-0.1,0.3-0.3C351.7,327,349.9,325.3,348.2,323.4z"/>
						<path class="st34" d="M346,321.2c-2.8,0.1-5.8,0.4-8.8,1c-0.1,0-0.1,0.1,0,0.1c2.8-0.1,5.8-0.4,8.8-1
							C346,321.4,346.1,321.2,346,321.2z"/>
						<path class="st34" d="M344.2,311.2c-0.3,1.2-0.6,2.3-0.9,3.5c-0.3,1-0.5,2.1-0.6,3.1c0,0.1,0.1,0.1,0.2,0
							c0.4-1,0.6-2.1,0.8-3.1c0.2-1.1,0.4-2.3,0.6-3.4C344.3,311.2,344.2,311.2,344.2,311.2z"/>
						<path class="st34" d="M350.5,318.4c-0.5,2-1.1,4-1.3,6c0,0.1,0.2,0.1,0.2,0C350,322.3,350.2,320.3,350.5,318.4
							C350.6,318.3,350.5,318.3,350.5,318.4z"/>
						<path class="st34" d="M351.4,326.6c-2.3,0-4.8,0.4-7.2,0.9c-0.1,0-0.1,0.1,0,0.1c2.3-0.1,4.8-0.3,7.2-0.8
							C351.5,326.8,351.5,326.6,351.4,326.6z"/>
					</g>
					<g>
						<path class="st32" d="M375.3,319.2c-4.7,10.4-11,14.8-15.6,13l17.2-38.1C377.4,297,379.6,309.8,375.3,319.2z"/>
						<path class="st33" d="M376.7,293.6c0,0,0,0.2,0.1,0.6l-17.2,38.1c-0.1,0-0.2-0.1-0.3-0.1c-4.7-2.1-5.7-9.9-0.9-20.5
							C363.2,301,376.7,293.6,376.7,293.6z"/>
						<path class="st34" d="M363.3,323.6c1.2-2.6,2.3-5.1,3.5-7.7c2.3-5.1,4.7-10.2,7.1-15.3c0-0.1,0.1,0,0.1,0.1
							c-1.5,3.5-3,7-4.5,10.5c1.8-0.5,3.8-1,5.8-1.1c0.1,0,0.2,0.1,0.1,0.2c-1.8,0.6-4,1-6,1.2c-0.7,1.6-1.4,3.2-2.1,4.7
							c-1.2,2.6-2.3,5.1-3.4,7.7s-2.1,5.3-3.5,7.7c-0.1,0.2-0.5,0-0.4-0.2C360.8,328.6,362.2,326.1,363.3,323.6z"/>
						<path class="st34" d="M364.9,320.4c3.1-0.9,6.4-1.6,9.7-1.9c0.1,0,0.1,0.1,0.1,0.1c-3.1,0.9-6.4,1.6-9.7,2
							C364.9,320.6,364.8,320.5,364.9,320.4z"/>
						<path class="st34" d="M363.3,309.1c0.7,1.1,1.4,2.3,2.1,3.4c0.6,1,1.3,2,1.7,3.1c0,0.1-0.1,0.1-0.2,0c-0.8-1-1.3-2-1.9-3.1
							c-0.6-1.2-1.3-2.3-1.9-3.5C363.2,309.1,363.3,309.1,363.3,309.1z"/>
						<path class="st34" d="M359.1,319c1.2,2,2.6,3.9,3.5,5.9c0.1,0.1-0.1,0.2-0.2,0C361,323,360.1,321,359.1,319
							C359,318.9,359.1,318.9,359.1,319z"/>
						<path class="st34" d="M361,328.1c2.5-0.8,5.3-1.2,8-1.6c0.1,0,0.2,0.1,0.1,0.1c-2.5,0.7-5.2,1.4-8,1.6
							C361,328.3,360.9,328.1,361,328.1z"/>
					</g>
					<g>
						<path class="st32" d="M369.8,293.4c-3.5,6-7.6,8.3-10.3,6.9l12.8-22.1C372.4,280,373,287.9,369.8,293.4z"/>
						<path class="st33" d="M372.2,277.9c0,0,0,0.1,0,0.4l-12.8,22.1c-0.1,0-0.1-0.1-0.2-0.1c-2.7-1.6-2.9-6.3,0.7-12.5
							C363.6,281.5,372.2,277.9,372.2,277.9z"/>
						<path class="st26" d="M362.2,295.2c0.9-1.5,1.7-3,2.6-4.4c1.7-3,3.5-5.9,5.3-8.8h0.1c-1.1,2-2.3,4-3.4,6.1
							c1.1-0.2,2.4-0.4,3.6-0.3c0.1,0,0.1,0.1,0,0.1c-1.1,0.3-2.5,0.4-3.7,0.4c-0.5,0.9-1,1.8-1.6,2.7c-0.9,1.5-1.7,3-2.6,4.5
							s-1.6,3.1-2.6,4.4c-0.1,0.1-0.3,0-0.2-0.1C360.4,298.1,361.4,296.7,362.2,295.2z"/>
						<path class="st34" d="M363.4,293.4c1.9-0.3,4-0.5,6-0.6c0.1,0,0.1,0.1,0,0.1C367.6,293.3,365.5,293.5,363.4,293.4
							C363.4,293.5,363.3,293.5,363.4,293.4z"/>
						<path class="st34" d="M363.1,286.5c0.4,0.7,0.7,1.5,1.1,2.2c0.3,0.7,0.7,1.3,0.8,2c0,0.1-0.1,0.1-0.1,0c-0.4-0.6-0.7-1.3-1-2
							C363.7,288,363.3,287.2,363.1,286.5C363,286.5,363.1,286.4,363.1,286.5z"/>
						<path class="st34" d="M360,292.2c0.6,1.3,1.3,2.5,1.8,3.8c0,0.1-0.1,0.1-0.1,0C360.9,294.8,360.4,293.5,360,292.2
							C359.9,292.2,359.9,292.2,360,292.2z"/>
						<path class="st34" d="M360.6,297.9c1.6-0.3,3.3-0.4,5-0.5c0.1,0,0.1,0.1,0,0.1c-1.6,0.3-3.3,0.5-4.9,0.5
							C360.5,298,360.5,297.9,360.6,297.9z"/>
					</g>
					<g>
						<rect x="335.9" y="327.4" class="st35" width="39.2" height="6.3"/>
						<rect x="335.9" y="333.7" class="st8" width="39.2" height="2.7"/>
						<polygon class="st35" points="375,367.9 375,336.4 335.9,336.4 335.9,352.5 352.5,367.9 						"/>
						<polygon class="st36" points="365.8,367.9 335.9,341.6 335.9,367.9 						"/>
						<polygon class="st37" points="335.9,367.9 335.9,370.7 354.4,370.7 351.5,367.9 						"/>
						<polygon class="st8" points="375,367.9 351.5,367.9 354.4,370.7 375,370.7 						"/>
					</g>
				</g>
			</g>
		</g>
	</g>
</g>
<rect class="st38" width="408" height="420"/>
</svg>
