<?xml version="1.0" encoding="UTF-8"?>
<svg width="125px" height="127px" viewBox="0 0 125 127" version="1.1" xmlns="http://www.w3.org/2000/svg" xmlns:xlink="http://www.w3.org/1999/xlink">
    <!-- Generator: Sketch 40.1 (33804) - http://www.bohemiancoding.com/sketch -->
    <title>img-1</title>
    <desc>Created with Sketch.</desc>
    <defs>
        <rect id="path-1" x="0.396565657" y="1.10969072" width="71.6365657" height="73.1136082"></rect>
        <ellipse id="path-3" cx="28.9965657" cy="30.4575258" rx="28.8744444" ry="29.4697938"></ellipse>
        <ellipse id="path-5" cx="28.9965657" cy="30.4575258" rx="28.8744444" ry="29.4697938"></ellipse>
        <ellipse id="path-7" cx="28.9965657" cy="30.4575258" rx="28.8744444" ry="29.4697938"></ellipse>
        <rect id="path-9" x="0.122121212" y="0.986391753" width="57.7488889" height="58.9395876"></rect>
        <ellipse id="path-11" cx="28.9965657" cy="30.4575258" rx="28.8744444" ry="29.4697938"></ellipse>
        <rect id="path-13" x="0.122121212" y="0.986391753" width="57.7488889" height="59.8201031"></rect>
    </defs>
    <g id="Page-1" stroke="none" stroke-width="1" fill="none" fill-rule="evenodd">
        <g id="img-1" transform="translate(0.000000, -3.000000)">
            <g id="Clipped" transform="translate(57.777778, 0.000000)">
                <mask id="mask-2" fill="white">
                    <use xlink:href="#path-1"></use>
                </mask>
                <g id="SVGID_1_"></g>
            </g>
            <g id="Clipped" transform="translate(66.969697, 2.680412)">
                <mask id="mask-4" fill="white">
                    <use xlink:href="#path-3"></use>
                </mask>
                <g id="SVGID_3_"></g>
                <ellipse id="Oval" stroke="#ECF0F1" stroke-width="5.2512" mask="url(#mask-4)" cx="28.9965657" cy="30.4575258" rx="28.8744444" ry="29.4697938"></ellipse>
            </g>
            <g id="Clipped" transform="translate(66.969697, 2.680412)">
                <mask id="mask-6" fill="white">
                    <use xlink:href="#path-5"></use>
                </mask>
                <g id="SVGID_5_"></g>
                <ellipse id="Oval" stroke="#ECF0F1" stroke-width="5.2512" mask="url(#mask-6)" cx="28.9965657" cy="30.4575258" rx="28.8744444" ry="29.4697938"></ellipse>
            </g>
            <g id="Clipped" transform="translate(66.969697, 2.680412)">
                <mask id="mask-8" fill="white">
                    <use xlink:href="#path-7"></use>
                </mask>
                <g id="SVGID_7_"></g>
                <g mask="url(#mask-8)">
                    <mask id="mask-10" fill="white">
                        <use xlink:href="#path-9"></use>
                    </mask>
                    <g id="SVGID_9_"></g>
                    <g mask="url(#mask-10)">
                        <mask id="mask-12" fill="white">
                            <use xlink:href="#path-11"></use>
                        </mask>
                        <g id="SVGID_11_"></g>
                        <g mask="url(#mask-12)">
                            <mask id="mask-14" fill="white">
                                <use xlink:href="#path-13"></use>
                            </mask>
                            <g id="SVGID_13_"></g>
                            <ellipse id="Oval" stroke="#ECF0F1" stroke-width="5.2512" mask="url(#mask-14)" cx="28.9965657" cy="30.4575258" rx="28.8744444" ry="29.4697938"></ellipse>
                        </g>
                    </g>
                </g>
            </g>
            <ellipse id="Oval" fill="#2D3F4F" cx="51.1806061" cy="77.7641237" rx="51.1806061" ry="52.2358763"></ellipse>
            <g id="Group" transform="translate(21.010101, 14.742268)">
                <path d="M73.8990909,1.07886598 L38.2659596,37.446701 C35.2641414,36.3396907 32.040404,35.704433 28.6643434,35.704433 C13.049899,35.704433 0.392626263,48.6226804 0.392626263,64.5590722 C0.392626263,80.4954639 13.049899,93.4137113 28.6643434,93.4137113 C44.2787879,93.4137113 56.9360606,80.4954639 56.9360606,64.5590722 C56.9360606,61.1134021 56.3136364,57.8231959 55.2289899,54.7594845 L56.9360606,53.0172165 L56.9360606,41.4753608 L68.2447475,41.4753608 L68.2447475,29.9335052 L79.5534343,29.9335052 L79.5534343,18.3916495 L90.8621212,18.3916495 L90.8621212,1.07886598 L73.8990909,1.07886598 L73.8990909,1.07886598 Z M35.1590909,77.8378351 C34.8767677,79.215567 33.9313131,80.3547423 32.6470707,80.866701 C27.5140404,82.9185567 21.4539394,81.8276289 17.3057576,77.5939175 C13.1562626,73.3602062 12.0886869,67.1738144 14.100404,61.9336082 C14.6033333,60.6228866 15.7208081,59.6592784 17.0707071,59.371134 C18.4219192,59.0843299 19.8217172,59.5118557 20.7973737,60.5076289 L34.0494949,74.0329897 C35.0251515,75.0287629 35.4427273,76.4587629 35.1590909,77.8378351 L35.1590909,77.8378351 Z" id="Shape" fill="#FACB1B"></path>
                <path d="M90.8621212,1.07886598 L73.8990909,1.07886598 L38.2659596,37.446701 C35.2641414,36.3396907 32.040404,35.704433 28.6643434,35.704433 C13.049899,35.704433 0.392626263,48.6226804 0.392626263,64.5590722 C0.392626263,72.7839175 3.78050505,80.1858763 9.19060606,85.4421649 L17.1087879,77.3607216 C13.1391919,73.1350515 12.1241414,67.0826804 14.100404,61.9336082 C14.6033333,60.6228866 15.7208081,59.6592784 17.0707071,59.371134 C18.4219192,59.0843299 19.8217172,59.5118557 20.7973737,60.5076289 L27.2093939,67.0518557 L90.8621212,2.08536082 L90.8621212,1.07886598 L90.8621212,1.07886598 Z" id="Shape" fill="#FBE158"></path>
                <path d="M45.6273737,38.5898969 C44.8460606,37.7924742 44.8460606,36.5018557 45.6273737,35.704433 L76.7262626,3.9643299 L82.3806061,3.9643299 L48.4545455,38.5898969 C47.6745455,39.3859794 46.4086869,39.3859794 45.6273737,38.5898969 L45.6273737,38.5898969 Z" id="Shape" fill="#F3B607"></path>
            </g>
        </g>
    </g>
</svg>