<?xml version="1.0" encoding="UTF-8"?>
<svg width="138px" height="138px" viewBox="0 0 138 138" version="1.1" xmlns="http://www.w3.org/2000/svg" xmlns:xlink="http://www.w3.org/1999/xlink">
    <!-- Generator: Sketch 52.2 (67145) - http://www.bohemiancoding.com/sketch -->
    <title>Radial</title>
    <desc>Created with Sketch.</desc>
    <defs>
        <linearGradient x1="50%" y1="0%" x2="50%" y2="100%" id="linearGradient-1">
            <stop stop-color="#000000" stop-opacity="0" offset="0%"></stop>
            <stop stop-color="#000000" offset="100%"></stop>
        </linearGradient>
        <linearGradient x1="50%" y1="0%" x2="50%" y2="100%" id="linearGradient-2">
            <stop stop-color="#1B1B1B" stop-opacity="0.5" offset="0%"></stop>
            <stop stop-color="#000000" stop-opacity="0.5" offset="100%"></stop>
        </linearGradient>
        <path d="M47.8732833,0.5 L89.3454667,0.5 C103.099125,0.5 109.974242,0.5 117.37795,2.84041667 C125.46095,5.78249167 131.826883,12.148425 134.768958,20.231425 C137.109375,27.6339917 137.109375,34.5113917 137.109375,48.2639083 L137.109375,89.7360917 C137.109375,103.48975 137.109375,110.364867 134.768958,117.768575 C131.826883,125.851575 125.46095,132.217508 117.37795,135.158442 C109.974242,137.5 103.099125,137.5 89.3454667,137.5 L47.8732833,137.5 C34.119625,137.5 27.2433667,137.5 19.8408,135.158442 C11.7578,132.217508 5.39186667,125.851575 2.44979167,117.768575 C0.109375,110.364867 0.109375,103.48975 0.109375,89.7360917 L0.109375,48.2639083 C0.109375,34.5113917 0.109375,27.6339917 2.44979167,20.231425 C5.39186667,12.148425 11.7578,5.78249167 19.8408,2.84041667 C27.2433667,0.5 34.119625,0.5 47.8732833,0.5 L47.8732833,0.5" id="path-3"></path>
        <path d="M80.4472501,26.1867437 C74.002556,11.7089394 59.4901354,1.61496149 42.62014,1.61496149 C19.7638143,1.61496149 1.23510147,20.1436744 1.23510147,43 C1.23510147,65.8563256 19.7638143,84.3850385 42.62014,84.3850385 C65.0255014,84.3850385 83.2723364,66.58027 83.9836485,44.3477294" id="path-4"></path>
        <filter x="-18.1%" y="-18.1%" width="136.4%" height="136.2%" filterUnits="objectBoundingBox" id="filter-5">
            <feMorphology radius="3" operator="dilate" in="SourceAlpha" result="shadowSpreadOuter1"></feMorphology>
            <feOffset dx="0" dy="0" in="shadowSpreadOuter1" result="shadowOffsetOuter1"></feOffset>
            <feMorphology radius="3" operator="erode" in="SourceAlpha" result="shadowInner"></feMorphology>
            <feOffset dx="0" dy="0" in="shadowInner" result="shadowInner"></feOffset>
            <feComposite in="shadowOffsetOuter1" in2="shadowInner" operator="out" result="shadowOffsetOuter1"></feComposite>
            <feGaussianBlur stdDeviation="4" in="shadowOffsetOuter1" result="shadowBlurOuter1"></feGaussianBlur>
            <feColorMatrix values="0 0 0 0 0   0 0 0 0 0.968627451   0 0 0 0 1  0 0 0 0.37 0" type="matrix" in="shadowBlurOuter1"></feColorMatrix>
        </filter>
    </defs>
    <g id="Page-1" stroke="none" stroke-width="1" fill="none" fill-rule="evenodd">
        <g id="AppMaker-Store-Web" transform="translate(-482.000000, -570.000000)">
            <g id="Group-9">
                <g id="Group-6">
                    <g id="Group-4" transform="translate(63.000000, 104.000000)">
                        <g id="Radial" transform="translate(419.000000, 466.000000)">
                            <g id="Icon-Shape">
                                <g id="Black-Icon">
                                    <use fill="url(#linearGradient-1)" xlink:href="#path-3"></use>
                                    <use fill="url(#linearGradient-2)" xlink:href="#path-3"></use>
                                </g>
                            </g>
                            <g id="Symbol" transform="translate(26.000000, 26.000000)" stroke-linecap="round">
                                <g id="Oval-7" transform="translate(42.609375, 43.000000) rotate(-91.000000) translate(-42.609375, -43.000000) ">
                                    <use fill="black" fill-opacity="1" filter="url(#filter-5)" xlink:href="#path-4"></use>
                                    <use stroke="" stroke-width="6" xlink:href="#path-4"></use>
                                </g>
                            </g>
                        </g>
                    </g>
                </g>
            </g>
        </g>
    </g>
</svg>