<?xml version="1.0" encoding="utf-8"?>
<!-- Generator: Adobe Illustrator 22.0.1, SVG Export Plug-In . SVG Version: 6.00 Build 0)  -->
<svg version="1.1" id="Layer_1" xmlns="http://www.w3.org/2000/svg" xmlns:xlink="http://www.w3.org/1999/xlink" x="0px" y="0px"
	 viewBox="0 0 1000 1000" style="enable-background:new 0 0 1000 1000;" xml:space="preserve">
<style type="text/css">
	.st0{fill:#FF5F2C;}
	.st1{fill:#6E1953;}
	.st2{fill:#E0E0E0;}
	.st3{fill:#D1D1D1;}
</style>
<g>
	<g>
		<path class="st0" d="M225.9,724.5l-5.2,18.6h-17l22.2-72.6h21.5l22.5,72.6h-17.7l-5.6-18.6H225.9z M244.3,712.2l-4.5-15.4
			c-1.3-4.3-2.6-9.7-3.7-14h-0.2c-1.1,4.3-2.2,9.8-3.3,14l-4.3,15.4H244.3z"/>
		<path class="st0" d="M285,671.5c5.1-0.9,12.2-1.5,22.2-1.5c10.1,0,17.3,1.9,22.2,5.8c4.6,3.7,7.8,9.7,7.8,16.8
			c0,7.1-2.4,13.1-6.7,17.2c-5.6,5.3-13.9,7.6-23.6,7.6c-2.2,0-4.1-0.1-5.6-0.3v25.9H285V671.5z M301.2,704.4
			c1.4,0.3,3.1,0.4,5.5,0.4c8.7,0,14.1-4.4,14.1-11.8c0-6.7-4.6-10.7-12.8-10.7c-3.3,0-5.6,0.3-6.8,0.6V704.4z"/>
		<path class="st0" d="M352.9,671.5c5.1-0.9,12.2-1.5,22.2-1.5c10.1,0,17.3,1.9,22.2,5.8c4.6,3.7,7.8,9.7,7.8,16.8
			c0,7.1-2.4,13.1-6.7,17.2c-5.6,5.3-13.9,7.6-23.6,7.6c-2.2,0-4.1-0.1-5.6-0.3v25.9h-16.3V671.5z M369.2,704.4
			c1.4,0.3,3.1,0.4,5.5,0.4c8.7,0,14.1-4.4,14.1-11.8c0-6.7-4.6-10.7-12.8-10.7c-3.3,0-5.6,0.3-6.8,0.6V704.4z"/>
		<path class="st1" d="M480.7,715.3c-0.3-8.7-0.6-19.3-0.6-29.8h-0.3c-2.3,9.3-5.3,19.6-8.1,28.1l-8.8,28.3H450l-7.8-28.1
			c-2.4-8.5-4.8-18.8-6.6-28.3h-0.2c-0.4,9.8-0.8,21-1.3,30l-1.3,27.6h-15.2l4.6-72.6h21.9l7.1,24.2c2.3,8.4,4.5,17.4,6.1,25.9h0.3
			c2-8.4,4.5-18,6.9-26.1l7.8-24.1h21.4l4,72.6h-16L480.7,715.3z"/>
		<path class="st1" d="M532.4,724.5l-5.2,18.6h-17l22.2-72.6h21.5l22.5,72.6h-17.7l-5.6-18.6H532.4z M550.8,712.2l-4.5-15.4
			c-1.3-4.3-2.6-9.7-3.7-14h-0.2c-1.1,4.3-2.2,9.8-3.3,14l-4.3,15.4H550.8z"/>
		<path class="st1" d="M591.5,670.5h16.3v32.1h0.3c1.6-2.8,3.3-5.4,5-8l16.5-24.1h20.1l-24,30.9l25.3,41.7h-19.2L614,711.8l-6.2,7.6
			v23.7h-16.3V670.5z"/>
		<path class="st1" d="M706.2,712.4h-26.7v17.2h29.8v13.5H663v-72.6h44.8V684h-28.3V699h26.7V712.4z"/>
		<path class="st1" d="M725.9,671.5c5.3-0.9,13.1-1.5,21.9-1.5c10.8,0,18.3,1.6,23.5,5.7c4.3,3.4,6.7,8.5,6.7,15.2
			c0,9.3-6.6,15.6-12.8,17.9v0.3c5.1,2,7.9,6.9,9.7,13.6c2.3,8.2,4.5,17.7,5.9,20.5h-16.8c-1.2-2-2.9-8-5.1-16.9
			c-1.9-9-5.1-11.5-11.7-11.6h-5v28.5h-16.3V671.5z M742.1,702.7h6.5c8.2,0,13-4.1,13-10.4c0-6.7-4.5-10-12.1-10.1
			c-4,0-6.2,0.3-7.4,0.5V702.7z"/>
	</g>
	<g>
		<g>
			<g>
				<path class="st2" d="M542.4,290.9c2.6,0.9,5.4,1.5,7.9,2.7c5.4,2.5,10.8,5.2,16.1,7.9c5.1,2.7,10.3,1.9,14.3-2.2
					c3.3-3.4,6.7-6.8,10.1-10.1c2.9-2.7,6.4-3.7,10.3-3.2c0.6,0.1,1.2,0.1,1.9-0.1c-2.1-1.5-4.2-3.1-6.3-4.6
					c0.1-0.2,0.2-0.3,0.4-0.5c1.1,0.7,2.3,1.4,3.3,2.2c5.6,4.6,11.1,9.2,16.7,13.8c0.3,0.3,0.3,1,0.6,1.4c0.4,0.6,0.8,1.3,1.4,1.8
					c1,0.7,1.3,2.8,3.3,1.9c0.1,0,0.6,0.5,0.6,0.8c0.4,2,2.2,4.1,4.1,4.4c0.3,0.1,0.6,0.3,0.8,0.6c5.3,6.8,10.5,13.5,15.7,20.3
					c0.3,0.3,0.4,0.8,0.2,1.4c-3.5-4.7-6.9-9.4-10.6-14.6c0.2,2.3,0.6,4,0.5,5.7c-0.1,3.5-1.6,6.5-4.1,9c-3.1,3.1-6,6.3-9.2,9.2
					c-4,3.6-4.6,9.7-1.8,14.6c2.9,5.2,5.7,10.4,8,15.9c2.3,5.4,4,11,5.6,16.6c1.5,5.1,5.4,9.6,12.6,9.2c3.9-0.2,7.8-0.1,11.7-0.2
					c8.2-0.1,13.8,5.2,13.9,13.5c0.1,10,0.1,20.1,0.1,30.1c0,0.3,0,0.7,0.4,1c1.3-6.8,1-13.7,1.1-20.7c0.2,0,0.5,0,0.7,0
					c0,3.4,0,6.7-0.1,10.1c-0.1,3.4-0.2,6.7-0.3,10.4c1.2-0.2,2.4-0.4,3.6-0.6c0,0.2,0.1,0.4,0.1,0.5c-0.8,0.2-1.6,0.6-2.5,0.7
					c-1.1,0.1-1.6,0.6-1.6,1.7c-0.1,1.7-0.4,3.4-0.6,5.1c-0.2,0-0.4,0-0.6-0.1c0.2-2,0.3-4,0.5-6c-0.2-0.1-0.3-0.1-0.5-0.2
					c-0.2,0.4-0.6,0.7-0.7,1.1c-1.9,5.9-6.5,9.3-12.6,9.3c-4.8,0-9.5,0-14.3,0.1c-4.2,0-8.4,3-9.9,7.3c-1.6,4.6-3,9.2-4.5,13.8
					c-0.2,0.7-0.8,1.3-1.2,2c-1.7,0.7-3.5,1.5-5.2,2.2c-0.9-0.6-1.7-1.3-2.6-1.9l0,0c0.8,0,1.7-0.1,2.8-0.1c0.2-0.4,0.5-1.1,0.7-1.8
					c1.5-4.7,3.2-9.4,4.5-14.2c2-7.4,8-12.2,15.6-12.4c5-0.1,9.9-0.1,14.9-0.2c2.9-0.1,4.9-1.6,6.3-4.2c-0.8-0.1-1.4-0.2-2.2-0.3
					c3.1-1.5,3.1-1.5,3.1-4.8c0-9.5-0.1-19-0.1-28.4c0-4.5-3.4-7.9-7.9-8c-4.5,0-8.9,0-13.4,0c-8.2,0.1-14.3-4.6-16.6-12.4
					c-1.6-5.3-3.4-10.5-5.3-16.2c-4.6,2.1-8.8,4-13.1,6c-0.1-0.3-0.2-0.5-0.3-0.8c4.3-1.8,8.5-3.6,12.8-5.5
					c-0.1-0.4-0.2-0.8-0.3-1.1c-2.4-4.9-4.7-9.9-7.4-14.6c-3.6-6.3-3.1-14,1.7-19.3c3.4-3.7,7.1-7.2,10.7-10.9c3-3.1,3-7.9,0-10.9
					c-5.6-5.6-11.3-11.2-16.9-16.8c-1.6-1.6-3.2-3.2-4.9-4.7c-2.3-2-5.2-3.5-8.2,0.2c-0.9,1-1.9,1.9-2.9,2.9
					c-0.2-0.2-0.3-0.3-0.5-0.5c1.3-1.3,2.5-2.5,3.8-3.8c-0.9,0.1-1.7,0.4-2.3,0.9c-3.2,3.1-6.4,6.1-9.3,9.3
					c-6,6.7-13.7,7.3-19.4,4.6c-4.5-2.1-9-4.5-13.4-6.9c-3.2-1.8-3.7-1.7-5.1,1.3c0,0-0.2,0-0.3,0c0-0.2-0.1-0.4-0.1-0.5
					c1.1-1.9,0.8-3.2-1.5-3.7c-0.3-0.1-0.5-0.5-0.8-0.7C543.9,294.4,543.1,292.7,542.4,290.9z"/>
			</g>
			<g>
				<path class="st2" d="M622.3,477.6l-2.7-2l-0.8,0l0.1-3.1l1.3,1l1.8-0.1c0.1-0.3,0.3-0.7,0.4-1.1c0.4-1.3,0.9-2.7,1.3-4
					c1.1-3.3,2.2-6.7,3.2-10.1c2.2-7.9,8.6-13,16.6-13.1c2.5-0.1,4.9-0.1,7.4-0.1c2.5,0,5,0,7.5-0.1c1.9,0,3.4-0.8,4.6-2.4l-3.9-0.6
					l3-1.4c2.6-1.2,2.6-1.2,2.5-3.9c0-9.5-0.1-19-0.1-28.5c0-3.9-3-6.9-6.9-6.9c-4.2,0-8.6,0-13.4,0c-8.6,0.1-15.2-4.8-17.6-13.1
					c-1.1-3.6-2.2-7.1-3.5-10.9c-0.5-1.4-0.9-2.8-1.4-4.2l-13,5.9l-1.2-2.7l13-5.5c0,0,0,0,0-0.1c-0.7-1.4-1.4-2.9-2.1-4.3
					c-1.6-3.4-3.3-6.9-5.2-10.2c-3.9-6.8-3.1-15.1,1.9-20.5c2-2.2,4.2-4.4,6.3-6.4c1.5-1.5,2.9-2.9,4.4-4.4c2.6-2.7,2.6-6.9,0-9.5
					c-5.3-5.3-10.7-10.6-16-15.9l-1.8-1.8c-1.3-1.3-2.6-2.6-3.9-3.7c-1.5-1.3-2.7-1.9-3.9-1.8c-1,0.1-2,0.7-2.9,1.8
					c-0.6,0.8-1.4,1.4-2.1,2.1c-0.3,0.3-0.6,0.6-0.9,0.9l-0.7,0.7l-1.2-1.2c-2.1,2.1-4.3,4.2-6.3,6.4c-6.8,7.5-15.1,7.5-20.6,4.9
					c-4.6-2.1-9-4.5-13.4-7c-0.7-0.4-2.1-1.2-2.5-1c-0.4,0.1-0.9,1.4-1.2,1.8c-0.2,0.4-0.6,0.6-1.1,0.6l-1,0.1l-0.2-1
					c-0.1-0.3-0.2-0.7,0.1-1.2c0.6-1,0.5-1.4,0.4-1.5c-0.1-0.3-0.6-0.5-1.3-0.7c-0.6-0.1-0.9-0.5-1.1-0.8c-0.1-0.1-0.1-0.1-0.2-0.2
					l-0.1-0.1l-3.2-7.5l2.1,0.7c0.8,0.3,1.6,0.5,2.5,0.8c1.8,0.6,3.7,1.1,5.5,1.9c5.3,2.4,10.8,5.1,16.2,8c4.7,2.5,9.4,1.7,13-2
					l0.2-0.2c3.2-3.3,6.6-6.7,10-10c2.7-2.5,6-3.8,9.7-3.6l-4.6-3.3l1.5-2.2l0.8,0.6c0.3,0.2,0.7,0.4,1,0.7c0.8,0.5,1.6,1,2.4,1.6
					c5.5,4.5,11.1,9.1,16.7,13.8c0.5,0.4,0.6,0.9,0.7,1.3c0,0.1,0.1,0.3,0.1,0.4l0.1,0.2c0.3,0.5,0.6,1,1,1.3
					c0.5,0.3,0.8,0.8,1.1,1.2c0.6,0.9,0.7,0.9,1.2,0.6l0.5-0.2l0.5,0.2c0.4,0.2,1,0.9,1.1,1.5c0.3,1.6,1.8,3.3,3.3,3.6
					c0.7,0.1,1.2,0.7,1.4,1c5.3,6.8,10.5,13.5,15.7,20.3c0.3,0.4,0.7,1.2,0.4,2.3l-0.6,2.1l-9.6-13.1c0.1,0.7,0.1,1.3,0.1,2
					c-0.1,3.6-1.6,6.9-4.4,9.7c-1,1-2,2.1-3.1,3.1c-2,2-4,4.2-6.2,6.1c-3.5,3.2-4.2,8.7-1.6,13.4c2.6,4.6,5.6,10.1,8.1,16
					c2.3,5.5,4.1,11.3,5.7,16.7c1,3.3,3.8,8.9,11.6,8.5c2.7-0.1,5.4-0.1,8-0.2c1.2,0,2.5,0,3.7,0c4.4,0,8.1,1.3,10.8,3.9
					c2.7,2.6,4.1,6.3,4.2,10.5c0,3.1,0.1,6.3,0.1,9.4l2.2,0l0,1c0,1,0,2.1,0,3.1c0,2.3,0,4.6-0.1,6.9c0,2.3-0.1,4.7-0.2,7.1l-0.1,2
					l3.3-0.6l0.6,2.4l-0.9,0.3c-0.2,0.1-0.5,0.2-0.7,0.2c-0.6,0.2-1.2,0.4-1.9,0.5c-0.6,0.1-0.7,0.1-0.7,0.7c0,1.2-0.2,2.5-0.4,3.7
					c-0.1,0.5-0.1,1-0.2,1.5l-0.1,1l-2.6-0.3l0.3-3c-2.5,4.7-6.9,7.3-12.5,7.4c-2.8,0-5.5,0-8.3,0c-2,0-4,0-6,0
					c-3.9,0-7.6,2.8-9,6.6c-1,2.7-1.9,5.6-2.7,8.3c-0.6,1.8-1.2,3.7-1.8,5.5c-0.2,0.6-0.6,1.2-0.9,1.6c-0.1,0.2-0.3,0.4-0.4,0.6
					l-0.2,0.3L622.3,477.6z M665.5,440.8l0.8,0.1l-0.7,1.3c-1.7,3.1-4.2,4.6-7.2,4.7c-2.5,0.1-5,0.1-7.5,0.1c-2.4,0-4.9,0-7.3,0.1
					c-7.1,0.1-12.7,4.6-14.7,11.6c-1,3.4-2.1,6.9-3.2,10.2c-0.4,1.3-0.9,2.7-1.3,4c-0.2,0.5-0.4,1-0.6,1.4c-0.1,0.1-0.1,0.3-0.2,0.4
					l3.4-1.4c0.1-0.1,0.2-0.3,0.3-0.4c0.3-0.4,0.5-0.8,0.7-1.1c0.6-1.8,1.2-3.6,1.7-5.5c0.9-2.8,1.8-5.6,2.7-8.4
					c1.6-4.6,6.1-7.9,10.9-7.9c2,0,4,0,6,0c2.8,0,5.5,0,8.3,0c5.7-0.1,9.8-3.1,11.7-8.6c0.1-0.4,0.4-0.8,0.6-1.1
					c0.1-0.1,0.1-0.2,0.2-0.3l0,0c-0.3-0.5-0.4-1-0.4-1.4c0-3.1,0-6.2,0-9.3c0-6.8,0-13.8-0.1-20.8c0-3.7-1.3-6.9-3.6-9.1
					c-2.3-2.3-5.5-3.4-9.3-3.4c-1.3,0-2.5,0-3.8,0c-2.6,0-5.3,0-8,0.1c-6.7,0.3-11.7-3.3-13.6-10c-1.6-5.4-3.3-11.1-5.6-16.5
					c-2.4-5.8-5.4-11.2-8-15.8c-3.1-5.5-2.3-12,2-15.9c2.1-1.9,4.1-4,6.1-6c1-1.1,2-2.1,3.1-3.2c2.4-2.4,3.7-5.2,3.8-8.3
					c0-1.1-0.1-2.2-0.3-3.5c-0.1-0.7-0.2-1.4-0.3-2.1l0-0.1c-1.7-2.2-3.4-4.3-5.1-6.5c-0.1-0.1-0.2-0.2-0.2-0.2
					c-2.2-0.4-4.3-2.7-4.8-5c-1.7,0.4-2.5-0.9-3-1.6c-0.2-0.3-0.4-0.6-0.5-0.7c-0.7-0.5-1.2-1.2-1.6-1.9l-0.1-0.2
					c-0.2-0.3-0.3-0.7-0.4-1c0-0.1-0.1-0.2-0.1-0.3c-4.3-3.6-8.6-7.2-12.9-10.7l-0.1,0c-0.9,0.3-1.7,0.2-2.3,0.1
					c-3.8-0.5-7,0.5-9.5,2.9c-3.4,3.2-6.7,6.6-9.9,9.9l-0.2,0.2c-4.3,4.4-9.9,5.3-15.5,2.3c-5.4-2.8-10.8-5.5-16.1-7.9
					c-1.7-0.8-3.4-1.3-5.3-1.8c-0.1,0-0.3-0.1-0.4-0.1l1.3,3.1c0.1,0.1,0.1,0.1,0.2,0.2c0,0,0.1,0.1,0.1,0.1
					c1.3,0.3,2.2,0.9,2.6,1.8c0,0,0,0.1,0,0.1c0.1-0.1,0.2-0.1,0.4-0.2c1.1-0.4,2.3,0.2,4.1,1.2c4.4,2.4,8.8,4.8,13.3,6.9
					c4.9,2.3,12.2,2.3,18.2-4.4c2.3-2.6,4.8-5,7.2-7.3c0.7-0.7,1.4-1.4,2.1-2.1c0.7-0.7,1.7-1.1,2.9-1.2l1.1-0.1
					c0.7-0.4,1.4-0.6,2.1-0.7c2.2-0.2,4.1,1.2,5.4,2.3c1.4,1.2,2.7,2.5,4,3.8l1.8,1.8c5.4,5.3,10.7,10.6,16,15.9
					c3.4,3.4,3.4,8.8,0,12.4c-1.5,1.5-2.9,3-4.4,4.5c-2.1,2.1-4.2,4.2-6.2,6.4c-4.4,4.8-5,12-1.6,18.1c1.9,3.4,3.6,6.9,5.3,10.3
					c0.7,1.4,1.4,2.9,2.1,4.3c0.1,0.2,0.2,0.4,0.2,0.6l0.4-0.2l0.4,1.1c0.6,1.8,1.2,3.6,1.8,5.3c1.3,3.8,2.4,7.3,3.5,10.9
					c2.2,7.4,8,11.7,15.6,11.6c4.8-0.1,9.2-0.1,13.4,0c5,0,8.9,3.9,8.9,9c0,9.5,0.1,19,0.1,28.4C666.6,439,666.5,440,665.5,440.8z
					 M547.8,301.1C547.8,301.1,547.8,301.1,547.8,301.1C547.8,301.1,547.8,301.1,547.8,301.1z"/>
			</g>
		</g>
		<g>
			<g>
				<path class="st2" d="M441.5,552.7c-0.8-0.2-1.6-0.2-2.3-0.5c-3.9-1.9-7.8-3.8-11.7-5.9c-5.8-3.1-10.5-2.5-15.1,2.2
					c-3.2,3.3-6.5,6.5-9.8,9.7c-5.1,4.9-12.9,4.4-18.4-1c-5.4-5.4-10.8-10.8-16.3-16.1c-0.4-0.4-1-0.5-1.4-0.7
					c0.2,0.5,0.2,1.1,0.6,1.5c5.6,5.5,11.3,11,16.9,16.5c0.5,0.5,1,1,1.3,1.6c-7.5-5.6-14-12.5-20.5-19.3c0.3-0.2,0.8-0.7,1.5-1.2
					c-0.8-0.9-1.6-1.7-2.4-2.5c-5.8-6.1-5.5-13.9,0.6-19.7c3-2.8,5.9-5.7,8.7-8.7c4.2-4.4,4.6-9.1,1.6-14.5
					c-2.3-4.2-4.8-8.4-6.6-12.9c-2.8-6.9-5.1-14-7.6-21.1c-1.5-4.4-5.5-7.6-10.2-7.6c-4.3-0.1-8.7-0.1-13,0
					c-5.7,0.1-10.2-1.8-13.1-6.8c-0.1-0.2-0.3-0.4-0.7-0.5c0.5,3.4,0.9,6.9,1.4,10.3c-0.2,0-0.4,0.1-0.6,0.1c-0.3-2.2-0.7-4.4-1-6.6
					c-0.3-2.4-0.6-4.7-0.8-7.1c-0.2-2.3-0.4-4.6-0.7-7.2c-2.5,0.7-4.9,1.3-7.3,1.9c-0.1-0.2-0.1-0.3-0.2-0.5c1.4-0.5,2.8-1,4.3-1.4
					c0.2-0.1,0.5-0.1,0.7-0.1c1.8-0.2,2.8-0.9,2.4-3.1c-0.2-1.3-0.2-2.6,0.7-4.1c0.7-1.2,1.1-3.8-0.6-5.4c-0.2-0.2-0.3-0.9-0.1-1.1
					c1.7-1.7,0.7-3.8,0.7-5.7c0-0.8-0.5-1.7-0.4-2.5c0.6-5.5,1.3-10.9,2-16.4c0-0.2,0-0.4-0.1-0.5l0,0c0.2,0.4,0.7,0.9,0.6,1.3
					c-0.2,2-0.6,4-0.6,6.2c0.3-0.4,0.6-0.7,0.9-1.1c2.6-3.6,6.2-5.5,10.7-5.5c4.4,0,8.8-0.1,13.2-0.1c5.9,0,10.1-3.1,11.7-8.9
					c0.7-2.4,1.4-4.8,2.1-7.2c0.1-0.4,0.4-0.7,0.6-1.1c1.7-0.7,3.5-1.5,5.2-2.2c0,0.5,0.2,1.1,0,1.6c-1.1,3.7-2.3,7.4-3.4,11.1
					c-2,7-8.2,11.7-15.6,11.7c-4.5,0-9.1,0-13.6,0c-5.1,0.1-8.3,3.1-8.3,8.2c0,5.4,0,10.9,0,16.3c0,2.2,0,4.5,0.1,6.7
					c3.1,0,6.1,0,9,0c0,0.2,0,0.4,0,0.6c-2.1,0-4.1,0-6.2,0.1c-2.8,0.1-2.8,0.1-2.8,2.9c0,0.9,0,1.7,0,2.6c-0.1,4.8,3.2,8.4,8,8.4
					c4.5,0,9.1-0.1,13.6-0.1c8.2,0,14.2,4.8,16.4,12.6c2.9,10.6,6.8,20.7,12.5,30.1c5.4,9,4,17.5-3.4,23.9c-2.9,2.5-5.5,5.4-8.1,8.2
					c-2.7,2.8-2.9,7.1-0.4,10.1c1.2,1.4,2.6,2.7,3.9,4c0.6-0.3,1.1-0.5,2-0.9c-0.6,0.9-0.9,1.3-1.2,1.8c5.9,5.8,11.7,11.7,17.6,17.3
					c3.1,3,7.3,2.9,10.4,0c3.1-2.9,6.1-5.9,8.9-9c5.7-6.2,12.8-7.9,20.1-4.4c5.6,2.7,11.1,5.5,16.6,8.3c0.2,0.5,0.4,1.1,0.6,1.6
					C444.2,551.5,442.9,552.1,441.5,552.7z"/>
			</g>
			<g>
				<path class="st2" d="M387.8,563l-3.1-2.3c-7.3-5.4-13.6-12-19.7-18.5l-1.7-1.8l1.5-1.2l-1.6-1.7c-3-3.2-4.6-6.8-4.5-10.6
					c0.1-3.8,1.9-7.4,5.1-10.5c3-2.8,5.9-5.7,8.6-8.7c3.8-4,4.2-8.2,1.5-13.3c-0.4-0.8-0.8-1.5-1.3-2.3c-1.9-3.4-3.9-7-5.4-10.7
					c-2.4-5.9-4.5-12.1-6.5-18l-1.1-3.1c-1.4-4.1-5.1-6.9-9.2-7c-5-0.1-9.1-0.1-13,0c-5.4,0.1-9.4-1.5-12.3-4.9l1,7.8l-2.6,0.4
					l-0.2-1c-0.1-0.7-0.2-1.3-0.3-2c-0.2-1.5-0.5-3.1-0.7-4.6c-0.3-2.4-0.6-4.8-0.8-7.1c-0.2-1.6-0.3-3.2-0.5-4.9l-0.1-1.1l-7,1.8
					l-0.8-2.4l2.1-0.7c1.1-0.4,2.1-0.7,3.2-1.1c0.3-0.1,0.5-0.1,0.8-0.1l0.2,0c0.8-0.1,1.2-0.3,1.4-0.5c0.2-0.3,0.2-0.9,0.1-1.4
					c-0.2-1.2-0.3-2.9,0.8-4.8c0.4-0.8,0.9-2.8-0.4-4.2c-0.4-0.4-0.5-1-0.5-1.4c0-0.4,0.1-0.9,0.4-1.2c0.8-0.8,0.8-1.7,0.6-3.2
					c-0.1-0.6-0.2-1.2-0.1-1.8c0-0.2-0.1-0.6-0.2-0.9c-0.1-0.5-0.3-1.1-0.2-1.7c0.4-3.9,0.9-7.8,1.4-11.6c0.2-1.6,0.4-3.2,0.6-4.7
					l-2.1-3.9l4,2.9l0,0.2c0,0.1,0.1,0.1,0.1,0.2c0.3,0.4,0.6,0.9,0.6,1.6c-0.1,0.5-0.1,1.1-0.2,1.6c-0.1,0.4-0.1,0.9-0.2,1.3
					c2.7-3,6.2-4.5,10.3-4.5c1.8,0,3.7,0,5.5,0c2.6,0,5.1,0,7.7,0c0,0,0.1,0,0.1,0c5.4,0,9.2-2.9,10.6-8.1c0.6-2.2,1.3-4.5,2-6.7
					l0.2-0.6c0.1-0.4,0.3-0.7,0.5-1c0.1-0.1,0.1-0.2,0.2-0.3l0.2-0.3l6.9-2.9l0,1.5c0,0.1,0,0.3,0,0.4c0,0.5,0.1,1-0.1,1.5
					c-0.5,1.7-1,3.4-1.5,5c-0.6,2-1.3,4-1.8,6c-2.2,7.5-8.7,12.4-16.5,12.5c-2,0-4,0-6,0c-2.5,0-5.1,0-7.6,0c-4.6,0-7.3,2.7-7.3,7.2
					c0,4.1,0,8.4,0,12.4l0,3.9c0,1.5,0,3.1,0,4.6l0,1.1l9,0l-0.1,2.6l-2.9,0c-1.4,0-2.9,0-4.3,0.1c-0.7,0-1.5,0-1.7,0.1
					c-0.1,0.3,0,1,0,1.7c0,0.9,0,1.7,0,2.6c-0.1,2.2,0.6,4.1,1.9,5.4c1.3,1.3,3,2,5.1,2c2.5,0,5,0,7.4,0c2,0,4.1,0,6.1,0
					c8.6,0,15.1,5,17.4,13.4c3.2,11.6,7.2,21.3,12.4,29.9c5.6,9.3,4.3,18.2-3.6,25.2c-2.3,2-4.5,4.4-6.6,6.6c-0.5,0.5-1,1-1.4,1.5
					c-2.3,2.5-2.5,6.2-0.4,8.7c0.8,1,1.7,1.8,2.6,2.7c0.2,0.2,0.5,0.5,0.7,0.7l4.7-2.1l-2.7,4.1c1.5,1.5,3.1,3,4.6,4.6
					c4,4,8.2,8.2,12.4,12.2c2.7,2.6,6.2,2.6,9,0c3-2.8,6-5.8,8.9-8.9c6.1-6.6,13.7-8.2,21.3-4.6c3.9,1.8,7.8,3.8,11.5,5.7
					c1.7,0.9,3.4,1.7,5.1,2.6l0.4,0.2l1,2.9l-5.2,2.2l-0.3-0.1c-0.2,0-0.4-0.1-0.7-0.1c-0.6-0.1-1.2-0.2-1.8-0.5l-1.6-0.8
					c-3.3-1.6-6.8-3.3-10.1-5.1c-5.4-2.9-9.7-2.3-13.9,2c-2.9,3-6.1,6.2-9.8,9.7c-4.6,4.4-11.3,4.8-16.9,1.3L387.8,563z
					 M367.7,539.6c0.4,0.1,0.8,0.3,1.1,0.7c5.8,5.7,11.1,11,16.3,16.2c5.2,5.1,12.3,5.6,17,1c3.6-3.5,6.8-6.7,9.8-9.7
					c4.8-4.9,10.2-5.7,16.3-2.4c3.3,1.8,6.7,3.5,10,5.1l1.6,0.8c0.3,0.2,0.8,0.2,1.2,0.3c0.2,0,0.3,0,0.5,0.1l2.8-1.2l-0.1-0.3
					c-1.6-0.8-3.2-1.6-4.7-2.4c-3.8-1.9-7.6-3.9-11.5-5.7c-6.8-3.3-13.4-1.8-18.9,4.2c-2.9,3.1-5.9,6.2-9,9c-3.6,3.3-8.3,3.3-11.8,0
					c-4.2-4-8.4-8.2-12.4-12.2c-1.7-1.7-3.4-3.4-5.2-5.1l-0.6-0.6l0,0l-0.3-0.3c-0.4-0.4-0.8-0.8-1.2-1.2c-0.9-0.9-1.9-1.8-2.8-2.9
					c-2.8-3.4-2.6-8.2,0.5-11.4c0.5-0.5,1-1,1.4-1.5c2.1-2.3,4.4-4.7,6.8-6.8c7.1-6.2,8.2-14.2,3.2-22.6
					c-5.3-8.7-9.4-18.6-12.6-30.4c-2-7.4-7.8-11.8-15.4-11.9c-2,0-4.1,0-6.1,0c-2.5,0-5,0-7.5,0c-2.6,0-4.9-1-6.5-2.7
					c-1.7-1.7-2.5-4.1-2.5-6.8c0-0.9,0-1.7,0-2.5c0-1.2,0-2,0.2-2.6l-0.2,0l0-3.1c0-1.5,0-3.1,0-4.6l0-3.9c0-4.1,0-8.3,0-12.5
					c0-5.6,3.6-9.2,9.3-9.2c2.5,0,5.1,0,7.6,0c2,0,4,0,6,0c6.9,0,12.6-4.4,14.6-11c0.6-2,1.2-4,1.8-6.1c0.5-1.6,1-3.2,1.5-4.8
					l-3.5,1.5c0,0,0,0,0,0.1c-0.1,0.2-0.2,0.4-0.3,0.5l-0.2,0.6c-0.7,2.2-1.4,4.4-2,6.6c-1.7,6.1-6.3,9.6-12.6,9.6c0,0-0.1,0-0.1,0
					c-2.6,0-5.1,0-7.7,0c-1.8,0-3.7,0-5.5,0c-4.1,0-7.4,1.7-9.8,5.1c-0.2,0.3-0.4,0.6-0.7,0.8l-1.1,1.3c-0.3,2.6-0.7,5.3-1,8
					c0,0.2,0.1,0.6,0.2,0.9c0.1,0.4,0.3,1,0.3,1.5c0,0.5,0.1,1,0.1,1.5c0.2,1.4,0.4,3.2-1,4.7c0,0,0,0,0,0c2,2.1,1.5,5.1,0.6,6.5
					c-0.8,1.3-0.7,2.4-0.6,3.4c0.1,0.9,0.1,1.6-0.1,2.2l0.3,3.5c0.2,1.7,0.3,3.3,0.5,4.9c0.1,0.8,0.2,1.6,0.2,2.4l0.1,0
					c0.6,0.2,1,0.5,1.3,1c2.5,4.4,6.5,6.4,12.2,6.3c3.9-0.1,8.1-0.1,13.1,0c5,0.1,9.4,3.4,11.1,8.3l1.1,3.1c2,5.9,4.1,12.1,6.5,17.9
					c1.5,3.6,3.4,7.1,5.3,10.5c0.4,0.8,0.9,1.5,1.3,2.3c3.2,5.8,2.6,11-1.8,15.7c-2.8,3-5.7,5.9-8.7,8.8c-2.8,2.7-4.4,5.8-4.5,9.1
					c-0.1,3.2,1.3,6.4,3.9,9.2l3.2,3.3L367.7,539.6z"/>
			</g>
		</g>
		<g>
			<g>
				<path class="st2" d="M542.4,290.9c0.7,1.8,1.5,3.5,2.2,5.3c-0.5,0-1.1,0.1-1.6,0c-4.2-1.3-8.4-2.6-12.6-3.9
					c-7-2.2-11.5-9.2-11.3-15.6c0.2-4.8,0-9.7-0.1-14.5c-0.1-3.8-3-6.8-6.8-7.2c-1.5-0.2-3.1-0.1-4.6-0.1c-8.7,0-17.5,0.1-26.2,0.1
					c-4.6,0-8.1,3.3-8.1,7.9c0,4.5,0,9.1,0,13.6c0,8.4-4.7,14.4-12.8,16.6c-10.9,3-21.3,7.3-31.1,13c-7.5,4.4-15.2,3.5-21.3-2.6
					c-3.1-3.1-6.2-6.2-9.4-9.3c-1.7-1.6-3.6-2.4-6-2.3c-2.7,0.1-4.5,1.7-6.2,3.4c-6.7,6.8-13.5,13.5-20.1,20.4
					c-3.3,3.4-3.2,7.7,0.2,11.1c2.9,2.9,5.8,5.8,8.8,8.6c6.6,6.2,7.7,13.5,3.4,21.4c-2.2,4.1-4.3,8.3-6.3,12.5
					c-1.4,3-1.3,2.6,1.4,3.8c0.5,0.2,0.9,0.8,1.3,1.2l0,0c-1.6-0.5-3.1-1-4.7-1.5c-0.8-1.8-1.6-3.6-2.5-5.4
					c2.1-4.3,3.9-8.7,6.2-12.9c3-5.5,2.5-10.5-1.9-14.8c-3.3-3.3-6.7-6.6-10-10c-2.3-2.4-3.4-5.3-3.4-8.7c0-0.8,0-1.6,0.1-2.8
					c-2.6,3.6-5,6.7-7.3,9.9c0,0,0,0.1,0,0.1c0.8-1.6,1.5-3.4,2.6-4.9c4.7-6.4,9.3-12.9,15.2-18.3c4.8-4.4,9.1-9.4,13.9-13.8
					c2.4-2.2,5.2-3.9,8.4-6.2c-0.3,0.9-0.4,1.3-0.6,1.9c5.3-0.6,9.4,1.7,12.9,5.5c2.8,3,5.8,5.8,8.7,8.6c3.2,3.1,8.4,3.8,12.3,1.5
					c9.5-5.5,19.5-9.9,30-13.3c2.7-0.8,5.5-1.5,7.9-2.9c3.2-1.8,5-4.8,5.1-8.6c0.1-4.3,0.3-8.6,0-12.8c-0.6-7.6,4.1-15.4,15-15.1
					c9,0.2,18,0,27,0c7.4-0.1,13,4.2,13.9,11.1c0.4,3.5,0.2,7.1,0.2,10.6c0,2.1-0.1,4.3,0.1,6.4c0.4,4.8,3.7,8.4,8.7,9.8
					c2.7,0.7,5.3,1.5,7.9,2.3C541.4,290.2,541.9,290.6,542.4,290.9z"/>
			</g>
			<g>
				<path class="st2" d="M375.6,376.3l-1.1-1.1l-4.8-1.5l-2.8-6.2l0.2-0.4c0.6-1.3,1.2-2.6,1.9-4c1.4-3,2.8-6,4.4-8.9
					c2.8-5.2,2.3-9.6-1.7-13.6c-3.2-3.1-6.6-6.5-10-10c-2.3-2.4-3.6-5.4-3.7-9l-5.1,6.9c-0.1,0.1-0.1,0.2-0.2,0.3l-1,1.9l-1.1-2.5
					l0.5-0.8c0.2-0.4,0.3-0.7,0.5-1.1c0.5-1.2,1.1-2.4,1.9-3.5c0.6-0.8,1.2-1.6,1.7-2.4c4.1-5.5,8.3-11.3,13.5-16.1
					c2.5-2.3,4.9-4.7,7.2-7.1c2.2-2.2,4.4-4.5,6.7-6.7c1.7-1.6,3.6-2.9,5.5-4.3c0.9-0.6,1.9-1.3,2.9-2.1l2.6-1.9l-1.2,3.5
					c4.5,0,8.5,1.9,12.2,5.9c2.6,2.8,5.4,5.5,8.1,8.1l0.6,0.5c3,2.8,7.6,3.4,11.1,1.4c9.8-5.6,20-10.1,30.2-13.3
					c0.5-0.2,1.1-0.3,1.7-0.5c2.1-0.6,4.2-1.3,6-2.3c2.9-1.6,4.5-4.3,4.6-7.7c0-0.9,0-1.7,0.1-2.6c0.1-3.4,0.2-6.8-0.1-10.2
					c-0.3-4.5,1.1-8.8,3.9-11.8c2.9-3,7.1-4.6,12.1-4.4c7,0.2,14.2,0.1,21.1,0c1.9,0,3.9,0,5.8-0.1c0.1,0,0.1,0,0.2,0
					c8.1,0,13.9,4.7,14.8,12c0.3,2.5,0.3,5.1,0.2,7.5c0,1.1,0,2.2,0,3.2c0,0.7,0,1.4,0,2.2c0,1.4,0,2.8,0.1,4.2
					c0.4,4.3,3.4,7.6,7.9,8.9c2.7,0.8,5.4,1.5,8,2.3c0.5,0.2,0.9,0.4,1.3,0.7c0.1,0.1,0.3,0.2,0.4,0.3l0.3,0.2l2.9,7l-1.5,0
					c-0.1,0-0.3,0-0.5,0c-0.4,0-1,0.1-1.5-0.1c-4.2-1.3-8.5-2.6-12.6-3.9c-7.1-2.3-12.3-9.4-12-16.6c0.2-4.6,0-9.3-0.1-13.8l0-0.6
					c-0.1-3.3-2.5-5.9-5.9-6.2c-1.2-0.1-2.5-0.1-3.7-0.1l-0.7,0c-3,0-6,0-9,0c-5.7,0-11.5,0.1-17.2,0c0,0,0,0,0,0
					c-4.1,0-7.1,2.9-7.1,6.8c0,2.8,0,5.6,0,8.5c0,1.7,0,3.4,0,5.1c0,8.8-5,15.2-13.6,17.6c-10.7,2.9-21.1,7.3-30.8,12.9
					c-7.9,4.6-16.2,3.6-22.5-2.8c-2.8-2.8-5.6-5.6-8.4-8.4l-0.9-0.9c-1.4-1.4-3.1-2.1-5.2-2c-2.4,0.1-4,1.5-5.5,3.1
					c-2.9,3-5.8,5.9-8.7,8.8c-3.8,3.8-7.6,7.7-11.4,11.6c-2.9,3-2.8,6.7,0.2,9.7c3,3.1,5.9,5.9,8.7,8.6c6.9,6.5,8.2,14.3,3.6,22.7
					c-2.3,4.2-4.3,8.4-6.2,12.4l-0.1,0.2c-0.3,0.6-0.6,1.2-0.7,1.5c0.2,0.1,0.5,0.2,0.8,0.3c0.3,0.1,0.6,0.2,0.9,0.4
					c0.6,0.3,0.9,0.7,1.3,1.1c0.1,0.1,0.1,0.1,0.2,0.2l0.7,0.2L375.6,376.3z M369.1,367.5l1.5,3.3c0.2-0.4,0.4-1,0.7-1.7l0.1-0.2
					c1.9-4,4-8.3,6.3-12.5c4.1-7.6,3-14.3-3.2-20.2c-2.9-2.7-5.8-5.5-8.8-8.7c-3.8-3.9-3.8-8.8-0.2-12.6c3.8-3.9,7.7-7.8,11.4-11.6
					c2.9-2.9,5.8-5.9,8.7-8.8c1.8-1.8,3.8-3.6,6.9-3.8c2.7-0.1,4.9,0.8,6.8,2.6l0.9,0.9c2.8,2.8,5.6,5.6,8.4,8.4
					c5.7,5.7,12.8,6.6,20,2.4c9.9-5.7,20.4-10.1,31.3-13.1c7.7-2.1,12.1-7.8,12.1-15.6c0-1.7,0-3.4,0-5.1c0-2.8,0-5.6,0-8.5
					c0-5.1,4-8.9,9.1-8.9c0,0,0,0,0,0c5.7,0,11.6,0,17.2,0c3,0,6,0,9,0l0.7,0c1.3,0,2.6,0,4,0.1c4.3,0.4,7.6,3.9,7.7,8.2l0,0.6
					c0.1,4.6,0.3,9.3,0.1,13.9c-0.3,6.3,4.3,12.5,10.6,14.5c4.1,1.3,8.3,2.6,12.4,3.9l-1.5-3.5c-0.1,0-0.1-0.1-0.2-0.1
					c-0.3-0.2-0.6-0.4-0.8-0.4c-2.6-0.8-5.2-1.6-7.9-2.3c-5.4-1.5-9-5.5-9.4-10.7c-0.1-1.5-0.1-2.9-0.1-4.4c0-0.7,0-1.4,0-2.1
					c0-1.1,0-2.2,0-3.3c0-2.4,0.1-4.9-0.2-7.2c-0.8-6.3-5.9-10.3-12.9-10.2c-1.9,0-3.9,0-5.8,0.1c-6.9,0.1-14.1,0.2-21.2,0
					c-4.4-0.1-8.1,1.2-10.6,3.8c-2.4,2.5-3.6,6.3-3.3,10.2c0.3,3.5,0.2,7,0.1,10.4c0,0.8,0,1.7-0.1,2.5c-0.1,4.1-2.1,7.5-5.6,9.5
					c-2,1.1-4.3,1.8-6.4,2.5c-0.5,0.2-1.1,0.3-1.6,0.5c-10.1,3.2-20.1,7.6-29.8,13.2c-4.2,2.4-9.9,1.7-13.5-1.7l-0.6-0.5
					c-2.8-2.6-5.6-5.3-8.2-8.2c-3.7-4-7.5-5.7-12.1-5.2l-1.6,0.2l0.1-0.4c-0.1,0.1-0.2,0.2-0.4,0.3c-1.9,1.3-3.8,2.6-5.3,4.1
					c-2.3,2.1-4.5,4.4-6.7,6.6c-2.3,2.4-4.7,4.9-7.2,7.2c-3.8,3.5-7,7.5-10.1,11.6l-0.1,2.2c0,0.6,0,1.1,0,1.6c0,3.2,1,5.8,3.1,7.9
					c3.4,3.5,6.8,6.8,9.9,10c4.7,4.6,5.4,10,2.1,16c-1.6,2.9-3,5.9-4.3,8.8C370.2,365.1,369.7,366.3,369.1,367.5z"/>
			</g>
		</g>
		<g>
			<g>
				<path class="st2" d="M441.5,552.7c1.3-0.6,2.7-1.2,4-1.7c0.4-0.2,0.9-0.3,1.3-0.5c0.9,0.1,1.8,0.2,2.7,0.4
					c4.3,1.3,8.6,2.8,13,4.1c6.9,2,11.7,8.1,11.9,15.3c0.1,5,0.1,10,0.1,15c0,2.4,1.2,4.2,3,5.6c2,1.7,4.4,1.6,6.8,1.6
					c9.2,0,18.4-0.2,27.5-0.1c4.9,0,8.3-3,8.4-7.9c0.1-4.5,0-9.1,0-13.6c-0.1-7.5,4.3-13.8,11.2-16c2.4-0.8,4.9-1.4,7.4-2.2
					c9.3-3,18.1-7.1,26.6-12c6-3.5,13.7-2.6,18.8,2.1c1.9,1.7,3.7,3.6,5.5,5.4c1.8,1.8,3.5,3.6,5.4,5.3c3.1,2.9,7.7,2.9,10.7,0
					c7.2-7.1,14.3-14.3,21.3-21.6c3.5-3.6,3.3-7.8-0.1-11.4c-2.8-2.8-5.6-5.7-8.5-8.4c-6.3-5.9-7.8-13.4-4.1-20.6
					c2.1-4,4.1-8.1,6.2-12.1c0.2-0.4,0.7-0.7,1.1-1c0.7,1.8,1.5,3.5,2.2,5.3c-0.8,1.8-1.6,3.7-2.5,5.5c-1,2-2.1,3.9-3,5.9
					c-1.9,4.3-0.7,9.1,2.7,12.4c3.6,3.4,7.1,6.9,10.5,10.5c4.6,4.9,4,12.8-1.1,17.9c-6.7,6.7-13.4,13.5-20.1,20.2
					c-6.3,6.3-14,6.2-20.2-0.2c-2.9-3-5.9-6-9-8.9c-3.7-3.6-8.8-4.3-13.3-1.7c-8.5,4.9-17.4,8.9-26.7,12.1c-2.6,0.9-5.3,1.5-7.9,2.4
					c-4.7,1.5-7.7,5.5-7.8,10.4c-0.1,4-0.1,8.1,0,12.1c0.3,9.9-5,15.4-14.9,15.3c-9-0.1-18.1,0-27.1,0.1c-8.1,0.1-13.8-5.2-14-13.3
					c-0.1-4.6-0.1-9.3,0-13.9c0-5-3.6-9.2-9.1-10.9c-5.8-1.8-11.5-3.8-17.2-5.8C442.5,553.6,442,553.1,441.5,552.7z"/>
			</g>
			<g>
				<path class="st2" d="M483.1,598.7c-8.7,0-14.6-5.7-14.7-14.3c-0.1-4.1-0.1-8.4,0-14c0-4.4-3.2-8.3-8.3-9.9
					c-4.6-1.4-9.2-3-13.7-4.6c-1.2-0.4-2.4-0.8-3.6-1.2c-0.6-0.2-1-0.6-1.4-0.9c-0.1-0.1-0.3-0.2-0.4-0.3l-1.4-1.1l5.6-2.4l1.6-0.6
					l0.3,0c0.3,0,0.5,0.1,0.8,0.1c0.7,0.1,1.3,0.2,2,0.4c1.8,0.5,3.5,1.1,5.3,1.7c2.5,0.8,5.1,1.7,7.7,2.4
					c7.4,2.2,12.5,8.7,12.6,16.2c0.1,2.9,0.1,5.9,0.1,8.8c0,2.1,0,4.2,0,6.3c0,1.9,0.9,3.4,2.6,4.9c1.7,1.4,3.8,1.4,6,1.4l0.1,0
					c3.1,0,6.3,0,9.4-0.1c6,0,12.1-0.1,18.2-0.1c0,0,0,0,0,0c4.5,0,7.3-2.7,7.3-6.9c0.1-4.6,0-9.4,0-13.6c-0.1-8,4.6-14.6,11.9-17
					c1.2-0.4,2.4-0.7,3.6-1.1c1.2-0.4,2.5-0.7,3.8-1.1c8.9-2.9,17.8-6.9,26.4-11.9c6.3-3.7,14.5-2.7,20,2.2c1.3,1.2,2.6,2.5,3.8,3.7
					c0.6,0.6,1.2,1.2,1.7,1.7c0.5,0.5,1.1,1.1,1.6,1.6c1.2,1.2,2.5,2.5,3.7,3.6c2.7,2.5,6.7,2.5,9.2,0c8.4-8.4,15.2-15.2,21.3-21.5
					c3.1-3.2,3-6.7-0.1-10c-3.1-3.2-5.8-5.9-8.5-8.3c-6.7-6.2-8.2-14.2-4.3-21.8l1.9-3.7c1.4-2.8,2.8-5.6,4.3-8.4
					c0.2-0.5,0.6-0.8,1-1c0.1-0.1,0.2-0.2,0.3-0.3l1.1-1l3,7.1l-0.2,0.4c-0.2,0.6-0.5,1.1-0.7,1.7c-0.5,1.3-1.1,2.6-1.7,3.8
					c-0.4,0.8-0.9,1.7-1.3,2.5c-0.6,1.1-1.2,2.2-1.7,3.3c-1.7,3.9-0.7,8.2,2.5,11.3c3.2,3.1,6.9,6.7,10.6,10.6
					c4.9,5.3,4.4,13.8-1.1,19.4l-4.1,4.1c-5.3,5.4-10.7,10.7-16,16.1c-3.3,3.2-7,5-10.7,5c0,0-0.1,0-0.1,0c-3.8,0-7.6-1.8-10.8-5.2
					c-3.1-3.2-6.3-6.3-9-8.9c-3.5-3.3-8-3.9-12.1-1.5c-8.6,5-17.7,9.1-26.9,12.1c-1.4,0.5-2.8,0.9-4.2,1.3c-1.2,0.4-2.5,0.7-3.7,1.1
					c-4.4,1.4-7,5-7.1,9.5l0,0.2c-0.1,3.9-0.1,7.9,0,11.9c0.2,5.2-1.2,9.3-3.9,12.2c-2.8,2.8-6.8,4.2-12,4.2
					c-8.7-0.1-17.5,0-27.1,0.1C483.2,598.7,483.1,598.7,483.1,598.7z M443.6,552.9c1.1,0.4,2.2,0.8,3.4,1.2c4.4,1.5,9,3.1,13.6,4.5
					c6,1.8,9.8,6.5,9.8,11.9c0,5.6,0,9.9,0,13.9c0.1,7.5,5.3,12.4,12.9,12.3c9.6-0.1,18.5-0.2,27.2-0.1c0.1,0,0.1,0,0.2,0
					c4.5,0,8-1.2,10.3-3.6c2.4-2.4,3.5-6,3.4-10.7c-0.1-4-0.1-8.1,0-12l0-0.2c0.1-5.4,3.3-9.7,8.5-11.4c1.2-0.4,2.5-0.8,3.8-1.1
					c1.4-0.4,2.8-0.8,4.1-1.3c9.1-3,18-7.1,26.6-12c4.9-2.8,10.5-2.1,14.6,1.8c2.7,2.6,5.9,5.7,9,8.9c2.9,3,6.1,4.5,9.3,4.6
					c3.3,0,6.5-1.5,9.4-4.4c5.4-5.3,10.7-10.7,16-16.1l4.1-4.1c4.8-4.8,5.3-12.1,1.1-16.5c-3.6-3.8-7.3-7.4-10.5-10.5
					c-3.8-3.6-5-9-2.9-13.6c0.5-1.2,1.2-2.4,1.8-3.5c0.4-0.8,0.9-1.6,1.3-2.4c0.6-1.2,1.2-2.5,1.7-3.7c0.2-0.4,0.4-0.9,0.6-1.3
					l-1.4-3.4c-1.4,2.7-2.7,5.3-4.1,8l-1.9,3.7c-3.5,6.9-2.1,13.8,3.9,19.4c2.6,2.5,5.4,5.2,8.5,8.4c3.9,4,4,8.8,0.1,12.8
					c-6.1,6.3-12.9,13.2-21.3,21.6c-3.3,3.3-8.5,3.3-12.1,0c-1.3-1.2-2.6-2.5-3.8-3.7c-0.5-0.5-1.1-1.1-1.6-1.6
					c-0.6-0.6-1.2-1.2-1.8-1.8c-1.2-1.2-2.4-2.5-3.7-3.6c-4.8-4.4-12-5.2-17.6-2c-8.7,5-17.7,9.1-26.8,12.1
					c-1.3,0.4-2.6,0.8-3.9,1.2c-1.2,0.3-2.4,0.7-3.5,1c-6.4,2.1-10.5,8-10.5,15c0,4.2,0.1,9,0,13.6c-0.1,5.4-3.9,8.9-9.4,8.9
					c-0.7,0-1.4,0-2.1,0c-5.4,0-10.8,0-16.1,0.1c-3.1,0-6.3,0-9.4,0.1l-0.1,0c-2.4,0-5.1,0-7.3-1.8c-2.2-1.8-3.3-3.9-3.4-6.4
					c0-2.1,0-4.2,0-6.3c0-2.9,0-5.8-0.1-8.7c-0.1-6.7-4.6-12.4-11.2-14.3c-2.6-0.8-5.2-1.6-7.7-2.4c-1.7-0.6-3.5-1.1-5.2-1.7
					c-0.5-0.2-1-0.2-1.6-0.3c-0.2,0-0.4,0-0.6-0.1l-1.1,0.4L443.6,552.9z"/>
			</g>
		</g>
		<g>
			<g>
				<path class="st2" d="M368,367.4c0.8,1.8,1.6,3.6,2.5,5.4c-0.6,1.4-1.1,2.7-1.7,4.1c-1.7,0.7-3.5,1.5-5.2,2.2
					c0.6-1.9,1-3.8,1.7-5.6C366,371.4,367.1,369.5,368,367.4z"/>
			</g>
			<g>
				<path class="st2" d="M361.9,380.9l0.6-2.1c0.2-0.6,0.3-1.1,0.5-1.7c0.4-1.3,0.7-2.7,1.2-4c0.6-1.5,1.3-2.9,1.9-4.3
					c0.3-0.6,0.6-1.2,0.9-1.8l0.9-2l3.6,7.8l-2,4.9L361.9,380.9z M368,369.9c-0.6,1.3-1.3,2.7-1.8,4c-0.4,1.1-0.8,2.3-1.1,3.5
					l2.9-1.2l1.4-3.3L368,369.9z"/>
			</g>
		</g>
		<g>
			<g>
				<path class="st2" d="M584.6,273.6c-2-1-3.9-2.1-5.9-3.1c-4.7-2.3-9.5-4.5-14.2-6.8c-1.1-0.6-1.7-0.3-2.2,0.9
					c-2.6,6.4-5.2,12.8-7.9,19.2c-0.2,0.6-0.5,1.2-0.7,1.8c-0.2-0.1-0.3-0.1-0.5-0.2c0.2-0.5,0.3-1.1,0.5-1.6
					c2.5-6.2,5-12.4,7.6-18.6c0.7-1.6,1.1-2.9-1.1-3.4c-0.1,0-0.2-0.2-0.5-0.7c1.1,0.3,1.9,0.6,2.8,0.8c0.4-0.7,0.8-1.3,1.2-2
					c0.1,0,0.2,0.1,0.3,0.1c-0.2,0.7-0.4,1.4-0.5,2.1c7.2,3.5,14.4,7,21.6,10.5C584.8,273.1,584.7,273.4,584.6,273.6z"/>
			</g>
			<g>
				<path class="st2" d="M554.2,286.9l-2.4-0.8l0.5-1.5c0.1-0.4,0.2-0.8,0.4-1.1l1.7-4.2c1.9-4.7,3.9-9.6,5.9-14.4
					c0.2-0.4,0.6-1.4,0.4-1.6c0,0-0.1-0.2-0.9-0.4c-0.5-0.1-0.7-0.5-0.8-0.7c-0.1-0.1-0.1-0.2-0.2-0.4l-1.8-2.5l5,1.4l1.2-2l2,0.6
					l-0.6,2.3l21.8,10.6L585,275l-1-0.5c-0.6-0.3-1.2-0.6-1.8-1c-1.3-0.7-2.7-1.4-4-2.1c-2.5-1.2-5-2.4-7.5-3.6
					c-2.3-1.1-4.5-2.2-6.8-3.2c-0.3-0.2-0.5-0.2-0.5-0.2h0c0,0-0.1,0.1-0.3,0.6c-1.9,4.8-3.9,9.6-5.8,14.3L554.2,286.9z"/>
			</g>
		</g>
		<g>
			<g>
				<path class="st2" d="M658.2,356.9c-2.4,0.9-4.7,1.9-7.1,2.8c-0.1-0.1-0.1-0.3-0.2-0.4c2.2-1,4.3-1.9,6.6-2.9
					c-3.9-9.3-7.7-18.4-11.5-27.5c0.2-0.1,0.5-0.2,0.7-0.3c3.9,9.1,7.8,18.2,11.9,27.8c2.2-1.2,4.1-2.3,6-3.3
					c0.1,0.3,0.2,0.6,0.4,0.9c-2.2,1-4.3,2-6.5,2.9C658.4,356.8,658.3,356.9,658.2,356.9z"/>
			</g>
			<g>
				<path class="st2" d="M650.6,361l-1-2.2l6.6-2.9l-11.5-27.5l2.6-1.1l11.8,27.7l6-3.3l1.2,2.8l-7.5,3.4c0,0-0.1,0-0.1,0l-0.1,0
					L650.6,361z"/>
			</g>
		</g>
		<g>
			<g>
				<path class="st2" d="M329.4,374.1c1.9-5.3,3.7-10.6,5.7-16c-0.7-0.4-1.3-0.7-2-1.1c0-0.1,0-0.2,0.1-0.3c0.7,0.2,1.4,0.4,2.3,0.6
					c1.4-2.8,2.7-5.7,4.1-8.6c0.1,0,0.3,0.1,0.4,0.1c-0.3,0.8-0.5,1.6-0.9,2.4c-0.7,1.6-1.5,3.2-2.3,4.8c-0.7,1.3-0.3,1.9,1,2.5
					c6.4,2.5,12.7,5.2,19.1,7.8c0.6,0.2,1.2,0.5,1.8,0.7c-0.1,0.2-0.1,0.3-0.2,0.5c-0.6-0.2-1.2-0.3-1.7-0.6
					c-6.1-2.5-12.3-5-18.4-7.5c-2.6-1.1-2.7-1.1-3.7,1.7c-1.3,3.6-2.5,7.2-3.8,10.8c-0.3,0.9-0.7,1.7-1.1,2.6
					C329.7,374.2,329.6,374.1,329.4,374.1z"/>
			</g>
			<g>
				<path class="st2" d="M330.5,375.6l-2.4-0.9l5.7-16.2l-1.9-1.1l0.4-2.1l2.5,0.6l4.1-8.7l2.2,0.8l-0.3,1c-0.1,0.2-0.2,0.5-0.2,0.7
					c-0.2,0.6-0.4,1.2-0.6,1.7c-0.6,1.4-1.4,3.2-2.3,4.9c-0.2,0.5-0.2,0.6-0.2,0.6l0,0c0,0,0.1,0.2,0.7,0.4
					c4.7,1.9,9.5,3.9,14.1,5.7l7.6,3.1l-0.8,2.4l-1.5-0.5c-0.4-0.1-0.8-0.3-1.2-0.4c-3.9-1.6-7.9-3.2-11.8-4.8l-6.6-2.7
					c-0.7-0.3-1.3-0.6-1.6-0.6c-0.2,0.3-0.5,1.1-0.7,1.7c-0.8,2.2-1.5,4.3-2.3,6.5c-0.5,1.4-1,2.8-1.5,4.3c-0.2,0.6-0.5,1.2-0.7,1.9
					c-0.1,0.3-0.2,0.5-0.3,0.8L330.5,375.6z"/>
			</g>
		</g>
		<g>
			<g>
				<path class="st2" d="M356.8,530.4c-1.3-1.8-2.8-3.6-4-5.5c-2.7-4.2-4.9-8.9-8.1-12.7c-2.7-3.2-3.4-7.1-5.3-10.5
					c-0.2-0.4-0.3-0.8-0.5-1.2c0-0.1,0.1-0.2,0.3-0.6c5.2,10.7,11.3,20.6,18.2,30.1C357.2,530.1,357,530.2,356.8,530.4z"/>
			</g>
			<g>
				<path class="st2" d="M356.6,531.8L356,531c-0.4-0.6-0.8-1.1-1.3-1.7c-0.9-1.2-1.9-2.5-2.8-3.9c-0.9-1.5-1.8-3-2.7-4.4
					c-1.6-2.8-3.3-5.7-5.3-8.1c-1.8-2.1-2.7-4.4-3.6-6.7c-0.6-1.4-1.1-2.7-1.8-3.9c-0.2-0.4-0.4-0.9-0.5-1.2l0-0.1
					c-0.1-0.4,0-0.8,0.1-1c0-0.1,0.1-0.2,0.1-0.3l0.9-2.1l1,2.1c5.1,10.4,11,20.2,18.1,29.9l0.6,0.9L356.6,531.8z"/>
			</g>
		</g>
		<g>
			<g>
				<path class="st2" d="M623.7,483.7c-0.7-1.8-1.5-3.5-2.2-5.3c0.3-0.7,0.6-1.3,0.9-2c1.7-0.7,3.5-1.5,5.2-2.2
					c0.1,0.1,0.2,0.2,0.2,0.3C626.5,477.6,625.1,480.6,623.7,483.7z"/>
			</g>
			<g>
				<path class="st2" d="M623.7,486.3l-3.3-7.9l1.2-2.8l6.3-2.7l0.5,0.6c0.4,0.4,0.5,0.9,0.3,1.3c-1.2,2.7-2.4,5.4-3.6,8.2
					L623.7,486.3z M622.6,478.4l1.1,2.7c0.8-1.7,1.5-3.4,2.3-5.2l-2.9,1.2L622.6,478.4z M626.9,474.1
					C626.9,474.1,626.9,474.1,626.9,474.1C626.9,474.1,626.9,474.1,626.9,474.1z"/>
			</g>
		</g>
		<g>
			<g>
				<path class="st2" d="M335.1,492.4c-1.7-4.4-3.2-9-5.2-13.3c-1.7-3.4-1.7-7.1-2.1-10.8c0.2,0.5,0.5,0.9,0.7,1.4
					c1.8,5.5,3.4,11.1,5.3,16.6c0.7,1.9,1.8,3.7,2.7,5.6C336,492.1,335.5,492.2,335.1,492.4z"/>
			</g>
			<g>
				<path class="st2" d="M334.5,493.8l-0.4-1c-0.5-1.3-1-2.7-1.5-4.1c-1.1-3.1-2.3-6.2-3.7-9.1c-1.4-2.9-1.7-5.9-2-8.8
					c-0.1-0.8-0.1-1.5-0.2-2.3l-0.7-6.2l2.7,5.6c0.1,0.1,0.1,0.3,0.2,0.4c0.2,0.3,0.4,0.7,0.5,1.1c0.6,1.8,1.1,3.6,1.7,5.4
					c1.1,3.7,2.3,7.4,3.6,11.1c0.4,1.2,1.1,2.4,1.7,3.7c0.3,0.6,0.6,1.2,0.9,1.8l0.5,1L334.5,493.8z"/>
			</g>
		</g>
		<g>
			<g>
				<path class="st2" d="M690.4,434.7c-2.8,1.1-5.3,2-7.9,3c-0.1-0.2-0.2-0.4-0.2-0.5c4.2-1.8,8.3-3.6,12.5-5.3
					c0.1,0.2,0.2,0.3,0.2,0.5c-1.2,0.7-2.5,1.3-3.9,2.1c1.8,4.4,3.6,8.8,5.4,13.1c-0.2,0.1-0.4,0.2-0.7,0.3
					C694.1,443.4,692.3,439.1,690.4,434.7z"/>
			</g>
			<g>
				<polygon class="st2" points="695.4,449.1 689.8,436 682,439 681,436.6 695.3,430.5 696.5,432.7 692.5,434.8 697.9,448 				"/>
			</g>
		</g>
		<g>
			<g>
				<path class="st2" d="M667,379.6c0.9,4,1.8,8,2.5,12c0.8,4.6,1.4,9.2,2.1,13.7c0,0.2-0.1,0.4-0.1,0.6c-0.3,0.1-0.6,0.2-0.9,0.3
					c0.1-0.3,0.2-0.7,0.2-1c-1.6-8.3-3.2-16.7-4.8-25c-0.1-0.5,0.1-1.1,0.1-1.6c0.2,0.2,0.4,0.3,0.6,0.5
					C667,379.3,667,379.4,667,379.6z"/>
			</g>
			<g>
				<path class="st2" d="M669.4,407.8l0.3-1.7c0-0.1,0.1-0.3,0.1-0.4c0-0.1,0.1-0.2,0.1-0.3c-0.7-3.8-1.4-7.6-2.2-11.4
					c-0.9-4.5-1.7-9-2.6-13.5c-0.1-0.5,0-1,0-1.5c0-0.2,0-0.3,0.1-0.5l0.2-1.8l2.4,1.8l0.2,0.9c0.3,1.2,0.5,2.4,0.8,3.6
					c0.6,2.7,1.2,5.6,1.7,8.4c0.6,3.3,1.1,6.7,1.6,10c0.2,1.3,0.4,2.5,0.6,3.8c0.1,0.3,0,0.6-0.1,0.8l-0.1,0.7L669.4,407.8z"/>
			</g>
		</g>
		<g>
			<g>
				<path class="st2" d="M621.4,548.9c6.1-7.2,12.1-14.3,18-21.3C639.3,529.6,624.8,546.9,621.4,548.9z"/>
			</g>
			<g>
				<path class="st2" d="M616.7,552.9l23.8-28.1l-0.1,3c-0.1,2.7-15.3,20.2-18.5,22.1L616.7,552.9z"/>
			</g>
		</g>
		<g>
			<g>
				<path class="st2" d="M466,252.9c-9,2.4-17.9,4.8-26.9,7.2C447.8,256.5,456.8,254.3,466,252.9z"/>
			</g>
			<g>
				<path class="st2" d="M439.4,261l-0.7-1.9c7.9-3.3,16.8-5.6,27.1-7.2l0.4,2L439.4,261z"/>
			</g>
		</g>
		<g>
			<g>
				<path class="st2" d="M499,600.4c-9.3,0.4-18.6-0.1-27.8-2C480.4,599,489.7,599.7,499,600.4z"/>
			</g>
			<g>
				<path class="st2" d="M493,601.5c-7.7,0-15-0.7-22.1-2.1l0.3-2l27.8,2l0,2C497,601.5,495,601.5,493,601.5z"/>
			</g>
		</g>
		<g>
			<g>
				<path class="st2" d="M512,599.7c9.2-1.5,18.3-3,27.5-4.5C530.6,597.8,521.4,599.4,512,599.7z"/>
			</g>
			<g>
				<path class="st2" d="M512.1,600.7l-0.2-2l27.5-4.5l0.5,2C530.3,598.9,521.2,600.4,512.1,600.7z"/>
			</g>
		</g>
		<g>
			<g>
				<path class="st2" d="M402.4,278.1c7.6-5.4,15.7-9.8,24.4-13.2C418.7,269.3,410.5,273.7,402.4,278.1z"/>
			</g>
			<g>
				<path class="st2" d="M402.8,279l-1.1-1.7c7.4-5.3,15.7-9.8,24.7-13.3l0.9,1.9L402.8,279z"/>
			</g>
		</g>
		<g>
			<g>
				<path class="st2" d="M589.3,574.3c7.5-5.5,15-11,22.5-16.5C605,564.2,597.4,569.6,589.3,574.3z"/>
			</g>
			<g>
				<path class="st2" d="M589.8,575.2l-1.1-1.7l22.5-16.5l1.3,1.6C605.9,564.8,598.5,570.2,589.8,575.2z"/>
			</g>
		</g>
		<g>
			<g>
				<path class="st2" d="M659.3,491.8c-3.3,8.6-7.3,16.9-12.5,24.6C651,508.2,655.2,500,659.3,491.8z"/>
			</g>
			<g>
				<path class="st2" d="M647.7,517l-1.8-1l12.5-24.6l1.9,0.8C656.7,501.6,652.6,509.7,647.7,517z"/>
			</g>
		</g>
		<g>
			<g>
				<path class="st2" d="M669,459.9c-1.4,9.2-4.1,18.1-7.7,26.7C663.9,477.7,666.5,468.8,669,459.9z"/>
			</g>
			<g>
				<path class="st2" d="M662.3,487l-1.9-0.7l7.7-26.7l2,0.4C668.7,468.7,666.2,477.5,662.3,487z"/>
			</g>
		</g>
		<g>
			<g>
				<path class="st2" d="M431.9,587.7c8.8,2.8,17.6,5.5,26.4,8.3C449.1,594.3,440.4,591.3,431.9,587.7z"/>
			</g>
			<g>
				<path class="st2" d="M458.1,596.9c-8-1.4-16.5-4-26.6-8.3l0.7-1.9l26.4,8.3L458.1,596.9z"/>
			</g>
		</g>
		<g>
			<g>
				<path class="st2" d="M635.7,480.5c8.4,3.4,16.8,6.9,25.2,10.3c0,0.1-0.1,0.2-0.1,0.3c-8.4-3.4-16.8-6.9-25.2-10.3
					C635.7,480.7,635.7,480.6,635.7,480.5z"/>
			</g>
			<g>
				<polygon class="st2" points="661.4,492.4 634.3,481.3 635.2,479.1 662.3,490.2 				"/>
			</g>
		</g>
		<g>
			<g>
				<path class="st2" d="M440,562.8c-3.4,8.4-6.9,16.8-10.3,25.2c-0.1,0-0.2-0.1-0.3-0.1c3.4-8.4,6.9-16.8,10.3-25.2
					C439.8,562.7,439.9,562.7,440,562.8z"/>
			</g>
			<g>
				<polygon class="st2" points="430.3,589.3 428.1,588.4 439.1,561.3 441.3,562.2 				"/>
			</g>
		</g>
		<g>
			<g>
				<path class="st2" d="M399.4,570.3c2,1.2,4,2.3,6,3.5c4.4,2.5,8.9,5,13.3,7.4c0.4,0.2,0.8,0.5,1.3,0.9c-0.4,0.1-0.6,0.3-0.7,0.2
					c-6.4-3.6-12.7-7.3-19.1-10.9C399.9,571.2,399.7,570.7,399.4,570.3L399.4,570.3z"/>
			</g>
			<g>
				<path class="st2" d="M419.3,583.4c-0.2,0-0.4,0-0.5-0.1c-7.1-4-13.1-7.4-19.1-10.9c-0.5-0.3-0.7-0.8-0.9-1.2c0,0,0,0,0,0
					l-1.4-0.8l2.5-1.3l0.4,0.7l1.5,0.9c1.4,0.8,2.7,1.6,4.1,2.4c2.6,1.5,5.2,2.9,7.8,4.4c1.8,1,3.7,2,5.5,3.1
					c0.3,0.2,0.6,0.4,0.9,0.6c0.1,0.1,0.3,0.2,0.5,0.3l1.7,1.2l-2,0.7c-0.1,0-0.2,0.1-0.3,0.1C419.9,583.3,419.6,583.4,419.3,583.4z
					"/>
			</g>
		</g>
		<g>
			<g>
				<path class="st2" d="M526.4,252.8c0.3-0.2,0.6-0.5,0.8-0.5c6.7,1.5,13.3,3.1,19.9,4.6c0.1,0,0.1,0.2,0.4,0.5
					C540.3,255.8,533.3,254.3,526.4,252.8C526.4,252.7,526.4,252.8,526.4,252.8z"/>
			</g>
			<g>
				<path class="st2" d="M549.8,259l-23.2-5.2l-0.8,0.5l-0.9-3l1.3,0.3c0.3-0.2,0.7-0.4,1.2-0.3c6.7,1.5,13.3,3.1,19.9,4.6
					c0.5,0.1,0.7,0.5,0.8,0.7c0,0.1,0.1,0.2,0.2,0.3L549.8,259z M546.9,257.9C546.9,257.9,546.9,257.9,546.9,257.9
					C546.9,257.9,546.9,257.9,546.9,257.9z"/>
			</g>
		</g>
		<g>
			<g>
				<path class="st2" d="M667,379.6c0-0.2-0.1-0.4-0.1-0.6c-1-2.1-2-4.3-2.9-6.4c-0.2-0.6-0.2-1.3-0.3-2.2c2.1,4.9,4.2,9.6,6.2,14.2
					c-0.1,0-0.1,0.1-0.2,0.1C668.9,383.1,668,381.4,667,379.6z"/>
			</g>
			<g>
				<path class="st2" d="M669.4,386.2l-3.3-6.4l-0.1-0.4l-0.7-1.6c-0.7-1.5-1.4-3.1-2.1-4.7c-0.2-0.6-0.3-1.1-0.3-1.7
					c0-0.2,0-0.5-0.1-0.8l-0.8-6.9l9.4,21.5L669.4,386.2z"/>
			</g>
		</g>
		<g>
			<g>
				<path class="st2" d="M625.7,280.1c-2-4.7-3.9-9.4-5.9-14.2c0.2-0.1,0.3-0.1,0.5-0.2c2,4.7,3.9,9.4,5.9,14.2
					C626,280,625.8,280,625.7,280.1z"/>
			</g>
			<g>
				<polygon class="st2" points="625.1,281.4 618.4,265.4 620.8,264.4 627.5,280.5 				"/>
			</g>
		</g>
		<g>
			<g>
				<path class="st2" d="M678.3,405.8c-2-4.7-3.9-9.4-5.9-14c0.1,0,0.2-0.1,0.3-0.1c1.9,4.7,3.9,9.4,5.8,14.1
					C678.5,405.7,678.4,405.8,678.3,405.8z"/>
			</g>
			<g>
				<polygon class="st2" points="678,407 677.4,406.2 671.1,391.2 673.3,390.3 679.9,406.3 				"/>
			</g>
		</g>
		<g>
			<g>
				<path class="st2" d="M634.7,300.9c-1.9-4.7-3.8-9.4-5.7-14.1c-0.1,0-0.2,0.1-0.3,0.1c2,4.7,3.9,9.4,5.9,14
					C634.6,300.9,634.7,300.9,634.7,300.9z"/>
			</g>
			<g>
				<polygon class="st2" points="634,302.2 627.4,286.3 629.6,285.4 636.1,301.5 				"/>
			</g>
		</g>
		<g>
			<g>
				<path class="st2" d="M637.5,307.8c2,4.7,4,9.4,6.1,14.1c0,0,0,0,0,0c-1.9-4.7-3.9-9.5-5.8-14.2
					C637.7,307.7,637.6,307.7,637.5,307.8z"/>
			</g>
			<g>
				<polygon class="st2" points="643,323.2 642.6,322.3 636.2,307.3 637.1,306.9 637.5,307.8 637.5,307.8 637.1,306.8 638.3,306.3 
					644.9,322.4 				"/>
			</g>
		</g>
		<g>
			<g>
				<path class="st2" d="M681.6,412.7c1.9,4.7,3.8,9.4,5.8,14c-0.1,0-0.1,0.1-0.2,0.1c-2-4.7-3.9-9.3-5.9-14
					C681.4,412.7,681.5,412.7,681.6,412.7z"/>
			</g>
			<g>
				<polygon class="st2" points="686.7,428.1 686.2,427.2 680,412.3 682.2,411.3 688.7,427.2 				"/>
			</g>
		</g>
		<g>
			<g>
				<path class="st2" d="M565.1,586.7c-2.1,1-4.2,2-6.4,2.9c-1.7,0.7-3.5,1.3-5.3,2c-0.4,0.1-0.9,0.1-1.4-0.3
					c3.2-1.2,6.3-2.4,9.5-3.5C562.7,587.3,563.9,587.1,565.1,586.7C565.1,586.7,565.1,586.7,565.1,586.7z"/>
			</g>
			<g>
				<path class="st2" d="M552.9,592.6c-0.4,0-1-0.1-1.6-0.5l-1.5-1.1l4.5-1.7c2.3-0.9,4.6-1.7,6.9-2.5c0.8-0.3,1.7-0.5,2.5-0.7
					c0.2-0.1,0.4-0.1,0.7-0.2c0.1,0,0.2-0.1,0.3-0.1l1-0.4l0.9,2.1l-1.1,0.3c-0.1,0-0.2,0.1-0.3,0.1c-0.5,0.2-1,0.5-1.5,0.7
					c-1.5,0.7-3,1.4-4.5,2c-1.6,0.7-3.3,1.3-4.9,1.8l-0.5,0.2C553.5,592.6,553.2,592.6,552.9,592.6z"/>
			</g>
		</g>
		<g>
			<g>
				<path class="st2" d="M620.7,276.9c-3.9,2.1-7.8,4.2-11.8,6.4c-0.1-0.1-0.2-0.3-0.2-0.4C612.3,280.1,616.3,278.2,620.7,276.9z"/>
			</g>
			<g>
				<path class="st2" d="M608.5,284.6l-1.2-2.1l0.7-0.5c3.5-2.6,7.5-4.6,12.3-6.1l0.8,1.9L608.5,284.6z"/>
			</g>
		</g>
		<g>
			<g>
				<path class="st2" d="M565.1,586.7C565.1,586.7,565.1,586.7,565.1,586.7c0.1-0.1,0.1-0.4,0.2-0.4c3.8-1.8,7.6-3.5,11.7-5.5
					c-0.2,0.6-0.3,0.9-0.4,1c-3.5,1.6-7.1,3.3-10.6,4.9C565.7,586.8,565.4,586.7,565.1,586.7z"/>
			</g>
			<g>
				<path class="st2" d="M565.2,589.6l-1.6-4l0.9,0c0.1-0.1,0.2-0.2,0.4-0.3c3.5-1.6,7-3.3,10.7-5l3.3-1.5l-1,2.4
					c-0.1,0.2-0.1,0.4-0.2,0.5c-0.1,0.4-0.3,0.8-0.8,1.1c-3.4,1.6-7,3.2-10.7,4.9c-0.2,0.1-0.3,0.1-0.5,0.1L565.2,589.6z"/>
			</g>
		</g>
		<g>
			<g>
				<path class="st2" d="M644,362.3c-4.7,1.9-9.3,3.9-14,5.8c0,0.1,0.1,0.2,0.1,0.3c4.7-1.9,9.3-3.8,14-5.7
					C644.1,362.6,644,362.4,644,362.3z"/>
			</g>
			<g>
				<polygon class="st2" points="629.6,369.7 628.6,367.5 644.5,361 645.5,363.2 				"/>
			</g>
		</g>
		<g>
			<g>
				<path class="st2" d="M568.7,247.6c1.7-4.2,3.5-8.5,5.2-12.7c0.1,0,0.2,0.1,0.3,0.1c-1.7,4.2-3.5,8.5-5.2,12.7
					C568.8,247.7,568.8,247.6,568.7,247.6z"/>
			</g>
			<g>
				<polygon class="st2" points="569.5,249.1 567.3,248.2 573.3,233.6 575.5,234.4 				"/>
			</g>
		</g>
		<g>
			<g>
				<path class="st2" d="M308.1,346.3c4.2,1.7,8.4,3.4,12.6,5.2c0,0.1-0.1,0.2-0.1,0.3c-4.2-1.7-8.4-3.4-12.6-5.2
					C308,346.5,308,346.4,308.1,346.3z"/>
			</g>
			<g>
				<polygon class="st2" points="321.2,353.1 306.7,347.1 307.5,344.9 322,350.9 				"/>
			</g>
		</g>
		<g>
			<g>
				<path class="st2" d="M658.2,356.9c0.1,0,0.2-0.1,0.3-0.1c0.4,0.6,0.9,1.2,1.2,1.9c1,2.4,1.9,4.8,2.8,7.1
					c-0.2,0.1-0.4,0.2-0.6,0.2c-0.6-1.2-1.3-2.4-1.8-3.6C659.5,360.7,658.9,358.8,658.2,356.9z"/>
			</g>
			<g>
				<path class="st2" d="M661.5,367.4l-0.4-0.9c-0.2-0.4-0.4-0.7-0.6-1.1c-0.4-0.8-0.9-1.7-1.2-2.6c-0.5-1.3-1-2.6-1.4-3.9
					c-0.2-0.6-0.4-1.1-0.6-1.7l-0.3-0.9l0.9-0.4c0.1-0.1,0.3-0.1,0.4-0.2l0.7-0.2l0.4,0.6c0.1,0.2,0.3,0.4,0.4,0.5
					c0.3,0.5,0.7,0.9,0.9,1.5c0.7,1.7,1.4,3.5,2,5.2l1.1,2.9L661.5,367.4z"/>
			</g>
		</g>
		<g>
			<g>
				<path class="st2" d="M419.3,612.5c1.7-4.1,3.4-8.2,5-12.3c0.1,0,0.2,0.1,0.2,0.1c-1.7,4.1-3.4,8.2-5,12.3
					C419.4,612.5,419.3,612.5,419.3,612.5z"/>
			</g>
			<g>
				<polygon class="st2" points="420.1,613.9 417.9,613 423.7,598.8 425.9,599.8 				"/>
			</g>
		</g>
		<g>
			<g>
				<path class="st2" d="M673.3,495.9c4.1,1.7,8.2,3.4,12.3,5c0,0.1-0.1,0.2-0.1,0.3c-4.1-1.7-8.2-3.4-12.3-5
					C673.2,496.1,673.3,496,673.3,495.9z"/>
			</g>
			<g>
				<polygon class="st2" points="686.1,502.5 671.9,496.7 672.7,494.5 687,500.3 				"/>
			</g>
		</g>
		<g>
			<g>
				<path class="st2" d="M310.2,430.6c1.2,3.1,2.5,6.3,3.7,9.4c0,0,0.1,0,0.1,0c-1.2-3.1-2.5-6.3-3.7-9.4
					C310.3,430.6,310.2,430.6,310.2,430.6z"/>
			</g>
			<g>
				<polygon class="st2" points="313.4,441.3 312.9,440.4 308.9,430.2 310.8,429.1 315.3,440.6 				"/>
			</g>
		</g>
		<g>
			<g>
				<path class="st2" d="M320.1,454.2c-1.4-3.1-2.7-6.2-4.1-9.3c0,0,0,0,0,0C317.3,448,318.7,451.1,320.1,454.2
					C320.1,454.2,320.1,454.2,320.1,454.2z"/>
			</g>
			<g>
				<polygon class="st2" points="319.9,456.4 314.7,444.4 316.5,443.4 316.9,444.4 321.2,454.3 				"/>
			</g>
		</g>
		<g>
			<g>
				<path class="st2" d="M350.1,525.3c-1.4-3.1-2.8-6.3-3.8-8.5c1,2.3,2.3,5.5,3.6,8.6C349.9,525.3,350,525.3,350.1,525.3z"/>
			</g>
			<g>
				<polygon class="st2" points="349.4,526.7 348.9,525.7 345.3,517.1 347.2,516.3 351.4,525.8 				"/>
			</g>
		</g>
		<g>
			<g>
				<path class="st2" d="M325.8,468.4c-1.3-3.1-2.6-6.3-3.8-9.4c0.1,0,0.2-0.1,0.3-0.1c1.3,3.1,2.6,6.2,4,9.3
					C326.1,468.3,325.9,468.4,325.8,468.4z"/>
			</g>
			<g>
				<polygon class="st2" points="325.2,469.8 320.6,458.5 322.8,457.5 327.5,468.7 				"/>
			</g>
		</g>
		<g>
			<g>
				<path class="st2" d="M351.7,328.2c-1.8,2.9-3.6,5.9-5.3,8.8c-0.2-0.1-0.3-0.2-0.5-0.3c1.1-1.9,2.1-3.8,3.3-5.7
					c0.5-0.9,1.1-1.7,1.8-2.6C351.1,328.3,351.5,328.3,351.7,328.2C351.8,328.2,351.7,328.2,351.7,328.2z"/>
			</g>
			<g>
				<path class="st2" d="M346.8,338.4l-2.2-1.3l1.5-2.5c0.8-1.4,1.5-2.7,2.3-4c0.5-0.9,1.1-1.8,1.8-2.7c0.3-0.3,0.6-0.5,1-0.5
					l0.8-1.3l1.2,2.5l-0.6,0.5L346.8,338.4z"/>
			</g>
		</g>
		<g>
			<g>
				<path class="st2" d="M614.3,251.9c0.9,2.4,1.8,4.8,2.7,7.2c0,0,0.1,0,0.1,0c-0.9-2.4-1.8-4.8-2.6-7.3
					C614.4,251.8,614.3,251.8,614.3,251.9z"/>
			</g>
			<g>
				<polygon class="st2" points="616.5,260.4 616,259.5 613,251.3 615.1,250.5 618.4,259.7 				"/>
			</g>
		</g>
		<g>
			<g>
				<path class="st2" d="M701.9,461.3c-0.9-2.2-1.8-4.5-2.8-6.7c0.1-0.1,0.2-0.1,0.4-0.2c0.9,2.2,1.9,4.4,2.8,6.7
					C702.2,461.2,702,461.3,701.9,461.3z"/>
			</g>
			<g>
				<polygon class="st2" points="701.4,462.7 697.8,454.1 700,453.1 703.7,461.7 				"/>
			</g>
		</g>
		<g>
			<g>
				<path class="st2" d="M324.2,395.5c0.6-2.8,1.2-5.6,1.8-8.4c0.2,0,0.4,0.1,0.5,0.1c-0.1,0.5-0.1,1.1-0.2,1.6
					c-0.3,1.7-0.7,3.5-1.1,5.2C325.1,394.6,324.6,395,324.2,395.5C324.2,395.5,324.2,395.5,324.2,395.5z"/>
			</g>
			<g>
				<path class="st2" d="M324.9,397.3l-2-1.5l0.4-0.7l2-9.1l2.4,0.4l-0.1,1c0,0.2,0,0.3,0,0.5c0,0.4-0.1,0.8-0.1,1.2l-0.2,0.8
					c-0.3,1.5-0.6,3-1,4.4c-0.2,0.6-0.6,1.1-0.9,1.5c-0.1,0.1-0.1,0.1-0.2,0.2L324.9,397.3z"/>
			</g>
		</g>
		<g>
			<g>
				<path class="st2" d="M354.5,537.3c-1-2.4-1.9-4.8-2.8-7C352.6,532.5,353.6,534.9,354.5,537.3
					C354.6,537.3,354.5,537.3,354.5,537.3z"/>
			</g>
			<g>
				<polygon class="st2" points="353.9,538.5 353.6,537.7 350.8,530.7 352.7,529.9 356,538 				"/>
			</g>
		</g>
		<g>
			<g>
				<path class="st2" d="M335.1,492.4c0.4-0.2,0.8-0.4,1.3-0.5c0.6,1.6,1.1,3.3,1.7,4.9c-0.1,0.1-0.3,0.2-0.4,0.2
					C336.8,495.5,335.9,494,335.1,492.4z"/>
			</g>
			<g>
				<polygon class="st2" points="337.2,498.5 333.7,491.9 337,490.5 339.3,497.3 				"/>
			</g>
		</g>
		<g>
			<g>
				<path class="st2" d="M526.4,252.7c-2.1-0.3-4.2-0.5-6.6-0.9C521.6,251,525.3,251.6,526.4,252.7
					C526.4,252.8,526.4,252.7,526.4,252.7z"/>
			</g>
			<g>
				<path class="st2" d="M526.1,253.9l-0.2-0.2l-9.7-1.3l3.2-1.5c1.9-0.9,5.7-0.5,7.4,0.8l0.4,0.1l0.5,1.6L526.1,253.9z"/>
			</g>
		</g>
		<g>
			<g>
				<path class="st2" d="M363.9,558.5c0.6,1.5,1.2,3,1.8,4.5c-0.1,0-0.1,0.1-0.2,0.1c-0.7-1.5-1.3-2.9-2-4.4
					C363.7,558.5,363.8,558.5,363.9,558.5z"/>
			</g>
			<g>
				<polygon class="st2" points="365,564.3 362.2,558 364.5,557.1 367.1,563.4 				"/>
			</g>
		</g>
		<g>
			<g>
				<path class="st2" d="M306.2,421.2c0.7,1.5,1.4,2.9,2.1,4.4c-0.1,0-0.2,0.1-0.3,0.1C307.4,424.2,306.9,422.7,306.2,421.2
					C306.3,421.2,306.3,421.2,306.2,421.2z"/>
			</g>
			<g>
				<polygon class="st2" points="307.4,427.1 305.7,422.5 304.7,420.2 306.2,420.1 306.2,421.2 306.2,420.1 307,420.1 307.3,420.8 
					307.6,421.7 309.7,426.1 				"/>
			</g>
		</g>
		<g>
			<g>
				<path class="st2" d="M399.5,570.3c-1.3-0.6-2.6-1.3-4-1.9c0.2-0.3,0.3-0.5,0.5-0.8C397.1,568.5,398.3,569.4,399.5,570.3
					C399.4,570.3,399.5,570.3,399.5,570.3z"/>
			</g>
			<g>
				<path class="st2" d="M399.3,571.5l-0.5-0.4c0,0-0.1-0.1-0.1-0.1l-4.6-2.2l1.7-2.7l0.9,0.7c1,0.8,2.1,1.7,3.1,2.5l2,1
					L399.3,571.5z"/>
			</g>
		</g>
		<g>
			<g>
				<path class="st2" d="M445,549.3c3.4-8.2,6.7-16.4,10.1-24.6c0.2,0.1,0.3,0.1,0.5,0.2c-0.2,0.6-0.4,1.1-0.6,1.7
					c-2.8,6.8-5.5,13.6-8.4,20.4c-0.6,1.3-0.8,2.4,0.3,3.5c-0.4,0.2-0.9,0.3-1.3,0.5C445.3,550.4,445.1,549.9,445,549.3z"/>
			</g>
			<g>
				<path class="st2" d="M444.9,552.3l-1.1-3l10.6-25.8l2.4,0.8l-0.5,1.5c-0.1,0.4-0.3,0.8-0.4,1.2l-1.8,4.4
					c-2.1,5.2-4.3,10.7-6.6,16c-0.5,1.3-0.5,1.8,0.1,2.4l1.1,1.1L444.9,552.3z"/>
			</g>
		</g>
		<g>
			<g>
				<path class="st2" d="M600.1,421.9c-0.8-0.6-1.7-1.2-2.6-1.9c-0.1,3.9-0.2,7.8-0.5,11.6c-1,13.8-4.8,26.7-11.2,38.9
					c-6,11.6-14,21.7-24.1,30c-5.2,4.2-10.9,7.8-16.6,11.4c-5.8,3.7-12.2,6.2-18.8,8.1c-4.2,1.2-8.5,2.1-12.8,2.9
					c-10.3,1.9-20.7,1.9-31,0.5c-11.1-1.5-21.6-5-31.6-10c-14.4-7.3-26.2-17.5-35.7-30.5c-4.1-5.6-7.4-11.6-10.3-17.9
					c-5.8-12.8-8.8-26.2-8.9-40.2c-0.1-12.7,2-25.1,6.6-37c6.2-16,15.8-29.6,28.9-40.7c11.4-9.7,24.3-16.6,38.8-20.5
					c17.6-4.7,35.2-4.8,52.8,0c16.3,4.5,30.7,12.6,43.1,24.3c6.6,6.3,12.2,13.4,16.9,21.2c5,8.4,8.9,17.3,11,26.8
					c1.3,5.8,2.1,11.8,2.9,17.7c0.2,1.3,0.5,2.4,1.6,3.2c0.6,0.4,1.1,1,1.7,1.6C600.3,421.6,600.2,421.7,600.1,421.9z M559.9,450
					c0.1-0.2,0.2-0.4,0.2-0.6c0.6,0.3,1.2,0.5,1.8,0.8c7.2,3,14.4,5.9,21.6,8.9c1,0.4,1.8,0.7,2.4-0.8c4.6-12.1,6.7-24.7,6.3-37.6
					c-0.1-2.8,0.6-5.8-1.5-7.8c0.3-0.8,0.7-1.3,0.7-1.7c-0.8-6.1-2.1-12.2-4-18c-2.8-8.6-7.1-16.5-12.2-23.9
					c-1.5-2.2-3.2-4.3-4.9-6.5c-0.1,0.1-0.3,0.2-0.4,0.3c0.3,2.4,0.5,4.8,0.8,7.2c-0.2,0-0.4,0-0.7,0c-0.3-2.7-0.6-5.3-1-7.9
					c-0.1-0.7-0.4-1.4-0.8-1.9c-7.7-8.7-16.7-15.8-27-21.2c-2.6-1.4-5.3-2.5-8.2-3.8c-3.6,8.9-7.1,17.4-10.6,25.9
					c-0.1-0.1-0.3-0.1-0.4-0.2c0.2-0.6,0.5-1.2,0.7-1.8c3-7.4,6-14.8,9.1-22.1c0.7-1.7,0.3-2.3-1.4-2.9c-9.9-3.7-20.1-5.8-30.7-6.1
					c-10.4-0.3-20.7,0.8-30.6,3.9c-5.4,1.7-10.6,4-15.7,6.4c-8.9,4.3-16.8,10.2-23.9,17.1c-8.7,8.6-15.6,18.5-20.6,29.7
					c-0.7,1.5-0.4,2.1,1.1,2.7c7.5,3,15,6.1,22.5,9.2c0.5,0.2,1,0.5,1.6,0.8c-0.1,0.2-0.2,0.4-0.3,0.5c-8.6-3.5-17.2-7-26.2-10.7
					c-1.5,5.3-3.2,10.2-4.4,15.3c-4.2,18.2-2.6,36.1,3.4,53.7c2.3,6.6,5.5,12.8,9.4,18.7c10.6,16.1,24.5,28.2,42.2,35.9
					c1.5,0.6,2.1,0.4,2.7-1.1c2.9-7.2,5.9-14.4,8.8-21.6c0.2-0.6,0.5-1.1,0.7-1.7c0.2,0.1,0.4,0.2,0.5,0.2
					c-3.4,8.3-6.8,16.7-10.3,25.1c0.8,0.4,1.4,0.8,2,1c4.3,1.3,8.6,2.8,13,3.9c10.8,2.6,21.7,3,32.6,1.6c6-0.8,11.9-2.3,17.7-4
					c4.7-1.4,9.3-3.2,13.6-5.5c6.5-3.4,12.7-7.3,18.3-12.1c11.4-9.8,20.3-21.4,26.4-35.1c0.6-1.3,0.4-1.9-1-2.4
					c-7.2-2.9-14.4-5.9-21.6-8.8C561.2,450.5,560.5,450.2,559.9,450z"/>
			</g>
			<g>
				<path class="st2" d="M496.8,525.4c-4.7,0-9.5-0.3-14.4-1c-10.8-1.5-21.6-4.9-31.9-10.1c-14.3-7.2-26.4-17.6-36.1-30.8
					c-3.9-5.3-7.3-11.2-10.4-18.1c-5.8-12.8-8.9-26.4-9-40.6c-0.1-13,2.1-25.6,6.7-37.4c6.3-16.2,16.1-30,29.2-41.1
					c11.7-9.9,24.9-16.9,39.2-20.7c18-4.8,35.9-4.8,53.3,0c16.5,4.5,31.1,12.8,43.5,24.6c6.5,6.2,12.2,13.4,17.1,21.4
					c5.4,8.9,9.1,18,11.1,27.1c1.1,4.8,1.8,9.8,2.5,14.6c0.2,1.1,0.3,2.1,0.5,3.2c0.2,1.3,0.4,2,1.2,2.6c0.5,0.4,0.9,0.8,1.3,1.2
					c0.2,0.2,0.3,0.3,0.5,0.5l0.6,0.6l-1.5,2l-1.8-1.3c0,0.6,0,1.2-0.1,1.8c-0.1,2.7-0.2,5.3-0.3,7.9c-1,13.6-4.8,26.8-11.3,39.3
					c-6.2,12-14.4,22.2-24.4,30.3c-4.8,3.9-10.1,7.3-15.2,10.5l-1.5,0.9c-5.4,3.4-11.6,6.1-19.1,8.2c-3.8,1.1-7.9,2-12.9,3
					C508.2,524.9,502.6,525.4,496.8,525.4z M497,324c-8.7,0-17.5,1.2-26.3,3.5c-14,3.7-27,10.5-38.4,20.3
					c-12.8,10.9-22.5,24.5-28.6,40.3c-4.5,11.6-6.7,23.9-6.6,36.6c0.1,13.9,3.1,27.2,8.8,39.8c3.1,6.8,6.4,12.6,10.2,17.8
					c9.4,12.9,21.3,23.1,35.3,30.2c10.1,5.1,20.6,8.5,31.2,9.9c10.7,1.5,21,1.3,30.7-0.5c5-0.9,9.1-1.9,12.7-2.9
					c7.2-2.1,13.3-4.7,18.5-8l1.5-0.9c5.1-3.2,10.3-6.5,15-10.3c9.7-8,17.8-18,23.9-29.7c6.4-12.3,10.1-25.2,11.1-38.5
					c0.2-2.6,0.3-5.1,0.3-7.8c0-1.2,0.1-2.5,0.1-3.7l0-1.2c-0.3-0.6-0.4-1.3-0.5-2c-0.2-1.1-0.3-2.1-0.5-3.2
					c-0.7-4.8-1.4-9.7-2.5-14.5c-2-8.9-5.6-17.8-10.9-26.5c-4.7-7.9-10.4-14.9-16.7-21c-12.2-11.6-26.5-19.7-42.6-24.1
					C514.4,325.2,505.7,324,497,324z M496.3,520.4c-7.1,0-14-0.8-20.7-2.4c-3.2-0.8-6.4-1.8-9.5-2.8c-1.2-0.4-2.4-0.8-3.6-1.1
					c-0.5-0.2-1-0.4-1.4-0.6c-0.2-0.1-0.5-0.2-0.7-0.4l-0.9-0.4l0,0c-0.6,0-1.1-0.2-1.6-0.4c-17.5-7.7-31.8-19.9-42.6-36.3
					c-4.2-6.4-7.3-12.6-9.5-18.9c-6.3-18.3-7.5-36.6-3.4-54.2c0.8-3.5,1.8-6.8,2.9-10.4c0.5-1.6,1-3.3,1.5-4.9l0.3-1.1l0.6,0.2
					c0-0.6,0.2-1.2,0.4-1.7c5.1-11.3,12.1-21.4,20.8-30c7.6-7.5,15.5-13.2,24.1-17.3c6.1-2.9,11.1-5,15.9-6.5c9.5-3,19.6-4.3,30.9-4
					c10.5,0.3,20.9,2.4,31,6.1c0.5,0.2,1.1,0.4,1.6,0.8l0.1-0.2l1,0.5c0.9,0.4,1.8,0.8,2.7,1.2c1.9,0.9,3.7,1.7,5.5,2.6
					c10.5,5.5,19.6,12.7,27.3,21.4c0.4,0.5,0.8,1.2,1,2l0.6-0.4l0.6,0.7c0.5,0.7,1,1.3,1.6,2c1.1,1.4,2.3,2.9,3.4,4.5
					c5.6,8.1,9.6,16.1,12.3,24.2c1.9,5.8,3.3,11.9,4,18.2c0.1,0.6-0.2,1.1-0.4,1.6c0,0,0,0,0,0.1c1.4,1.8,1.3,4.1,1.3,6.2
					c0,0.6,0,1.2,0,1.8c0.4,13-1.7,25.8-6.3,38c-0.3,0.8-0.7,1.3-1.3,1.6c0.3,0.8,0,1.6-0.3,2.2c-6.1,13.6-15,25.5-26.6,35.4
					c-5.3,4.5-11.3,8.5-18.5,12.2c-4.4,2.3-9,4.1-13.8,5.5c-7,2-12.6,3.3-17.8,4C504.5,520.2,500.4,520.4,496.3,520.4z M462.1,511.7
					c0.4,0.2,0.7,0.4,1,0.5c1.2,0.4,2.4,0.7,3.6,1.1c3.1,1,6.2,2,9.4,2.7c10.3,2.5,21.2,3,32.3,1.6c5.1-0.7,10.7-1.9,17.5-3.9
					c4.6-1.4,9.1-3.2,13.4-5.4c7-3.6,12.9-7.5,18.1-12c11.4-9.8,20.2-21.4,26.1-34.7c0.2-0.5,0.2-0.7,0.2-0.7l0,0
					c0,0-0.1-0.1-0.6-0.3c-5.4-2.1-10.8-4.4-16-6.5l-8.5-3.5l1-2.4l1,0.3l7.3,3c5.4,2.2,10.8,4.4,16.2,6.6c0.3,0.1,0.7,0.3,0.8,0.3
					c0,0,0,0,0,0c0,0,0.1-0.1,0.2-0.5c4.5-11.9,6.6-24.5,6.2-37.2c0-0.6,0-1.3,0-1.9c0.1-2.1,0.1-4-1.2-5.2l-0.5-0.5l0.3-0.6
					c0.1-0.3,0.3-0.6,0.4-0.8c0.1-0.2,0.2-0.4,0.2-0.5c-0.8-6.1-2.1-12.1-4-17.8c-2.6-8-6.6-15.7-12-23.7c-1-1.4-2.1-2.9-3.2-4.2
					l0.6,5.6l-2.7,0.2l-0.4-3.1c-0.2-1.9-0.5-3.8-0.7-5.8c-0.1-0.6-0.3-1.1-0.6-1.4c-7.5-8.5-16.4-15.6-26.7-21
					c-1.7-0.9-3.5-1.7-5.4-2.6c-0.6-0.3-1.2-0.5-1.8-0.8l-10.6,25.9l-2.3-1l1.1-2.7c0.8-2,1.6-4,2.4-6c2.2-5.3,4.4-10.8,6.7-16.2
					c0.3-0.8,0.2-1,0.2-1c0,0-0.1-0.2-1-0.5c-9.9-3.7-20.1-5.7-30.3-6c-11.1-0.3-21,0.9-30.3,3.9c-4.7,1.5-9.6,3.5-15.6,6.4
					c-8.4,4-16.1,9.5-23.6,16.9c-8.5,8.4-15.4,18.3-20.4,29.4c-0.3,0.7-0.3,0.9-0.3,0.9c0,0,0.1,0.2,0.8,0.4
					c5.9,2.3,11.8,4.8,17.6,7.2l4.9,2c0.4,0.2,0.8,0.4,1.2,0.6l1.4,0.7l-1.2,2.3l-26-10.6c-0.4,1.3-0.8,2.6-1.2,3.9
					c-1.1,3.5-2.1,6.8-2.9,10.2c-3.9,17.3-2.8,35.2,3.4,53.1c2.1,6.1,5.1,12.2,9.2,18.4c10.6,16.1,24.6,28,41.7,35.6
					c0.7,0.3,0.9,0.3,0.9,0.3c0,0,0.2-0.1,0.4-0.8c2.1-5.3,4.4-10.8,6.5-16l3.4-8.4l2.4,1.1L462.1,511.7z"/>
			</g>
		</g>
		<g>
			<g>
				<path class="st2" d="M619.8,474.5c-7.4-3-14.7-6-22.1-9.1c0-0.1,0.1-0.3,0.1-0.4c0.4,0.1,0.8,0.1,1.1,0.3
					c6.5,2.6,12.9,5.3,19.4,8C618.9,473.5,619.3,474.1,619.8,474.5C619.8,474.5,619.8,474.5,619.8,474.5z"/>
			</g>
			<g>
				<path class="st2" d="M619,475.6l-0.1-0.4l-22.5-9.2l0.8-2.2l0.9,0.2c0.1,0,0.2,0,0.3,0.1c0.3,0.1,0.6,0.1,1,0.3l0.9,0.4
					c6.1,2.5,12.3,5,18.5,7.6c0.6,0.2,1,0.7,1.4,1.1c0.1,0.1,0.2,0.2,0.2,0.2l0.5,0.2l0,1.6L619,475.6z"/>
			</g>
		</g>
		<g>
			<g>
				
					<ellipse transform="matrix(0.379 -0.9254 0.9254 0.379 47.309 696.0349)" class="st2" cx="542.3" cy="312.8" rx="16.1" ry="0.2"/>
			</g>
			<g>
				<polygon class="st2" points="538.6,324.7 536.5,323.8 545.9,300.8 548.1,301.7 				"/>
			</g>
		</g>
		<g>
			<g>
				<path class="st2" d="M375.1,374.3c0.6,0,1.4-0.1,1.9,0.1c6.3,2.5,12.6,5.1,18.9,7.7c0.2,0.1,0.4,0.2,0.6,0.4
					c-0.1,0.2-0.1,0.3-0.2,0.5C389.2,380.1,382.1,377.2,375.1,374.3C375.1,374.3,375.1,374.3,375.1,374.3z"/>
			</g>
			<g>
				<path class="st2" d="M396.8,384.3l-0.9-0.4c-7-2.9-14-5.7-20.9-8.6l-1.2,0l0.4-1.5l0.4-0.8l0.7,0.3c0.1,0,0.2,0,0.3,0
					c0.5,0,1.1-0.1,1.7,0.2c5.5,2.2,11.2,4.5,16.6,6.8l2.3,0.9c0.3,0.1,0.5,0.3,0.6,0.4l0.8,0.6L396.8,384.3z"/>
			</g>
		</g>
		<g>
			<g>
				<path class="st2" d="M388.6,469.5c1.4-0.5,2.7-1,3.9-1.4c-0.8,1.7-3.5,1-3.9,3.6c-1.2-2.7-2.5-5.4-3.7-8.2
					c0.2-0.1,0.3-0.2,0.5-0.3c0.5,1,1.1,2,1.6,3C387.5,467.2,388,468.3,388.6,469.5z"/>
			</g>
			<g>
				<path class="st2" d="M389.2,475.3l-5.5-12.2l2.2-1.3l1,1.9c0.4,0.7,0.7,1.4,1.1,2.1c0.4,0.7,0.7,1.5,1.1,2.2l0.1,0.2l5.5-2
					l-1.2,2.3c-0.5,1-1.5,1.4-2.2,1.8c-1,0.4-1.4,0.6-1.5,1.5L389.2,475.3z"/>
			</g>
		</g>
		<g>
			<g>
				<path class="st2" d="M571.5,336.9c-0.6,4.5-1.3,8.9-1.9,13.4c-0.2,0-0.5-0.1-0.7-0.1c0.6-4.5,1.3-8.9,1.9-13.4
					C571,336.8,571.3,336.8,571.5,336.9z"/>
			</g>
			<g>
				<polygon class="st2" points="570.5,351.4 567.7,351 569.9,335.6 572.7,336 				"/>
			</g>
		</g>
		<g>
			<g>
				<path class="st2" d="M642.8,440.5c4.4,0.3,8.9,0.6,13.3,0.9c-4.5,0.7-8.9,0.3-13.3-0.4C642.7,440.8,642.7,440.7,642.8,440.5z"/>
			</g>
			<g>
				<path class="st2" d="M651.2,442.8c-3,0-5.9-0.4-8.7-0.8l-1-0.2l0.2-2.5l22.9,1.6l-8.5,1.4C654.5,442.7,652.9,442.8,651.2,442.8z
					"/>
			</g>
		</g>
		<g>
			<g>
				<path class="st2" d="M578.2,318.2c-1.7,4.1-3.3,8.1-5,12.2C572.7,329,575.8,320.5,578.2,318.2z"/>
			</g>
			<g>
				<path class="st2" d="M573.1,333.2l-0.9-2.4c-0.7-2,2.8-10.9,5.2-13.3l3.5-3.4L573.1,333.2z"/>
			</g>
		</g>
		<g>
			<g>
				<path class="st2" d="M588.9,301.1c-2.5,3.6-5,7.2-7.6,10.8c1.6-4.2,4.4-7.7,7.1-11.2C588.6,300.8,588.8,300.9,588.9,301.1z"/>
			</g>
			<g>
				<path class="st2" d="M577.3,319.3l3-7.8c1.6-4.1,4.2-7.5,6.8-10.8l1.2-1.5l2,1.7L577.3,319.3z"/>
			</g>
		</g>
		<g>
			<g>
				<path class="st2" d="M616.7,432.9c-3.8-2.2-7.6-4.4-11.4-6.7c0.1-0.2,0.3-0.5,0.4-0.7c3.8,2.3,7.6,4.5,11.3,6.8
					C616.9,432.5,616.8,432.7,616.7,432.9z"/>
			</g>
			<g>
				<polygon class="st2" points="617.2,434.3 603.9,426.6 605.3,424.2 618.3,432 				"/>
			</g>
		</g>
		<g>
			<g>
				<path class="st2" d="M635.8,439.9c-4.2-1.3-8.3-2.6-12.5-3.9c0.1-0.2,0.1-0.4,0.2-0.6c4.2,1.3,8.3,2.6,12.5,3.9
					C636,439.4,635.9,439.6,635.8,439.9z"/>
			</g>
			<g>
				<polygon class="st2" points="636.5,441.1 622.1,436.6 622.9,434 637.4,438.6 				"/>
			</g>
		</g>
		<g>
			<g>
				<path class="st2" d="M591.3,384.8c3-1.3,6-2.5,9-3.8c0-0.1-0.1-0.1-0.1-0.2c-3,1.2-6,2.3-9.1,3.5
					C591.1,384.5,591.2,384.6,591.3,384.8z"/>
			</g>
			<g>
				<polygon class="st2" points="590.7,386.1 589.7,383.7 600.7,379.5 601.6,381.6 				"/>
			</g>
		</g>
		<g>
			<g>
				<path class="st2" d="M373.7,476.3c3.1-1.3,6.2-2.6,9.3-3.9c0-0.1,0-0.1-0.1-0.2c-3.1,1.2-6.3,2.5-9.4,3.7
					C373.6,476,373.7,476.1,373.7,476.3z"/>
			</g>
			<g>
				<polygon class="st2" points="373.2,477.6 372.2,475.3 383.5,470.8 384.3,472.7 383.5,473.3 				"/>
			</g>
		</g>
		<g>
			<g>
				<path class="st2" d="M382.6,459.5c-1.8-2.3-3.6-4.7-5.5-7.1C378.5,452.6,381.8,456.6,382.6,459.5z"/>
			</g>
			<g>
				<path class="st2" d="M385,464.2L374.7,451l2.5,0.4c2,0.3,5.5,4.9,6.3,7.8L385,464.2z"/>
			</g>
		</g>
		<g>
			<g>
				<path class="st2" d="M390.7,475.8c0.6,2.9,1.1,5.9,1.7,8.8c-0.2,0-0.5,0.1-0.7,0.1c-0.6-2.9-1.1-5.9-1.7-8.8
					C390.3,476,390.5,475.9,390.7,475.8z"/>
			</g>
			<g>
				<polygon class="st2" points="390.9,486 388.8,475.3 391.5,474.6 393.6,485.5 				"/>
			</g>
		</g>
		<g>
			<g>
				<path class="st2" d="M391.7,498.8c0.1-3.4,0.2-6.4,0.4-9.4C393.1,490.6,392.9,496.5,391.7,498.8z"/>
			</g>
			<g>
				<path class="st2" d="M390.5,503.3l0.7-16.7l1.7,2.1c1.4,1.8,1,8.1-0.3,10.5L390.5,503.3z"/>
			</g>
		</g>
		<g>
			<g>
				<path class="st2" d="M381.5,525.9c-1.9,2.3-3.8,4.6-5.7,6.9c-0.2-0.2-0.4-0.3-0.6-0.5c1.9-2.3,3.8-4.5,5.7-6.8
					C381.1,525.7,381.3,525.8,381.5,525.9z"/>
			</g>
			<g>
				<polygon class="st2" points="376,534.2 373.8,532.5 380.7,524.2 383,525.7 				"/>
			</g>
		</g>
		<g>
			<g>
				<path class="st2" d="M388.5,511.5c0.8-2.8,1.6-5.7,2.4-8.6C391.6,504.2,390.5,508.9,388.5,511.5z"/>
			</g>
			<g>
				<path class="st2" d="M386.1,516.5l4.5-16.3l1.2,2.2c1.1,2-0.5,7.1-2.4,9.7L386.1,516.5z"/>
			</g>
		</g>
		<g>
			<g>
				<path class="st2" d="M341.8,433c2.8,0.6,5.6,1.3,8.5,1.9c0,0.2-0.1,0.4-0.1,0.6c-2.8-0.6-5.7-1.1-8.5-1.7
					C341.7,433.5,341.8,433.3,341.8,433z"/>
			</g>
			<g>
				<polygon class="st2" points="350.9,436.7 340.4,434.6 341,431.8 351.5,434.1 				"/>
			</g>
		</g>
		<g>
			<g>
				<path class="st2" d="M373.7,448.9c-2.3-1.8-4.6-3.7-7-5.5c0.1-0.2,0.3-0.4,0.4-0.5c2.3,1.8,4.6,3.7,7,5.5
					C374,448.5,373.9,448.7,373.7,448.9z"/>
			</g>
			<g>
				<polygon class="st2" points="373.9,450.3 365.4,443.5 367,441.4 375.6,448.2 				"/>
			</g>
		</g>
		<g>
			<g>
				<path class="st2" d="M388.2,514.1c-1.3,2.6-2.6,5.2-3.9,7.8c-0.2-0.1-0.4-0.2-0.6-0.3c1.3-2.6,2.7-5.2,4-7.8
					C387.8,513.9,388,514,388.2,514.1z"/>
			</g>
			<g>
				<polygon class="st2" points="384.7,523.3 382.2,522 387.1,512.5 389.5,513.6 				"/>
			</g>
		</g>
		<g>
			<g>
				<path class="st2" d="M362.8,440.8c-2.7-1.2-5.3-2.5-8-3.7c0.1-0.2,0.2-0.4,0.3-0.6c2.7,1.2,5.3,2.5,8,3.7
					C363,440.4,362.9,440.6,362.8,440.8z"/>
			</g>
			<g>
				<polygon class="st2" points="363.3,442.2 353.5,437.6 354.6,435.1 364.4,439.7 				"/>
			</g>
		</g>
		<g>
			<g>
				<path class="st2" d="M394,467.5c1-0.5,2.1-1,3.1-1.5c0.1,0.3,0.2,0.5,0.3,0.8c-1.2,0.2-2.3,0.4-3.5,0.6
					C394,467.4,394,467.4,394,467.5z"/>
			</g>
			<g>
				<polygon class="st2" points="393.3,468.9 392.7,466.5 394.2,466.2 397.6,464.6 398.9,467.5 394.8,468.2 				"/>
			</g>
		</g>
		<g>
			<g>
				<path class="st2" d="M471.7,413.7c-8.4-3.4-16.8-6.9-25.2-10.3c0-0.1,0.1-0.2,0.1-0.3c8.4,3.4,16.8,6.9,25.2,10.3
					C471.8,413.5,471.8,413.6,471.7,413.7z"/>
			</g>
			<g>
				<polygon class="st2" points="472.3,415 445.2,404 446.1,401.8 473.2,412.9 				"/>
			</g>
		</g>
		<g>
			<g>
				<path class="st2" d="M486.5,449.3c-3.5,8.4-6.9,16.9-10.4,25.3c-0.1,0-0.2-0.1-0.3-0.1c3.5-8.4,6.9-16.9,10.4-25.3
					C486.3,449.2,486.4,449.3,486.5,449.3z"/>
			</g>
			<g>
				<polygon class="st2" points="476.7,475.9 474.5,475.1 485.7,447.9 487.8,448.7 				"/>
			</g>
		</g>
		<g>
			<g>
				<path class="st2" d="M506.7,398.8c3.4-8.4,6.9-16.8,10.3-25.2c0.1,0,0.2,0.1,0.3,0.1c-3.4,8.4-6.9,16.8-10.3,25.3
					C506.9,398.9,506.8,398.8,506.7,398.8z"/>
			</g>
			<g>
				<polygon class="st2" points="507.5,400.3 505.4,399.3 516.5,372.2 518.7,373.1 				"/>
			</g>
		</g>
		<g>
			<g>
				<path class="st2" d="M522.3,434c8.4,3.5,16.9,6.9,25.3,10.4c0,0.1-0.1,0.2-0.1,0.3c-8.4-3.5-16.9-6.9-25.3-10.4
					C522.2,434.2,522.3,434.1,522.3,434z"/>
			</g>
			<g>
				<polygon class="st2" points="548.1,446 520.8,434.9 521.7,432.7 548.9,443.8 				"/>
			</g>
		</g>
		<g>
			<g>
				<path class="st2" d="M496.8,423.9c-1.8,4.3-3.5,8.6-5.4,13.1c-0.1-0.4-0.2-0.6-0.1-0.8c1.5-3.7,3-7.4,4.5-11
					C496.1,424.7,496.5,424.3,496.8,423.9C496.9,423.9,496.8,423.9,496.8,423.9z"/>
			</g>
			<g>
				<path class="st2" d="M491.1,440.6l-0.6-3.5c0-0.1,0-0.2-0.1-0.3c-0.1-0.3-0.2-0.6,0-1c1.6-3.9,3-7.5,4.5-11
					c0.2-0.5,0.5-0.9,0.8-1.2c0.1-0.1,0.1-0.1,0.2-0.2l0.3-0.7l0.8,0.1l-0.2,0.9l0.2,0.2l0.8,0.3L491.1,440.6z"/>
			</g>
		</g>
		<g>
			<g>
				<path class="st2" d="M496.8,423.9C496.8,423.9,496.9,423.9,496.8,423.9c-2.8-1.1-5.7-2.1-8.5-3.2c-1.3-0.5-2.6-1.1-3.9-1.6
					c0.1-0.2,0.2-0.5,0.3-0.7c4.2,1.7,8.4,3.4,12.6,5.1l0,0C497.1,423.6,497,423.7,496.8,423.9z"/>
			</g>
			<g>
				<path class="st2" d="M497.2,425l-2.4-0.4l0.2-0.3l-1.1-0.4c-2-0.8-4-1.5-6-2.3c-0.9-0.4-1.8-0.7-2.7-1.1l-2.2-0.9l1.1-2.6
					l13.5,5.5l-0.2,0.5l1.3,0.5L497.2,425z"/>
			</g>
		</g>
		<g>
			<g>
				<path class="st2" d="M570.1,393.5c3-1.1,5.9-2.2,8.9-3.2c0-0.1,0-0.1,0-0.2c-2.9,1.2-5.8,2.5-8.7,3.7
					C570.2,393.7,570.2,393.6,570.1,393.5z"/>
			</g>
			<g>
				<polygon class="st2" points="569.9,395.1 568.6,393 575.7,390.4 579.6,388.7 580.2,390.8 579.4,391.3 576.5,392.3 				"/>
			</g>
		</g>
		<g>
			<g>
				<path class="st2" d="M509.6,429.2c-3.9-1.6-7.9-3.2-11.8-4.8c0-0.1,0.1-0.2,0.1-0.3c3.9,1.6,7.9,3.2,11.8,4.9
					C509.7,429,509.7,429.1,509.6,429.2z"/>
			</g>
			<g>
				<polygon class="st2" points="510.1,430.5 496.4,424.9 497.4,422.7 511.1,428.3 				"/>
			</g>
		</g>
		<g>
			<g>
				<path class="st2" d="M573,379.6c1.2,3.3,2.4,6.6,3.6,10c-0.2,0.1-0.5,0.2-0.7,0.2c-1.2-3.3-2.4-6.7-3.6-10
					C572.5,379.7,572.8,379.6,573,379.6z"/>
			</g>
			<g>
				<polygon class="st2" points="575.3,391.1 571,379 573.7,378.3 577.9,390.1 				"/>
			</g>
		</g>
		<g>
			<g>
				<path class="st2" d="M497.2,423.5c0-0.2-0.2-0.5-0.1-0.7c1.5-3.8,3.1-7.5,4.9-11.2C500.4,415.5,498.8,419.5,497.2,423.5
					C497.2,423.5,497.2,423.5,497.2,423.5z"/>
			</g>
			<g>
				<path class="st2" d="M498.5,425.1l-1.9-0.7l-0.6-0.7l0.1-0.3c-0.1-0.3-0.1-0.6,0-1c1.6-3.9,3.1-7.6,5-11.3l1.9,0.9l-0.1,0.3
					c-1.5,3.8-3.1,7.5-4.6,11.3L498.5,425.1z"/>
			</g>
		</g>
		<g>
			<g>
				<path class="st2" d="M560.3,397.7c-2.3,0.8-4.6,1.5-7,2.3c0,0,0,0.1,0,0.1c2.2-1,4.5-1.9,6.7-2.9
					C560.2,397.4,560.2,397.5,560.3,397.7z"/>
			</g>
			<g>
				<polygon class="st2" points="552.6,401.6 552.2,399.4 553,399 554.3,398.6 560.6,395.9 561.7,398.3 555,400.5 				"/>
			</g>
		</g>
		<g>
			<g>
				<path class="st2" d="M581.5,400.4c-0.8-1.5-1.7-3-2.5-4.5c0.2-0.1,0.4-0.2,0.6-0.3c0.8,1.5,1.7,3,2.5,4.5
					C581.9,400.1,581.7,400.3,581.5,400.4z"/>
			</g>
			<g>
				<polygon class="st2" points="581.1,401.8 577.6,395.5 579.9,394.2 580.5,395.1 583.5,400.4 				"/>
			</g>
		</g>
	</g>
	<g>
		<path class="st0" d="M601.6,453.2l-4.7,2.7c-19.1,11-43.6,4.4-54.6-14.6l-85.4-148c-11-19.1-4.4-43.6,14.6-54.6l4.7-2.7
			c19.1-11,43.6-4.4,54.6,14.6l85.4,148C627.3,417.6,620.7,442.2,601.6,453.2z"/>
	</g>
	<g>
		<path class="st1" d="M517.3,599.5l-4.7,2.7c-19.1,11-43.6,4.4-54.6-14.6l-85.4-148c-11-19.1-4.4-43.6,14.6-54.6l4.7-2.7
			c19.1-11,43.6-4.4,54.6,14.6l85.4,148C542.9,563.9,536.4,588.5,517.3,599.5z"/>
	</g>
	<g>
		<path class="st1" d="M686,599.5l-4.7,2.7c-19.1,11-43.6,4.4-54.6-14.6l-85.4-148c-11-19.1-4.4-43.6,14.6-54.6l4.7-2.7
			c19.1-11,43.6-4.4,54.6,14.6l85.4,148C711.6,563.9,705,588.5,686,599.5z"/>
	</g>
	<g>
		
			<image style="overflow:visible;opacity:0.27;" width="183" height="244" xlink:href="40D5F313CF8CC142.png"  transform="matrix(1 0 0 1 281 371)">
		</image>
		<g>
			<g>
				<path class="st1" d="M434,384.9l-4.7-2.7c-19.1-11-43.6-4.4-54.6,14.6l-85.4,148c-11,19.1-4.4,43.6,14.6,54.6l4.7,2.7
					c19.1,11,43.6,4.4,54.6-14.6l85.4-148C459.7,420.5,453.1,395.9,434,384.9z"/>
			</g>
		</g>
	</g>
	<g>
		
			<image style="overflow:visible;opacity:0.27;" width="183" height="244" xlink:href="40D5F313CF8CC145.png"  transform="matrix(1 0 0 1 366 225)">
		</image>
		<g>
			<g>
				<path class="st0" d="M518.4,238.6l-4.7-2.7c-19.1-11-43.6-4.4-54.6,14.6l-85.4,148c-11,19.1-4.4,43.6,14.6,54.6l4.7,2.7
					c19.1,11,43.6,4.4,54.6-14.6l85.4-148C544,274.2,537.4,249.6,518.4,238.6z"/>
			</g>
		</g>
	</g>
	<g>
		
			<image style="overflow:visible;opacity:0.27;" width="183" height="244" xlink:href="40D5F313CF8CC144.png"  transform="matrix(1 0 0 1 451 371)">
		</image>
		<g>
			<g>
				<path class="st1" d="M603.8,384.9l-4.7-2.7c-19.1-11-43.6-4.4-54.6,14.6l-85.4,148c-11,19.1-4.4,43.6,14.6,54.6l4.7,2.7
					c19.1,11,43.6,4.4,54.6-14.6l85.4-148C629.4,420.5,622.8,395.9,603.8,384.9z"/>
			</g>
		</g>
	</g>
	<g>
		
			<image style="overflow:visible;opacity:0.27;" width="384" height="341" xlink:href="40D5F313CF8CC14B.png"  transform="matrix(1 0 0 1 305 254)">
		</image>
		<g>
			<g>
				<polygon class="st3" points="511.5,271 496.7,259.3 479.1,266.2 476.3,284.9 491.1,296.7 508.7,289.7 				"/>
			</g>
			<g>
				<g>
					<polygon class="st3" points="665.5,550.1 647.2,554.9 642.1,573.1 655.4,586.6 673.7,581.8 678.7,563.6 					"/>
				</g>
				<g>
					<polygon class="st3" points="512.5,557.4 495.3,549.5 479.9,560.5 481.7,579.3 498.9,587.2 514.3,576.2 					"/>
				</g>
				<g>
					<polygon class="st3" points="338.7,554.2 320.2,550.5 307.7,564.7 313.8,582.6 332.3,586.3 344.8,572.1 					"/>
				</g>
			</g>
			<g>
				<g>
					<polygon class="st3" points="582.1,403.9 564.5,410.9 561.7,429.6 576.5,441.3 594.1,434.4 596.9,415.7 					"/>
				</g>
				<g>
					<polygon class="st3" points="422.5,410 404.5,404.1 390.5,416.8 394.4,435.3 412.4,441.1 426.4,428.5 					"/>
				</g>
			</g>
		</g>
	</g>
</g>
</svg>
