<?xml version="1.0" encoding="utf-8"?>
<!-- Generator: Adobe Illustrator 16.0.0, SVG Export Plug-In . SVG Version: 6.00 Build 0)  -->
<!DOCTYPE svg PUBLIC "-//W3C//DTD SVG 1.1//EN" "http://www.w3.org/Graphics/SVG/1.1/DTD/svg11.dtd">
<svg version="1.1" id="Layer_1" xmlns="http://www.w3.org/2000/svg" xmlns:xlink="http://www.w3.org/1999/xlink" x="0px" y="0px"
	 width="841.89px" height="595.28px" viewBox="0 0 841.89 595.28" enable-background="new 0 0 841.89 595.28" xml:space="preserve">
<g>
	<polygon fill="#A42E72" points="454.84,270.571 501.816,236.603 454.84,201.187 	"/>
	<polygon fill="#A42E72" points="443.308,180.192 393.526,216.188 443.308,253.715 	"/>
	<g>
		<defs>
			<polygon id="SVGID_1_" points="393.562,216.37 443.343,253.898 443.343,180.374 			"/>
		</defs>
		<clipPath id="SVGID_2_">
			<use xlink:href="#SVGID_1_"  overflow="visible"/>
		</clipPath>
		<defs>
			<filter id="Adobe_OpacityMaskFilter" filterUnits="userSpaceOnUse" x="393.562" y="180.374" width="49.78" height="73.524">
				<feColorMatrix  type="matrix" values="1 0 0 0 0  0 1 0 0 0  0 0 1 0 0  0 0 0 1 0"/>
			</filter>
		</defs>
		<mask maskUnits="userSpaceOnUse" x="393.562" y="180.374" width="49.78" height="73.524" id="SVGID_3_">
			<g filter="url(#Adobe_OpacityMaskFilter)">
				
					<linearGradient id="SVGID_4_" gradientUnits="userSpaceOnUse" x1="0.7197" y1="594.8701" x2="2.3286" y2="594.8701" gradientTransform="matrix(50.8973 0 0 -50.8973 356.9062 30494.4062)">
					<stop  offset="0" style="stop-color:#FFFFFF"/>
					<stop  offset="1" style="stop-color:#000000"/>
				</linearGradient>
				<rect x="393.562" y="180.374" clip-path="url(#SVGID_2_)" fill="url(#SVGID_4_)" width="49.78" height="73.524"/>
			</g>
		</mask>
		
			<linearGradient id="SVGID_5_" gradientUnits="userSpaceOnUse" x1="0.7197" y1="594.8701" x2="2.3286" y2="594.8701" gradientTransform="matrix(50.8973 0 0 -50.8973 356.9062 30494.4062)">
			<stop  offset="0" style="stop-color:#EE4A9A"/>
			<stop  offset="1" style="stop-color:#931C56"/>
		</linearGradient>
		
			<rect x="393.562" y="180.374" clip-path="url(#SVGID_2_)" mask="url(#SVGID_3_)" fill="url(#SVGID_5_)" width="49.78" height="73.524"/>
	</g>
	<g>
		<path fill="#A42E72" d="M148.398,376.553c22.915,0,44.18,17.408,44.18,47.658c0,30.249-21.265,47.662-44.18,47.662
			c-23.095,0-44.359-17.413-44.359-47.662C104.04,393.961,125.304,376.553,148.398,376.553 M148.398,450.06
			c11.001,0,16.684-10.081,16.684-25.849c0-15.761-5.683-25.845-16.684-25.845c-11.181,0-16.681,10.084-16.681,25.845
			C131.718,439.979,137.217,450.06,148.398,450.06"/>
		<path fill="#A42E72" d="M240.444,399.831h-12.463v-19.98l13.933-1.103l3.114-24.195h22.363v24.195h21.817v21.083h-21.817v36.485
			c0,10.261,4.584,14.479,11.733,14.479c2.936,0,6.236-0.919,8.619-1.836l4.214,19.614c-4.766,1.467-11.365,3.299-20.165,3.299
			c-22.547,0-31.348-14.113-31.348-35.194V399.831z"/>
		<path fill="#A42E72" d="M368.417,376.551c25.85,0,38.681,18.882,38.681,43.627c0,4.769-0.548,9.168-1.099,11.37h-54.445
			c2.383,13.745,11.549,19.795,23.647,19.795c6.784,0,13.017-2.01,19.617-6.05l8.98,16.317
			c-9.351,6.415-21.448,10.263-32.262,10.263c-26.03,0-46.011-17.595-46.011-47.662
			C325.525,394.698,346.605,376.551,368.417,376.551 M384.186,414.862c0-10.449-4.399-17.781-15.215-17.781
			c-8.437,0-15.768,5.682-17.598,17.781H384.186z"/>
		<path fill="#A42E72" d="M451.481,378.748h21.998l1.832,11.548h0.735c7.7-7.332,16.864-13.743,29.147-13.743
			c19.796,0,28.229,13.929,28.229,36.661v56.463h-26.948v-52.979c0-13.197-3.481-17.231-11.186-17.231
			c-6.777,0-10.994,3.115-16.859,8.799v61.412h-26.949V378.748z"/>
		<path fill="#A42E72" d="M582.025,378.748h21.997l1.831,15.95h0.736c6.603-12.28,16.499-18.146,25.847-18.146
			c5.137,0,8.248,0.73,10.814,1.83l-4.394,23.28c-3.303-0.92-6.055-1.467-9.903-1.467c-6.783,0-15.216,4.405-19.981,16.686v52.795
			h-26.947V378.748z"/>
		<path fill="#A42E72" d="M717.877,376.553c22.92,0,44.186,17.408,44.186,47.658c0,30.249-21.266,47.662-44.186,47.662
			c-23.092,0-44.356-17.413-44.356-47.662C673.521,393.961,694.785,376.553,717.877,376.553 M717.877,450.06
			c11.006,0,16.688-10.081,16.688-25.849c0-15.761-5.682-25.845-16.688-25.845c-11.178,0-16.678,10.084-16.678,25.845
			C701.199,439.979,706.699,450.06,717.877,450.06"/>
		<polygon fill="#A42E72" points="443.645,337.424 323.655,245.856 323.655,188.228 443.657,108.559 443.645,165.455 
			370.724,217.158 443.645,268.889 		"/>
	</g>
	<g>
		<defs>
			<polygon id="SVGID_6_" points="323.656,188.227 323.656,245.855 443.642,337.424 443.642,268.887 372.771,218.61 
				324.669,187.455 			"/>
		</defs>
		<clipPath id="SVGID_7_">
			<use xlink:href="#SVGID_6_"  overflow="visible"/>
		</clipPath>
		<defs>
			<filter id="Adobe_OpacityMaskFilter_1_" filterUnits="userSpaceOnUse" x="323.656" y="187.455" width="119.985" height="149.97">
				<feColorMatrix  type="matrix" values="1 0 0 0 0  0 1 0 0 0  0 0 1 0 0  0 0 0 1 0"/>
			</filter>
		</defs>
		<mask maskUnits="userSpaceOnUse" x="323.656" y="187.455" width="119.985" height="149.97" id="SVGID_8_">
			<g filter="url(#Adobe_OpacityMaskFilter_1_)">
				
					<linearGradient id="SVGID_9_" gradientUnits="userSpaceOnUse" x1="0.1338" y1="594.7676" x2="1.7441" y2="594.7676" gradientTransform="matrix(74.5227 0 0 -74.5227 313.6875 44586.0469)">
					<stop  offset="0" style="stop-color:#FFFFFF"/>
					<stop  offset="1" style="stop-color:#000000"/>
				</linearGradient>
				<rect x="323.656" y="187.455" clip-path="url(#SVGID_7_)" fill="url(#SVGID_9_)" width="119.985" height="149.97"/>
			</g>
		</mask>
		
			<linearGradient id="SVGID_10_" gradientUnits="userSpaceOnUse" x1="0.1338" y1="594.7676" x2="1.7441" y2="594.7676" gradientTransform="matrix(74.5227 0 0 -74.5227 313.6875 44586.0469)">
			<stop  offset="0" style="stop-color:#EE4A9A"/>
			<stop  offset="1" style="stop-color:#931C56"/>
		</linearGradient>
		
			<rect x="323.656" y="187.455" clip-path="url(#SVGID_7_)" mask="url(#SVGID_8_)" fill="url(#SVGID_10_)" width="119.985" height="149.97"/>
	</g>
	<polygon fill="#A42E72" points="454.889,357.296 563.512,265.728 563.512,208.1 455.197,125.796 454.889,185.326 520.903,237.029 
		454.889,288.757 	"/>
	<g>
		<defs>
			<polygon id="SVGID_11_" points="519.05,238.482 454.889,288.757 454.889,357.297 563.512,265.729 563.512,208.099 
				562.594,207.326 			"/>
		</defs>
		<clipPath id="SVGID_12_">
			<use xlink:href="#SVGID_11_"  overflow="visible"/>
		</clipPath>
		<defs>
			
				<filter id="Adobe_OpacityMaskFilter_2_" filterUnits="userSpaceOnUse" x="454.889" y="207.326" width="108.623" height="149.971">
				<feColorMatrix  type="matrix" values="1 0 0 0 0  0 1 0 0 0  0 0 1 0 0  0 0 0 1 0"/>
			</filter>
		</defs>
		<mask maskUnits="userSpaceOnUse" x="454.889" y="207.326" width="108.623" height="149.971" id="SVGID_13_">
			<g filter="url(#Adobe_OpacityMaskFilter_2_)">
				
					<linearGradient id="SVGID_14_" gradientUnits="userSpaceOnUse" x1="-1.4946" y1="594.6641" x2="0.1152" y2="594.6641" gradientTransform="matrix(-67.4647 0 0 -74.5227 462.6875 44598.2969)">
					<stop  offset="0" style="stop-color:#FFFFFF"/>
					<stop  offset="1" style="stop-color:#000000"/>
				</linearGradient>
				<rect x="454.889" y="207.326" clip-path="url(#SVGID_12_)" fill="url(#SVGID_14_)" width="108.623" height="149.971"/>
			</g>
		</mask>
		
			<linearGradient id="SVGID_15_" gradientUnits="userSpaceOnUse" x1="-1.4946" y1="594.667" x2="0.1152" y2="594.667" gradientTransform="matrix(-67.4647 0 0 -74.5227 462.6875 44598.4844)">
			<stop  offset="0" style="stop-color:#EE4A9A"/>
			<stop  offset="1" style="stop-color:#931C56"/>
		</linearGradient>
		
			<rect x="454.889" y="207.326" clip-path="url(#SVGID_12_)" mask="url(#SVGID_13_)" fill="url(#SVGID_15_)" width="108.623" height="149.971"/>
	</g>
</g>
</svg>
